<svg xmlns="http://www.w3.org/2000/svg" width="754" height="755" viewBox="0 0 754 755" fill="none"><path d="M105.8 675.724C105.841 675.736 105.865 675.778 105.854 675.819C105.843 675.861 105.801 675.885 105.759 675.874C105.718 675.863 105.694 675.82 105.705 675.779C105.716 675.738 105.758 675.713 105.8 675.724Z" fill="#FFB700"></path><path d="M126.581 681.271C126.581 681.271 126.683 681.339 126.663 681.413C126.643 681.488 126.595 681.516 126.52 681.496C126.446 681.475 126.418 681.428 126.438 681.353C126.458 681.278 126.506 681.251 126.581 681.271Z" fill="#FFB700"></path><path d="M147.401 686.668C147.401 686.668 147.67 686.861 147.62 687.047C147.569 687.234 147.427 687.316 147.24 687.266C147.053 687.216 146.972 687.073 147.022 686.887C147.072 686.7 147.214 686.618 147.401 686.668Z" fill="#FFB700"></path><path d="M168.232 692.188C168.419 692.238 168.528 692.428 168.478 692.615C168.427 692.801 168.238 692.911 168.051 692.86C167.864 692.81 167.755 692.621 167.805 692.434C167.855 692.247 168.045 692.138 168.232 692.188Z" fill="#FFB700"></path><path d="M189.015 697.735C189.242 697.796 189.376 698.029 189.315 698.256C189.254 698.483 189.021 698.618 188.794 698.557C188.567 698.496 188.432 698.262 188.493 698.035C188.554 697.808 188.788 697.674 189.015 697.735Z" fill="#FFB700"></path><path d="M209.777 703.355C209.964 703.406 210.073 703.595 210.023 703.782C209.972 703.969 209.783 704.078 209.596 704.028C209.409 703.978 209.3 703.788 209.35 703.601C209.4 703.414 209.59 703.305 209.777 703.355Z" fill="#FFB700"></path><path d="M230.527 709.014C230.692 709.058 230.79 709.228 230.745 709.393C230.701 709.558 230.531 709.656 230.366 709.612C230.201 709.567 230.103 709.397 230.148 709.232C230.192 709.067 230.362 708.969 230.527 709.014Z" fill="#FFB700"></path><path d="M251.307 714.721C251.41 714.749 251.471 714.855 251.444 714.958C251.416 715.061 251.31 715.122 251.207 715.094C251.104 715.066 251.043 714.96 251.071 714.857C251.098 714.755 251.204 714.693 251.307 714.721Z" fill="#FFB700"></path><path d="M272.05 720.416C272.05 720.416 272.124 720.436 272.104 720.511C272.084 720.586 272.084 720.586 272.009 720.566C271.935 720.546 271.935 720.546 271.955 720.471C271.975 720.396 271.975 720.396 272.05 720.416Z" fill="#FFB700"></path><path d="M90.6624 649.183C90.7859 649.216 90.8592 649.344 90.826 649.467C90.7928 649.591 90.6656 649.664 90.5421 649.631C90.4185 649.597 90.3453 649.47 90.3785 649.347C90.4117 649.223 90.5388 649.15 90.6624 649.183Z" fill="#FFB700"></path><path d="M111.502 654.504C111.801 654.585 111.965 654.869 111.885 655.168C111.805 655.467 111.52 655.631 111.221 655.55C110.922 655.47 110.759 655.186 110.839 654.887C110.919 654.588 111.204 654.424 111.502 654.504Z" fill="#FFB700"></path><path d="M132.346 659.827C132.757 659.938 133.003 660.364 132.893 660.775C132.782 661.186 132.355 661.432 131.944 661.321C131.534 661.211 131.288 660.784 131.398 660.373C131.509 659.962 131.935 659.717 132.346 659.827Z" fill="#FFB700"></path><path d="M153.157 665.261C153.68 665.402 153.98 665.923 153.84 666.446C153.699 666.969 153.178 667.27 152.655 667.129C152.132 666.988 151.831 666.467 151.972 665.944C152.112 665.421 152.634 665.12 153.157 665.261Z" fill="#FFB700"></path><path d="M173.996 670.743C174.557 670.893 174.922 671.472 174.761 672.07C174.6 672.668 174.032 672.996 173.434 672.835C172.836 672.674 172.508 672.105 172.669 671.508C172.83 670.91 173.398 670.582 173.996 670.743Z" fill="#FFB700"></path><path d="M194.787 676.252C195.385 676.413 195.74 677.029 195.579 677.627C195.419 678.225 194.802 678.58 194.205 678.419C193.607 678.258 193.252 677.642 193.412 677.044C193.573 676.447 194.189 676.092 194.787 676.252Z" fill="#FFB700"></path><path d="M215.541 681.911C216.101 682.062 216.467 682.641 216.306 683.239C216.145 683.836 215.576 684.164 214.979 684.003C214.381 683.843 214.053 683.274 214.214 682.676C214.375 682.078 214.943 681.751 215.541 681.911Z" fill="#FFB700"></path><path d="M236.292 687.569C236.807 687.708 237.113 688.238 236.975 688.754C236.836 689.27 236.305 689.576 235.789 689.437C235.274 689.298 234.968 688.768 235.107 688.252C235.245 687.736 235.776 687.43 236.292 687.569Z" fill="#FFB700"></path><path d="M257.052 693.35C257.463 693.461 257.709 693.888 257.599 694.299C257.488 694.709 257.061 694.955 256.651 694.845C256.24 694.734 255.994 694.308 256.104 693.897C256.215 693.486 256.641 693.24 257.052 693.35Z" fill="#FFB700"></path><path d="M277.754 699.196C278.053 699.276 278.217 699.561 278.137 699.86C278.057 700.159 277.772 700.323 277.473 700.242C277.174 700.162 277.01 699.877 277.091 699.579C277.171 699.28 277.456 699.116 277.754 699.196Z" fill="#FFB700"></path><path d="M298.453 705.042C298.577 705.075 298.65 705.202 298.617 705.326C298.584 705.449 298.457 705.523 298.333 705.489C298.21 705.456 298.136 705.329 298.17 705.205C298.203 705.082 298.33 705.009 298.453 705.042Z" fill="#FFB700"></path><path d="M319.178 710.812C319.178 710.812 319.252 710.833 319.232 710.907C319.212 710.982 319.212 710.982 319.137 710.962C319.062 710.942 319.062 710.942 319.083 710.867C319.103 710.792 319.103 710.792 319.178 710.812Z" fill="#FFB700"></path><path d="M54.6111 617.418C54.6111 617.418 54.686 617.438 54.6659 617.513C54.6457 617.588 54.6458 617.588 54.5709 617.568C54.4961 617.548 54.4961 617.548 54.5162 617.473C54.5363 617.398 54.5363 617.398 54.6111 617.418Z" fill="#FFB700"></path><path d="M75.4864 622.629C75.7106 622.69 75.8471 622.927 75.7869 623.151C75.7266 623.375 75.4896 623.512 75.2655 623.451C75.0413 623.391 74.9047 623.154 74.965 622.93C75.0252 622.706 75.2622 622.569 75.4864 622.629Z" fill="#FFB700"></path><path d="M96.3976 627.85C96.8459 627.97 97.1191 628.444 96.9986 628.893C96.8781 629.341 96.404 629.614 95.9557 629.494C95.5074 629.373 95.2342 628.899 95.3547 628.451C95.4753 628.002 95.9493 627.729 96.3976 627.85Z" fill="#FFB700"></path><path d="M117.267 633.06C117.907 633.232 118.286 633.89 118.114 634.529C117.942 635.169 117.284 635.548 116.644 635.376C116.005 635.204 115.626 634.546 115.798 633.907C115.97 633.267 116.628 632.888 117.267 633.06Z" fill="#FFB700"></path><path d="M138.113 638.383C138.898 638.594 139.4 639.41 139.179 640.232C138.958 641.054 138.152 641.518 137.33 641.297C136.508 641.076 136.044 640.27 136.265 639.448C136.486 638.627 137.292 638.162 138.113 638.383Z" fill="#FFB700"></path><path d="M158.931 643.779C159.828 644.02 160.347 644.921 160.106 645.817C159.865 646.714 158.964 647.233 158.067 646.992C157.171 646.751 156.652 645.85 156.893 644.954C157.134 644.057 158.034 643.538 158.931 643.779Z" fill="#FFB700"></path><path d="M179.791 649.186C180.762 649.447 181.373 650.453 181.102 651.462C180.831 652.47 179.835 653.044 178.826 652.773C177.818 652.502 177.244 651.506 177.515 650.497C177.786 649.489 178.782 648.915 179.791 649.186Z" fill="#FFB700"></path><path d="M200.576 654.734C201.587 655.005 202.186 656.045 201.914 657.056C201.642 658.067 200.602 658.667 199.591 658.395C198.58 658.123 197.981 657.083 198.253 656.072C198.525 655.061 199.565 654.462 200.576 654.734Z" fill="#FFB700"></path><path d="M221.335 660.354C222.306 660.615 222.917 661.621 222.646 662.629C222.375 663.638 221.379 664.212 220.37 663.941C219.362 663.669 218.788 662.674 219.059 661.665C219.33 660.656 220.326 660.083 221.335 660.354Z" fill="#FFB700"></path><path d="M242.08 666.051C243.014 666.302 243.561 667.25 243.309 668.184C243.058 669.118 242.11 669.664 241.176 669.413C240.242 669.162 239.696 668.214 239.947 667.28C240.198 666.346 241.146 665.8 242.08 666.051Z" fill="#FFB700"></path><path d="M262.819 671.907C263.604 672.118 264.106 672.934 263.885 673.756C263.664 674.577 262.858 675.042 262.036 674.821C261.214 674.6 260.75 673.794 260.971 672.972C261.192 672.15 261.998 671.686 262.819 671.907Z" fill="#FFB700"></path><path d="M283.519 677.751C284.154 677.922 284.537 678.586 284.366 679.221C284.195 679.856 283.532 680.238 282.896 680.068C282.261 679.897 281.879 679.233 282.05 678.598C282.22 677.963 282.884 677.581 283.519 677.751Z" fill="#FFB700"></path><path d="M304.193 683.709C304.641 683.83 304.914 684.304 304.793 684.752C304.673 685.201 304.199 685.474 303.751 685.353C303.302 685.233 303.029 684.759 303.15 684.31C303.27 683.862 303.744 683.589 304.193 683.709Z" fill="#FFB700"></path><path d="M324.863 689.667C325.088 689.727 325.224 689.964 325.164 690.188C325.104 690.413 324.867 690.549 324.642 690.489C324.418 690.429 324.282 690.192 324.342 689.967C324.402 689.743 324.639 689.607 324.863 689.667Z" fill="#FFB700"></path><path d="M345.573 695.635C345.573 695.635 345.648 695.655 345.628 695.73C345.608 695.804 345.608 695.804 345.533 695.784C345.458 695.764 345.458 695.764 345.478 695.689C345.498 695.615 345.498 695.615 345.573 695.635Z" fill="#FFB700"></path><path d="M39.4373 591.025C39.4373 591.025 39.5122 591.046 39.492 591.12C39.4719 591.195 39.4719 591.195 39.3971 591.175C39.3223 591.155 39.3223 591.155 39.3424 591.08C39.3625 591.005 39.3625 591.005 39.4373 591.025Z" fill="#FFB700"></path><path d="M60.3075 596.235C60.5551 596.302 60.7019 596.557 60.6353 596.804C60.5687 597.052 60.3141 597.199 60.0665 597.132C59.8189 597.065 59.6721 596.811 59.7387 596.563C59.8052 596.316 60.0599 596.169 60.3075 596.235Z" fill="#FFB700"></path><path d="M81.2086 601.334C81.7244 601.472 82.0302 602.003 81.8915 602.519C81.7529 603.034 81.2223 603.34 80.7065 603.202C80.1906 603.063 79.8849 602.532 80.0235 602.016C80.1622 601.501 80.6928 601.195 81.2086 601.334Z" fill="#FFB700"></path><path d="M102.14 606.48C102.887 606.68 103.352 607.486 103.151 608.233C102.95 608.981 102.144 609.445 101.397 609.244C100.65 609.043 100.185 608.237 100.386 607.49C100.587 606.743 101.393 606.279 102.14 606.48Z" fill="#FFB700"></path><path d="M123.022 611.652C124.012 611.919 124.599 612.937 124.333 613.928C124.067 614.918 123.048 615.505 122.058 615.239C121.068 614.973 120.48 613.954 120.747 612.964C121.013 611.973 122.032 611.386 123.022 611.652Z" fill="#FFB700"></path><path d="M143.873 616.937C145.029 617.248 145.714 618.436 145.403 619.592C145.092 620.747 143.904 621.432 142.748 621.121C141.593 620.811 140.908 619.622 141.219 618.467C141.529 617.311 142.718 616.627 143.873 616.937Z" fill="#FFB700"></path><path d="M164.705 622.297C165.975 622.638 166.74 623.966 166.399 625.236C166.057 626.506 164.73 627.271 163.46 626.93C162.19 626.588 161.425 625.261 161.766 623.991C162.108 622.72 163.435 621.956 164.705 622.297Z" fill="#FFB700"></path><path d="M185.556 627.742C186.938 628.114 187.721 629.526 187.359 630.871C186.997 632.216 185.575 633.035 184.23 632.674C182.885 632.312 182.066 630.89 182.427 629.545C182.789 628.2 184.211 627.381 185.556 627.742Z" fill="#FFB700"></path><path d="M206.349 633.251C207.752 633.629 208.583 635.072 208.206 636.475C207.829 637.878 206.386 638.71 204.983 638.332C203.58 637.955 202.748 636.512 203.125 635.109C203.502 633.706 204.946 632.874 206.349 633.251Z" fill="#FFB700"></path><path d="M227.101 638.91C228.483 639.282 229.265 640.694 228.904 642.039C228.542 643.384 227.12 644.203 225.775 643.842C224.43 643.48 223.611 642.058 223.972 640.713C224.334 639.368 225.756 638.548 227.101 638.91Z" fill="#FFB700"></path><path d="M247.831 644.643C249.11 644.987 249.869 646.303 249.525 647.582C249.181 648.861 247.865 649.619 246.586 649.276C245.307 648.932 244.548 647.616 244.892 646.337C245.236 645.057 246.552 644.299 247.831 644.643Z" fill="#FFB700"></path><path d="M268.584 650.463C269.74 650.773 270.425 651.962 270.114 653.117C269.803 654.273 268.615 654.957 267.459 654.647C266.304 654.336 265.619 653.148 265.93 651.992C266.24 650.837 267.429 650.152 268.584 650.463Z" fill="#FFB700"></path><path d="M289.273 656.344C290.244 656.605 290.855 657.611 290.584 658.62C290.313 659.628 289.318 660.202 288.309 659.931C287.3 659.66 286.727 658.664 286.998 657.655C287.269 656.647 288.264 656.073 289.273 656.344Z" fill="#FFB700"></path><path d="M309.935 662.339C310.699 662.545 311.151 663.33 310.946 664.093C310.741 664.857 309.955 665.309 309.192 665.104C308.428 664.899 307.976 664.114 308.181 663.35C308.386 662.587 309.172 662.134 309.935 662.339Z" fill="#FFB700"></path><path d="M330.596 668.334C331.133 668.478 331.451 669.03 331.306 669.567C331.162 670.103 330.61 670.421 330.074 670.277C329.537 670.133 329.219 669.581 329.364 669.044C329.508 668.508 330.06 668.19 330.596 668.334Z" fill="#FFB700"></path><path d="M351.288 674.377C351.587 674.457 351.75 674.742 351.67 675.04C351.59 675.339 351.305 675.503 351.006 675.423C350.708 675.342 350.544 675.058 350.624 674.759C350.704 674.46 350.989 674.296 351.288 674.377Z" fill="#FFB700"></path><path d="M371.937 680.409C371.937 680.409 372.012 680.429 371.992 680.503C371.972 680.578 371.972 680.578 371.897 680.558C371.822 680.538 371.822 680.538 371.842 680.463C371.863 680.388 371.863 680.388 371.937 680.409Z" fill="#FFB700"></path><path d="M45.1104 569.917C45.3346 569.977 45.4711 570.215 45.4109 570.439C45.3506 570.663 45.1136 570.799 44.8895 570.739C44.6653 570.679 44.5287 570.442 44.589 570.218C44.6492 569.994 44.8863 569.857 45.1104 569.917Z" fill="#FFB700"></path><path d="M66.0231 574.978C66.5389 575.117 66.8446 575.648 66.706 576.163C66.5673 576.679 66.0367 576.985 65.5209 576.846C65.0051 576.708 64.6993 576.177 64.838 575.661C64.9767 575.145 65.5072 574.84 66.0231 574.978Z" fill="#FFB700"></path><path d="M86.9338 580.039C87.7384 580.255 88.2154 581.083 87.9991 581.888C87.7828 582.692 86.9551 583.169 86.1504 582.953C85.3457 582.737 84.8687 581.909 85.085 581.104C85.3013 580.3 86.1291 579.823 86.9338 580.039Z" fill="#FFB700"></path><path d="M107.887 585.11C108.97 585.402 109.598 586.492 109.307 587.575C109.016 588.659 107.926 589.287 106.842 588.996C105.759 588.705 105.13 587.614 105.422 586.531C105.713 585.447 106.803 584.819 107.887 585.11Z" fill="#FFB700"></path><path d="M128.756 590.32C130.056 590.669 130.826 592.006 130.477 593.306C130.127 594.606 128.79 595.377 127.49 595.027C126.19 594.678 125.42 593.341 125.769 592.041C126.119 590.741 127.456 589.97 128.756 590.32Z" fill="#FFB700"></path><path d="M149.631 595.531C151.125 595.933 152.036 597.46 151.625 598.991C151.213 600.523 149.706 601.36 148.174 600.948C146.643 600.536 145.806 599.03 146.207 597.535C146.609 596.041 148.136 595.129 149.631 595.531Z" fill="#FFB700"></path><path d="M170.482 600.816C172.126 601.258 173.11 602.964 172.668 604.608C172.226 606.252 170.519 607.236 168.876 606.794C167.232 606.352 166.248 604.645 166.69 603.001C167.132 601.358 168.839 600.374 170.482 600.816Z" fill="#FFB700"></path><path d="M191.334 606.261C193.09 606.733 194.128 608.534 193.656 610.29C193.184 612.046 191.383 613.084 189.627 612.612C187.871 612.14 186.833 610.339 187.305 608.583C187.777 606.827 189.578 605.789 191.334 606.261Z" fill="#FFB700"></path><path d="M212.114 611.807C213.889 612.284 214.94 614.109 214.463 615.884C213.986 617.658 212.161 618.71 210.387 618.233C208.612 617.756 207.561 615.931 208.038 614.156C208.515 612.382 210.34 611.33 212.114 611.807Z" fill="#FFB700"></path><path d="M232.874 617.428C234.63 617.9 235.668 619.701 235.196 621.457C234.724 623.213 232.923 624.251 231.167 623.779C229.411 623.307 228.373 621.505 228.845 619.749C229.317 617.994 231.118 616.955 232.874 617.428Z" fill="#FFB700"></path><path d="M253.597 623.199C255.247 623.643 256.226 625.34 255.782 626.991C255.338 628.642 253.64 629.62 251.99 629.176C250.339 628.733 249.361 627.035 249.804 625.384C250.248 623.733 251.946 622.755 253.597 623.199Z" fill="#FFB700"></path><path d="M274.339 629.055C275.833 629.457 276.744 630.984 276.333 632.515C275.921 634.047 274.414 634.884 272.882 634.472C271.351 634.06 270.514 632.554 270.915 631.059C271.317 629.565 272.844 628.653 274.339 629.055Z" fill="#FFB700"></path><path d="M295.018 634.975C296.325 635.326 297.09 636.653 296.738 637.961C296.387 639.269 295.06 640.034 293.752 639.682C292.445 639.331 291.68 638.003 292.031 636.696C292.383 635.388 293.71 634.623 295.018 634.975Z" fill="#FFB700"></path><path d="M315.679 640.969C316.762 641.261 317.39 642.351 317.099 643.434C316.808 644.518 315.718 645.146 314.634 644.855C313.551 644.564 312.922 643.473 313.214 642.39C313.505 641.306 314.595 640.678 315.679 640.969Z" fill="#FFB700"></path><path d="M336.322 647.04C337.144 647.261 337.636 648.114 337.415 648.936C337.194 649.758 336.341 650.25 335.519 650.029C334.697 649.808 334.205 648.955 334.426 648.133C334.647 647.311 335.5 646.819 336.322 647.04Z" fill="#FFB700"></path><path d="M357 653.12C357.523 653.26 357.851 653.829 357.711 654.352C357.57 654.875 357.001 655.203 356.478 655.062C355.955 654.922 355.627 654.353 355.768 653.83C355.909 653.307 356.477 652.979 357 653.12Z" fill="#FFB700"></path><path d="M377.612 659.301C377.837 659.361 377.973 659.598 377.913 659.822C377.853 660.046 377.616 660.183 377.391 660.123C377.167 660.062 377.031 659.825 377.091 659.601C377.151 659.377 377.388 659.241 377.612 659.301Z" fill="#FFB700"></path><path d="M398.291 665.221C398.291 665.221 398.366 665.241 398.346 665.316C398.325 665.39 398.325 665.39 398.251 665.37C398.176 665.35 398.176 665.35 398.196 665.275C398.216 665.2 398.216 665.201 398.291 665.221Z" fill="#FFB700"></path><path d="M29.8821 543.712C30.0057 543.745 30.0789 543.872 30.0457 543.996C30.0125 544.119 29.8854 544.192 29.7618 544.159C29.6383 544.126 29.565 543.999 29.5982 543.875C29.6314 543.752 29.7585 543.679 29.8821 543.712Z" fill="#FFB700"></path><path d="M50.8019 548.734C51.2502 548.854 51.5234 549.328 51.4029 549.777C51.2823 550.225 50.8083 550.498 50.36 550.378C49.9117 550.257 49.6385 549.783 49.759 549.335C49.8796 548.887 50.3536 548.613 50.8019 548.734Z" fill="#FFB700"></path><path d="M71.7358 553.72C72.4993 553.925 72.9518 554.711 72.7466 555.474C72.5413 556.237 71.7561 556.69 70.9927 556.485C70.2292 556.279 69.7767 555.494 69.9819 554.731C70.1872 553.967 70.9724 553.515 71.7358 553.72Z" fill="#FFB700"></path><path d="M92.6591 558.744C93.7425 559.035 94.3708 560.125 94.0796 561.209C93.7883 562.292 92.698 562.92 91.6146 562.629C90.5312 562.338 89.9029 561.248 90.1941 560.164C90.4854 559.081 91.5756 558.452 92.6591 558.744Z" fill="#FFB700"></path><path d="M113.609 563.815C114.991 564.186 115.773 565.598 115.412 566.943C115.05 568.288 113.628 569.108 112.283 568.746C110.938 568.385 110.119 566.963 110.48 565.618C110.842 564.273 112.264 563.453 113.609 563.815Z" fill="#FFB700"></path><path d="M134.501 568.95C136.108 569.382 137.101 571.051 136.659 572.695C136.217 574.339 134.558 575.295 132.914 574.853C131.27 574.411 130.314 572.752 130.756 571.108C131.198 569.464 132.857 568.508 134.501 568.95Z" fill="#FFB700"></path><path d="M155.386 574.124C157.217 574.616 158.309 576.512 157.817 578.343C157.325 580.174 155.429 581.266 153.598 580.774C151.768 580.282 150.675 578.386 151.167 576.555C151.659 574.725 153.556 573.632 155.386 574.124Z" fill="#FFB700"></path><path d="M176.236 579.409C178.254 579.951 179.418 582.027 178.886 584.007C178.354 585.987 176.268 587.189 174.288 586.657C172.308 586.125 171.106 584.039 171.638 582.059C172.171 580.079 174.256 578.877 176.236 579.409Z" fill="#FFB700"></path><path d="M197.105 584.778C199.235 585.35 200.491 587.531 199.919 589.661C199.347 591.79 197.166 593.047 195.037 592.474C192.907 591.902 191.65 589.721 192.223 587.592C192.795 585.462 194.976 584.206 197.105 584.778Z" fill="#FFB700"></path><path d="M217.897 590.287C220.064 590.87 221.348 593.098 220.765 595.265C220.183 597.431 217.955 598.715 215.788 598.133C213.621 597.55 212.337 595.322 212.92 593.156C213.502 590.989 215.73 589.705 217.897 590.287Z" fill="#FFB700"></path><path d="M238.65 595.946C240.78 596.519 242.036 598.699 241.464 600.829C240.891 602.958 238.711 604.215 236.581 603.642C234.452 603.07 233.195 600.889 233.768 598.76C234.34 596.63 236.521 595.374 238.65 595.946Z" fill="#FFB700"></path><path d="M259.374 601.717C261.428 602.27 262.63 604.356 262.078 606.41C261.526 608.465 259.44 609.667 257.385 609.115C255.33 608.562 254.128 606.477 254.681 604.422C255.233 602.367 257.319 601.165 259.374 601.717Z" fill="#FFB700"></path><path d="M280.093 607.648C281.924 608.14 283.016 610.036 282.524 611.867C282.032 613.697 280.136 614.79 278.305 614.298C276.475 613.806 275.382 611.91 275.874 610.079C276.366 608.248 278.263 607.156 280.093 607.648Z" fill="#FFB700"></path><path d="M300.751 613.642C302.358 614.074 303.351 615.743 302.909 617.387C302.467 619.03 300.808 619.987 299.164 619.545C297.52 619.103 296.564 617.444 297.006 615.8C297.448 614.156 299.107 613.2 300.751 613.642Z" fill="#FFB700"></path><path d="M321.404 619.674C322.786 620.046 323.568 621.458 323.207 622.803C322.845 624.148 321.423 624.968 320.078 624.606C318.733 624.244 317.914 622.822 318.275 621.477C318.637 620.132 320.059 619.313 321.404 619.674Z" fill="#FFB700"></path><path d="M342.037 625.782C343.12 626.073 343.749 627.164 343.457 628.247C343.166 629.33 342.076 629.959 340.992 629.668C339.909 629.376 339.281 628.286 339.572 627.202C339.863 626.119 340.954 625.491 342.037 625.782Z" fill="#FFB700"></path><path d="M362.695 631.936C363.458 632.141 363.911 632.927 363.706 633.69C363.5 634.453 362.715 634.906 361.952 634.701C361.188 634.495 360.736 633.71 360.941 632.947C361.146 632.183 361.931 631.731 362.695 631.936Z" fill="#FFB700"></path><path d="M383.305 638.118C383.753 638.238 384.026 638.712 383.906 639.161C383.785 639.609 383.311 639.882 382.863 639.762C382.415 639.641 382.141 639.167 382.262 638.719C382.382 638.271 382.857 637.997 383.305 638.118Z" fill="#FFB700"></path><path d="M403.926 644.263C404.05 644.296 404.123 644.423 404.09 644.547C404.056 644.67 403.929 644.744 403.806 644.71C403.682 644.677 403.609 644.55 403.642 644.426C403.675 644.303 403.802 644.23 403.926 644.263Z" fill="#FFB700"></path><path d="M35.5464 522.64C35.8353 522.718 36.0065 523.015 35.9289 523.304C35.8512 523.592 35.5541 523.764 35.2652 523.686C34.9764 523.608 34.8052 523.311 34.8828 523.022C34.9605 522.733 35.2576 522.562 35.5464 522.64Z" fill="#FFB700"></path><path d="M56.4879 527.588C57.1275 527.76 57.5066 528.418 57.3347 529.058C57.1627 529.697 56.5048 530.077 55.8652 529.905C55.2256 529.733 54.8464 529.075 55.0184 528.435C55.1903 527.795 55.8482 527.416 56.4879 527.588Z" fill="#FFB700"></path><path d="M77.4303 532.537C78.4207 532.803 79.0077 533.822 78.7415 534.812C78.4752 535.803 77.4565 536.39 76.4661 536.123C75.4757 535.857 74.8887 534.838 75.1549 533.848C75.4212 532.858 76.4399 532.271 77.4303 532.537Z" fill="#FFB700"></path><path d="M98.3525 537.561C99.6524 537.91 100.423 539.247 100.073 540.547C99.724 541.847 98.387 542.618 97.0871 542.268C95.7872 541.919 95.0167 540.582 95.3661 539.282C95.7156 537.982 97.0526 537.211 98.3525 537.561Z" fill="#FFB700"></path><path d="M119.324 542.557C120.931 542.989 121.924 544.658 121.482 546.302C121.04 547.946 119.381 548.902 117.738 548.46C116.094 548.018 115.138 546.359 115.58 544.715C116.021 543.071 117.681 542.115 119.324 542.557Z" fill="#FFB700"></path><path d="M140.236 547.618C142.155 548.134 143.292 550.107 142.776 552.026C142.261 553.945 140.287 555.082 138.368 554.567C136.449 554.051 135.312 552.077 135.828 550.158C136.343 548.239 138.317 547.102 140.236 547.618Z" fill="#FFB700"></path><path d="M161.13 552.754C163.297 553.337 164.581 555.565 163.999 557.732C163.416 559.898 161.188 561.182 159.021 560.6C156.855 560.018 155.571 557.789 156.153 555.623C156.736 553.456 158.964 552.172 161.13 552.754Z" fill="#FFB700"></path><path d="M181.992 558.002C184.346 558.634 185.739 561.052 185.106 563.406C184.474 565.759 182.056 567.152 179.702 566.52C177.349 565.887 175.956 563.469 176.588 561.116C177.221 558.762 179.639 557.369 181.992 558.002Z" fill="#FFB700"></path><path d="M202.882 563.297C205.386 563.97 206.888 566.577 206.215 569.08C205.542 571.583 202.935 573.086 200.432 572.413C197.929 571.74 196.426 569.133 197.099 566.63C197.772 564.126 200.379 562.624 202.882 563.297Z" fill="#FFB700"></path><path d="M223.665 568.843C226.202 569.526 227.707 572.136 227.024 574.674C226.342 577.212 223.732 578.716 221.194 578.034C218.656 577.352 217.152 574.741 217.834 572.203C218.516 569.665 221.127 568.161 223.665 568.843Z" fill="#FFB700"></path><path d="M244.426 574.465C246.929 575.138 248.432 577.745 247.759 580.248C247.086 582.751 244.479 584.254 241.976 583.581C239.473 582.908 237.97 580.301 238.643 577.798C239.316 575.294 241.923 573.792 244.426 574.465Z" fill="#FFB700"></path><path d="M265.135 580.272C267.526 580.915 268.947 583.38 268.304 585.771C267.661 588.162 265.196 589.583 262.805 588.94C260.414 588.297 258.994 585.832 259.637 583.441C260.279 581.05 262.744 579.63 265.135 580.272Z" fill="#FFB700"></path><path d="M285.837 586.278C288.003 586.86 289.287 589.089 288.705 591.255C288.122 593.422 285.894 594.706 283.727 594.124C281.561 593.541 280.277 591.313 280.859 589.146C281.442 586.98 283.67 585.696 285.837 586.278Z" fill="#FFB700"></path><path d="M306.499 592.273C308.441 592.795 309.589 594.786 309.066 596.729C308.544 598.672 306.553 599.819 304.61 599.297C302.668 598.774 301.52 596.783 302.043 594.841C302.565 592.898 304.556 591.751 306.499 592.273Z" fill="#FFB700"></path><path d="M327.12 598.417C328.727 598.849 329.72 600.518 329.278 602.162C328.836 603.806 327.177 604.762 325.533 604.32C323.89 603.878 322.934 602.219 323.375 600.575C323.817 598.932 325.476 597.975 327.12 598.417Z" fill="#FFB700"></path><path d="M347.728 604.599C349.028 604.948 349.799 606.285 349.449 607.585C349.1 608.885 347.763 609.655 346.463 609.306C345.163 608.957 344.393 607.62 344.742 606.32C345.092 605.02 346.429 604.249 347.728 604.599Z" fill="#FFB700"></path><path d="M368.388 610.753C369.36 611.014 369.971 612.019 369.699 613.028C369.428 614.037 368.433 614.61 367.424 614.339C366.415 614.068 365.842 613.073 366.113 612.064C366.384 611.055 367.38 610.481 368.388 610.753Z" fill="#FFB700"></path><path d="M388.99 616.972C389.629 617.144 390.009 617.802 389.837 618.442C389.665 619.081 389.007 619.46 388.367 619.288C387.728 619.116 387.348 618.459 387.52 617.819C387.692 617.179 388.35 616.8 388.99 616.972Z" fill="#FFB700"></path><path d="M409.593 623.192C409.882 623.27 410.053 623.567 409.976 623.856C409.898 624.144 409.601 624.316 409.312 624.238C409.023 624.16 408.852 623.863 408.93 623.574C409.007 623.285 409.304 623.114 409.593 623.192Z" fill="#FFB700"></path><path d="M430.234 629.261C430.234 629.261 430.309 629.281 430.289 629.356C430.269 629.431 430.269 629.431 430.194 629.411C430.119 629.391 430.119 629.391 430.139 629.316C430.159 629.241 430.159 629.241 430.234 629.261Z" fill="#FFB700"></path><path d="M41.189 501.643C41.6016 501.754 41.8462 502.179 41.7353 502.591C41.6244 503.004 41.1999 503.249 40.7872 503.138C40.3746 503.027 40.13 502.602 40.2409 502.19C40.3518 501.777 40.7763 501.532 41.189 501.643Z" fill="#FFB700"></path><path d="M62.1515 506.517C62.9361 506.728 63.4378 507.544 63.2169 508.366C62.9959 509.188 62.1901 509.652 61.3682 509.431C60.5463 509.21 60.0819 508.404 60.3028 507.582C60.5238 506.761 61.3296 506.296 62.1515 506.517Z" fill="#FFB700"></path><path d="M83.0939 511.466C84.2494 511.777 84.9343 512.965 84.6237 514.121C84.313 515.276 83.1246 515.961 81.9691 515.65C80.8136 515.34 80.1288 514.151 80.4394 512.996C80.75 511.84 81.9385 511.155 83.0939 511.466Z" fill="#FFB700"></path><path d="M104.039 516.416C105.533 516.817 106.445 518.344 106.033 519.876C105.621 521.408 104.114 522.244 102.582 521.833C101.051 521.421 100.214 519.914 100.616 518.42C101.017 516.925 102.544 516.014 104.039 516.416Z" fill="#FFB700"></path><path d="M125.02 521.374C126.851 521.867 127.943 523.763 127.451 525.593C126.959 527.424 125.063 528.517 123.232 528.024C121.402 527.532 120.309 525.636 120.801 523.806C121.293 521.975 123.189 520.882 125.02 521.374Z" fill="#FFB700"></path><path d="M145.939 526.398C148.106 526.98 149.39 529.208 148.807 531.375C148.225 533.541 145.996 534.825 143.83 534.243C141.664 533.661 140.379 531.432 140.962 529.266C141.544 527.099 143.773 525.815 145.939 526.398Z" fill="#FFB700"></path><path d="M166.853 531.459C169.308 532.119 170.763 534.644 170.103 537.099C169.443 539.555 166.918 541.01 164.462 540.35C162.007 539.69 160.552 537.165 161.212 534.709C161.872 532.254 164.397 530.798 166.853 531.459Z" fill="#FFB700"></path><path d="M187.747 536.595C190.437 537.318 192.049 540.114 191.326 542.804C190.602 545.494 187.806 547.106 185.116 546.383C182.426 545.66 180.814 542.863 181.537 540.173C182.26 537.483 185.057 535.871 187.747 536.595Z" fill="#FFB700"></path><path d="M208.636 541.89C211.513 542.663 213.207 545.602 212.433 548.479C211.66 551.355 208.721 553.049 205.844 552.276C202.968 551.502 201.274 548.563 202.047 545.687C202.821 542.81 205.76 541.116 208.636 541.89Z" fill="#FFB700"></path><path d="M229.448 547.324C232.399 548.117 234.148 551.152 233.354 554.102C232.561 557.053 229.526 558.802 226.576 558.009C223.625 557.216 221.876 554.181 222.67 551.23C223.463 548.28 226.498 546.531 229.448 547.324Z" fill="#FFB700"></path><path d="M250.189 553.02C253.103 553.803 254.787 556.779 254.013 559.656C253.24 562.533 250.254 564.254 247.377 563.48C244.5 562.707 242.779 559.721 243.553 556.844C244.326 553.967 247.312 552.246 250.189 553.02Z" fill="#FFB700"></path><path d="M270.89 558.865C273.618 559.599 275.267 562.405 274.523 565.17C273.78 567.935 270.983 569.546 268.219 568.803C265.454 568.06 263.843 565.263 264.586 562.498C265.329 559.734 268.126 558.122 270.89 558.865Z" fill="#FFB700"></path><path d="M291.57 564.945C294.036 565.608 295.511 568.168 294.848 570.634C294.185 573.099 291.626 574.575 289.16 573.912C286.694 573.249 285.219 570.689 285.882 568.223C286.545 565.758 289.105 564.282 291.57 564.945Z" fill="#FFB700"></path><path d="M312.211 571.015C314.416 571.607 315.689 573.873 315.107 576.039C314.524 578.206 312.249 579.517 310.082 578.935C307.915 578.352 306.604 576.077 307.187 573.91C307.769 571.743 310.044 570.432 312.211 571.015Z" fill="#FFB700"></path><path d="M332.823 577.196C334.691 577.699 335.811 579.642 335.309 581.51C334.807 583.378 332.863 584.498 330.995 583.996C329.127 583.494 328.007 581.55 328.51 579.682C329.012 577.814 330.955 576.694 332.823 577.196Z" fill="#FFB700"></path><path d="M353.428 583.416C354.955 583.827 355.86 585.397 355.449 586.924C355.039 588.451 353.468 589.356 351.941 588.945C350.415 588.535 349.509 586.964 349.92 585.438C350.33 583.911 351.901 583.006 353.428 583.416Z" fill="#FFB700"></path><path d="M374.062 589.645C375.257 589.966 375.93 591.189 375.619 592.347C375.307 593.505 374.075 594.215 372.917 593.904C371.758 593.592 371.048 592.36 371.36 591.202C371.671 590.044 372.903 589.333 374.062 589.645Z" fill="#FFB700"></path><path d="M394.654 595.901C395.459 596.118 395.936 596.945 395.72 597.75C395.503 598.555 394.676 599.032 393.871 598.816C393.066 598.599 392.589 597.771 392.806 596.967C393.022 596.162 393.85 595.685 394.654 595.901Z" fill="#FFB700"></path><path d="M415.257 602.121C415.705 602.242 415.978 602.716 415.858 603.164C415.737 603.612 415.263 603.885 414.815 603.765C414.367 603.644 414.094 603.17 414.214 602.722C414.335 602.274 414.809 602.001 415.257 602.121Z" fill="#FFB700"></path><path d="M435.855 608.34C435.855 608.34 436.021 608.465 435.991 608.577C435.961 608.689 435.867 608.743 435.755 608.713C435.643 608.683 435.588 608.588 435.618 608.476C435.649 608.365 435.743 608.31 435.855 608.34Z" fill="#FFB700"></path><path d="M46.8238 480.685C47.3397 480.823 47.6454 481.354 47.5068 481.87C47.3681 482.386 46.8375 482.691 46.3217 482.553C45.8059 482.414 45.5001 481.883 45.6388 481.368C45.7774 480.852 46.308 480.546 46.8238 480.685Z" fill="#FFB700"></path><path d="M67.7866 485.559C68.6832 485.8 69.2023 486.701 68.9612 487.597C68.7202 488.494 67.8195 489.013 66.9229 488.772C66.0262 488.531 65.5072 487.63 65.7483 486.734C65.9893 485.837 66.89 485.318 67.7866 485.559Z" fill="#FFB700"></path><path d="M88.7394 490.47C90.0096 490.812 90.7745 492.139 90.433 493.409C90.0915 494.679 88.7643 495.444 87.494 495.103C86.2238 494.761 85.4589 493.434 85.8004 492.164C86.1419 490.893 87.4691 490.129 88.7394 490.47Z" fill="#FFB700"></path><path d="M109.702 495.345C111.346 495.787 112.329 497.493 111.887 499.137C111.446 500.781 109.739 501.764 108.095 501.322C106.451 500.88 105.468 499.174 105.91 497.53C106.352 495.886 108.058 494.903 109.702 495.345Z" fill="#FFB700"></path><path d="M130.685 500.304C132.702 500.846 133.867 502.922 133.334 504.902C132.802 506.882 130.716 508.084 128.736 507.551C126.756 507.019 125.554 504.933 126.086 502.953C126.619 500.973 128.705 499.771 130.685 500.304Z" fill="#FFB700"></path><path d="M151.625 505.252C153.979 505.885 155.372 508.302 154.739 510.656C154.106 513.01 151.689 514.403 149.335 513.77C146.982 513.137 145.588 510.72 146.221 508.366C146.854 506.013 149.271 504.619 151.625 505.252Z" fill="#FFB700"></path><path d="M172.556 510.238C175.259 510.964 176.861 513.745 176.134 516.448C175.408 519.151 172.627 520.753 169.924 520.026C167.221 519.299 165.619 516.519 166.346 513.816C167.073 511.113 169.853 509.511 172.556 510.238Z" fill="#FFB700"></path><path d="M193.49 515.225C196.517 516.038 198.319 519.167 197.506 522.193C196.693 525.219 193.564 527.022 190.538 526.209C187.512 525.395 185.709 522.266 186.522 519.24C187.336 516.214 190.464 514.411 193.49 515.225Z" fill="#FFB700"></path><path d="M214.409 520.407C217.659 521.281 219.571 524.599 218.697 527.849C217.824 531.1 214.505 533.012 211.255 532.138C208.005 531.264 206.093 527.946 206.966 524.696C207.84 521.445 211.158 519.533 214.409 520.407Z" fill="#FFB700"></path><path d="M235.224 525.843C238.567 526.741 240.548 530.179 239.65 533.522C238.751 536.865 235.313 538.846 231.97 537.947C228.628 537.049 226.646 533.611 227.545 530.268C228.444 526.925 231.882 524.944 235.224 525.843Z" fill="#FFB700"></path><path d="M255.953 531.575C259.203 532.449 261.115 535.767 260.241 539.017C259.368 542.268 256.049 544.18 252.799 543.306C249.549 542.432 247.637 539.114 248.51 535.864C249.384 532.613 252.702 530.701 255.953 531.575Z" fill="#FFB700"></path><path d="M276.615 537.571C279.642 538.384 281.445 541.513 280.631 544.539C279.818 547.565 276.689 549.368 273.663 548.554C270.637 547.741 268.834 544.612 269.647 541.586C270.461 538.56 273.589 536.757 276.615 537.571Z" fill="#FFB700"></path><path d="M297.285 543.687C300.012 544.421 301.661 547.227 300.918 549.992C300.175 552.757 297.378 554.368 294.613 553.625C291.849 552.882 290.237 550.085 290.98 547.321C291.723 544.556 294.52 542.944 297.285 543.687Z" fill="#FFB700"></path><path d="M317.886 549.907C320.277 550.55 321.698 553.015 321.055 555.406C320.412 557.797 317.947 559.217 315.556 558.575C313.165 557.932 311.745 555.467 312.388 553.076C313.03 550.685 315.495 549.264 317.886 549.907Z" fill="#FFB700"></path><path d="M338.487 556.126C340.542 556.678 341.744 558.764 341.191 560.819C340.639 562.873 338.553 564.075 336.498 563.523C334.444 562.97 333.242 560.885 333.794 558.83C334.346 556.775 336.432 555.573 338.487 556.126Z" fill="#FFB700"></path><path d="M359.079 562.383C360.723 562.824 361.706 564.531 361.264 566.175C360.823 567.819 359.116 568.802 357.472 568.36C355.828 567.918 354.845 566.212 355.287 564.568C355.729 562.924 357.435 561.941 359.079 562.383Z" fill="#FFB700"></path><path d="M379.718 568.612C381.025 568.963 381.79 570.29 381.439 571.598C381.087 572.906 379.76 573.671 378.452 573.319C377.145 572.967 376.38 571.64 376.731 570.333C377.083 569.025 378.41 568.26 379.718 568.612Z" fill="#FFB700"></path><path d="M400.299 574.905C401.233 575.156 401.779 576.104 401.528 577.038C401.277 577.972 400.329 578.519 399.395 578.268C398.461 578.017 397.915 577.068 398.166 576.134C398.417 575.2 399.365 574.654 400.299 574.905Z" fill="#FFB700"></path><path d="M420.891 581.162C421.414 581.303 421.742 581.871 421.601 582.394C421.461 582.917 420.892 583.245 420.369 583.105C419.846 582.964 419.518 582.395 419.659 581.872C419.799 581.349 420.368 581.021 420.891 581.162Z" fill="#FFB700"></path><path d="M441.469 587.455C441.469 587.455 441.738 587.647 441.688 587.834C441.638 588.021 441.495 588.103 441.309 588.053C441.122 588.003 441.04 587.86 441.09 587.674C441.14 587.487 441.282 587.405 441.469 587.455Z" fill="#FFB700"></path><path d="M94.3735 469.511C95.7353 469.877 96.5424 471.278 96.1764 472.64C95.8103 474.002 94.4096 474.809 93.0478 474.443C91.686 474.077 90.8788 472.676 91.2449 471.314C91.611 469.952 93.0117 469.145 94.3735 469.511Z" fill="#FFB700"></path><path d="M115.327 474.423C117.083 474.895 118.121 476.696 117.649 478.452C117.177 480.208 115.376 481.246 113.62 480.774C111.864 480.302 110.826 478.501 111.298 476.745C111.77 474.989 113.571 473.951 115.327 474.423Z" fill="#FFB700"></path><path d="M136.325 479.307C138.455 479.879 139.711 482.06 139.139 484.189C138.566 486.319 136.386 487.575 134.256 487.003C132.127 486.43 130.87 484.25 131.443 482.12C132.015 479.991 134.196 478.734 136.325 479.307Z" fill="#FFB700"></path><path d="M157.28 484.219C159.783 484.892 161.285 487.499 160.613 490.002C159.94 492.505 157.332 494.008 154.829 493.335C152.326 492.662 150.824 490.055 151.497 487.551C152.17 485.048 154.777 483.546 157.28 484.219Z" fill="#FFB700"></path><path d="M178.234 489.13C181.102 489.901 182.802 492.851 182.031 495.719C181.26 498.587 178.31 500.287 175.442 499.516C172.574 498.745 170.874 495.795 171.645 492.927C172.416 490.059 175.366 488.359 178.234 489.13Z" fill="#FFB700"></path><path d="M199.186 494.042C202.436 494.916 204.348 498.234 203.475 501.484C202.601 504.735 199.283 506.647 196.032 505.773C192.782 504.899 190.87 501.581 191.744 498.331C192.618 495.08 195.936 493.168 199.186 494.042Z" fill="#FFB700"></path><path d="M220.154 499.038C223.724 499.997 225.839 503.669 224.88 507.238C223.92 510.808 220.249 512.924 216.679 511.964C213.11 511.004 210.994 507.333 211.953 503.763C212.913 500.194 216.584 498.078 220.154 499.038Z" fill="#FFB700"></path><path d="M240.997 504.36C244.711 505.358 246.912 509.178 245.914 512.892C244.915 516.606 241.095 518.808 237.381 517.809C233.667 516.811 231.466 512.991 232.464 509.277C233.462 505.563 237.283 503.362 240.997 504.36Z" fill="#FFB700"></path><path d="M261.689 510.243C265.238 511.197 267.379 514.857 266.415 518.444C265.451 522.031 261.801 524.134 258.214 523.17C254.628 522.206 252.524 518.556 253.488 514.969C254.453 511.383 258.103 509.279 261.689 510.243Z" fill="#FFB700"></path><path d="M282.33 516.313C285.618 517.197 287.557 520.562 286.674 523.85C285.79 527.138 282.424 529.077 279.136 528.193C275.849 527.309 273.909 523.944 274.793 520.656C275.677 517.369 279.043 515.429 282.33 516.313Z" fill="#FFB700"></path><path d="M302.948 522.616C305.862 523.4 307.545 526.376 306.772 529.253C305.999 532.129 303.012 533.85 300.136 533.077C297.259 532.304 295.538 529.317 296.311 526.441C297.085 523.564 300.071 521.843 302.948 522.616Z" fill="#FFB700"></path><path d="M323.551 528.836C326.092 529.519 327.594 532.126 326.911 534.667C326.228 537.207 323.621 538.71 321.081 538.027C318.54 537.344 317.038 534.736 317.721 532.196C318.404 529.656 321.011 528.153 323.551 528.836Z" fill="#FFB700"></path><path d="M344.143 535.093C346.31 535.675 347.594 537.903 347.011 540.07C346.429 542.236 344.201 543.52 342.034 542.938C339.868 542.356 338.583 540.127 339.166 537.961C339.748 535.794 341.977 534.51 344.143 535.093Z" fill="#FFB700"></path><path d="M364.724 541.387C366.498 541.864 367.55 543.689 367.073 545.463C366.596 547.238 364.771 548.289 362.996 547.812C361.222 547.335 360.17 545.51 360.647 543.736C361.124 541.961 362.949 540.91 364.724 541.387Z" fill="#FFB700"></path><path d="M385.354 547.653C386.736 548.025 387.593 549.457 387.211 550.876C386.829 552.296 385.407 553.116 383.988 552.734C382.568 552.352 381.749 550.93 382.13 549.511C382.512 548.091 383.934 547.271 385.354 547.653Z" fill="#FFB700"></path><path d="M386.348 84.3145C386.392 84.3026 386.419 84.2573 386.407 84.2132C386.395 84.1691 386.349 84.143 386.305 84.1548C386.261 84.1667 386.235 84.212 386.247 84.2561C386.259 84.3002 386.304 84.3263 386.348 84.3145Z" fill="#FFB700"></path><path d="M408.591 78.3777C408.591 78.3777 408.7 78.3056 408.679 78.2258C408.657 78.1459 408.607 78.1168 408.527 78.1382C408.447 78.1597 408.418 78.2103 408.439 78.2901C408.461 78.37 408.512 78.3991 408.591 78.3777Z" fill="#FFB700"></path><path d="M430.879 72.6014C430.879 72.6014 431.166 72.3955 431.113 72.1955C431.059 71.9956 430.907 71.9079 430.707 71.9616C430.507 72.0154 430.419 72.1676 430.473 72.3675C430.526 72.5675 430.679 72.6552 430.879 72.6014Z" fill="#FFB700"></path><path d="M453.175 66.6932C453.375 66.6394 453.492 66.4364 453.439 66.2365C453.385 66.0365 453.182 65.9196 452.982 65.9733C452.782 66.0271 452.665 66.23 452.719 66.43C452.773 66.6299 452.976 66.7469 453.175 66.6932Z" fill="#FFB700"></path><path d="M475.421 60.7559C475.663 60.6906 475.807 60.4407 475.742 60.1978C475.677 59.9548 475.427 59.8108 475.184 59.8761C474.941 59.9414 474.797 60.1913 474.862 60.4343C474.928 60.6772 475.178 60.8212 475.421 60.7559Z" fill="#FFB700"></path><path d="M497.644 54.7393C497.844 54.6855 497.961 54.4825 497.907 54.2826C497.853 54.0827 497.651 53.9657 497.451 54.0195C497.251 54.0732 497.134 54.2762 497.187 54.4761C497.241 54.676 497.444 54.793 497.644 54.7393Z" fill="#FFB700"></path><path d="M519.854 48.6828C520.031 48.6353 520.136 48.4535 520.088 48.2768C520.041 48.1001 519.859 47.9954 519.682 48.0429C519.506 48.0904 519.401 48.2721 519.448 48.4488C519.496 48.6255 519.678 48.7302 519.854 48.6828Z" fill="#FFB700"></path><path d="M542.097 42.574C542.207 42.5444 542.272 42.431 542.243 42.3208C542.213 42.2106 542.1 42.1452 541.99 42.1749C541.879 42.2045 541.814 42.3179 541.844 42.4281C541.873 42.5383 541.987 42.6037 542.097 42.574Z" fill="#FFB700"></path><path d="M564.299 36.4773C564.299 36.4773 564.378 36.4559 564.357 36.376C564.335 36.2962 564.335 36.2962 564.256 36.3176C564.176 36.3391 564.176 36.3391 564.197 36.419C564.219 36.4988 564.219 36.4988 564.299 36.4773Z" fill="#FFB700"></path><path d="M370.146 112.724C370.278 112.689 370.356 112.553 370.321 112.421C370.285 112.288 370.149 112.21 370.017 112.245C369.885 112.281 369.806 112.417 369.842 112.549C369.877 112.682 370.013 112.76 370.146 112.724Z" fill="#FFB700"></path><path d="M392.454 107.029C392.774 106.943 392.949 106.638 392.863 106.318C392.777 105.999 392.473 105.823 392.153 105.909C391.833 105.995 391.657 106.3 391.743 106.619C391.829 106.939 392.134 107.115 392.454 107.029Z" fill="#FFB700"></path><path d="M414.763 101.332C415.203 101.213 415.466 100.757 415.348 100.317C415.229 99.877 414.773 99.6138 414.333 99.732C413.893 99.8503 413.63 100.307 413.748 100.747C413.866 101.187 414.323 101.45 414.763 101.332Z" fill="#FFB700"></path><path d="M437.039 95.5151C437.599 95.3646 437.921 94.8065 437.77 94.2467C437.62 93.6868 437.061 93.3652 436.502 93.5157C435.942 93.6662 435.62 94.2243 435.771 94.7841C435.921 95.344 436.479 95.6656 437.039 95.5151Z" fill="#FFB700"></path><path d="M459.345 89.6471C459.945 89.4859 460.335 88.8663 460.163 88.2264C459.991 87.5866 459.383 87.2357 458.743 87.4077C458.103 87.5797 457.752 88.1886 457.924 88.8284C458.096 89.4683 458.705 89.8191 459.345 89.6471Z" fill="#FFB700"></path><path d="M481.6 83.7503C482.239 83.5783 482.62 82.9187 482.448 82.2789C482.276 81.6391 481.616 81.2589 480.976 81.4309C480.336 81.6029 479.956 82.2626 480.128 82.9024C480.3 83.5422 480.96 83.9223 481.6 83.7503Z" fill="#FFB700"></path><path d="M503.813 77.693C504.413 77.5318 504.804 76.9122 504.632 76.2723C504.46 75.6325 503.851 75.2816 503.211 75.4536C502.572 75.6256 502.221 76.2345 502.393 76.8743C502.565 77.5142 503.174 77.865 503.813 77.693Z" fill="#FFB700"></path><path d="M526.025 71.6367C526.577 71.4883 526.904 70.9204 526.756 70.3682C526.607 69.8161 526.039 69.4888 525.487 69.6373C524.935 69.7857 524.608 70.3536 524.756 70.9057C524.905 71.4579 525.473 71.7851 526.025 71.6367Z" fill="#FFB700"></path><path d="M548.245 65.4486C548.685 65.3303 548.948 64.8737 548.83 64.4338C548.712 63.9939 548.255 63.7307 547.815 63.849C547.376 63.9672 547.112 64.4239 547.231 64.8638C547.349 65.3037 547.806 65.5668 548.245 65.4486Z" fill="#FFB700"></path><path d="M570.405 59.1916C570.725 59.1056 570.9 58.8012 570.814 58.4813C570.728 58.1613 570.424 57.9859 570.104 58.0719C569.784 58.1579 569.608 58.4623 569.694 58.7823C569.78 59.1022 570.085 59.2776 570.405 59.1916Z" fill="#FFB700"></path><path d="M592.561 52.9344C592.693 52.8988 592.771 52.7628 592.736 52.6306C592.7 52.4983 592.564 52.4198 592.432 52.4554C592.3 52.491 592.221 52.627 592.257 52.7593C592.292 52.8916 592.428 52.9699 592.561 52.9344Z" fill="#FFB700"></path><path d="M614.744 46.7573C614.744 46.7573 614.824 46.7358 614.802 46.656C614.781 46.5762 614.781 46.5762 614.701 46.5977C614.621 46.6191 614.621 46.6191 614.643 46.6989C614.664 46.7787 614.664 46.7788 614.744 46.7573Z" fill="#FFB700"></path><path d="M331.557 146.725C331.557 146.725 331.637 146.703 331.616 146.623C331.594 146.543 331.594 146.544 331.514 146.565C331.434 146.586 331.434 146.586 331.456 146.666C331.477 146.746 331.477 146.746 331.557 146.725Z" fill="#FFB700"></path><path d="M353.902 141.147C354.142 141.083 354.288 140.829 354.224 140.589C354.159 140.349 353.905 140.203 353.665 140.267C353.426 140.332 353.279 140.585 353.344 140.825C353.408 141.065 353.662 141.212 353.902 141.147Z" fill="#FFB700"></path><path d="M376.284 135.559C376.764 135.43 377.057 134.923 376.928 134.443C376.799 133.963 376.291 133.671 375.811 133.8C375.332 133.929 375.039 134.436 375.168 134.916C375.297 135.396 375.805 135.688 376.284 135.559Z" fill="#FFB700"></path><path d="M398.624 129.982C399.309 129.798 399.714 129.094 399.53 128.41C399.346 127.725 398.642 127.319 397.957 127.503C397.273 127.687 396.867 128.391 397.051 129.076C397.235 129.761 397.939 130.167 398.624 129.982Z" fill="#FFB700"></path><path d="M420.936 124.285C421.776 124.059 422.313 123.186 422.076 122.306C421.84 121.426 420.977 120.929 420.098 121.165C419.218 121.402 418.721 122.265 418.957 123.144C419.194 124.024 420.056 124.521 420.936 124.285Z" fill="#FFB700"></path><path d="M443.22 118.509C444.18 118.251 444.735 117.287 444.477 116.327C444.219 115.367 443.255 114.812 442.296 115.07C441.336 115.328 440.78 116.292 441.038 117.252C441.296 118.211 442.26 118.767 443.22 118.509Z" fill="#FFB700"></path><path d="M465.547 112.721C466.587 112.442 467.241 111.365 466.951 110.286C466.66 109.206 465.595 108.592 464.515 108.882C463.435 109.172 462.821 110.238 463.112 111.318C463.402 112.397 464.467 113.011 465.547 112.721Z" fill="#FFB700"></path><path d="M487.794 106.783C488.876 106.492 489.518 105.379 489.227 104.297C488.936 103.215 487.823 102.573 486.741 102.864C485.659 103.155 485.017 104.268 485.308 105.351C485.599 106.433 486.712 107.074 487.794 106.783Z" fill="#FFB700"></path><path d="M510.015 100.767C511.055 100.488 511.709 99.4113 511.419 98.3316C511.128 97.2519 510.063 96.6378 508.983 96.9281C507.903 97.2183 507.289 98.2839 507.58 99.3636C507.87 100.443 508.935 101.057 510.015 100.767Z" fill="#FFB700"></path><path d="M532.22 94.6692C533.22 94.4005 533.805 93.3857 533.536 92.386C533.267 91.3862 532.252 90.8015 531.253 91.0702C530.253 91.339 529.668 92.3537 529.937 93.3534C530.206 94.3532 531.22 94.9379 532.22 94.6692Z" fill="#FFB700"></path><path d="M554.418 88.4016C555.258 88.1758 555.795 87.3025 555.559 86.4227C555.322 85.543 554.46 85.0459 553.58 85.2824C552.7 85.5189 552.203 86.3815 552.44 87.2612C552.676 88.141 553.539 88.6381 554.418 88.4016Z" fill="#FFB700"></path><path d="M576.575 82.1453C577.255 81.9626 577.664 81.2522 577.482 80.5724C577.299 79.8926 576.589 79.4833 575.909 79.666C575.229 79.8488 574.82 80.5591 575.002 81.2389C575.185 81.9187 575.895 82.3281 576.575 82.1453Z" fill="#FFB700"></path><path d="M598.703 75.7681C599.183 75.6391 599.475 75.1317 599.346 74.6519C599.217 74.172 598.71 73.8796 598.23 74.0086C597.75 74.1376 597.458 74.645 597.587 75.1249C597.716 75.6047 598.223 75.8971 598.703 75.7681Z" fill="#FFB700"></path><path d="M620.83 69.3912C621.07 69.3267 621.216 69.073 621.151 68.833C621.087 68.5931 620.833 68.4469 620.593 68.5114C620.353 68.5759 620.207 68.8296 620.272 69.0695C620.336 69.3095 620.59 69.4557 620.83 69.3912Z" fill="#FFB700"></path><path d="M642.996 63.0032C642.996 63.0032 643.075 62.9817 643.054 62.9019C643.033 62.822 643.033 62.8221 642.953 62.8435C642.873 62.865 642.873 62.8649 642.894 62.9448C642.916 63.0246 642.916 63.0246 642.996 63.0032Z" fill="#FFB700"></path><path d="M315.315 174.975C315.315 174.975 315.395 174.953 315.373 174.873C315.352 174.794 315.352 174.794 315.272 174.815C315.192 174.836 315.192 174.836 315.214 174.916C315.235 174.996 315.235 174.996 315.315 174.975Z" fill="#FFB700"></path><path d="M337.655 169.398C337.92 169.327 338.077 169.055 338.005 168.789C337.934 168.524 337.662 168.367 337.397 168.439C337.132 168.51 336.974 168.782 337.046 169.047C337.117 169.312 337.39 169.47 337.655 169.398Z" fill="#FFB700"></path><path d="M360.027 163.942C360.58 163.793 360.907 163.225 360.758 162.673C360.61 162.121 360.042 161.794 359.49 161.942C358.938 162.091 358.611 162.659 358.759 163.211C358.907 163.763 359.475 164.09 360.027 163.942Z" fill="#FFB700"></path><path d="M382.431 158.433C383.231 158.218 383.728 157.356 383.513 156.556C383.298 155.756 382.436 155.259 381.636 155.474C380.836 155.689 380.339 156.552 380.554 157.352C380.769 158.151 381.632 158.648 382.431 158.433Z" fill="#FFB700"></path><path d="M404.783 152.896C405.844 152.611 406.472 151.521 406.187 150.461C405.902 149.401 404.812 148.773 403.752 149.057C402.691 149.342 402.063 150.433 402.348 151.493C402.633 152.553 403.723 153.181 404.783 152.896Z" fill="#FFB700"></path><path d="M427.102 147.24C428.338 146.907 429.071 145.635 428.739 144.398C428.407 143.161 427.134 142.428 425.898 142.761C424.661 143.093 423.928 144.365 424.26 145.602C424.593 146.839 425.865 147.572 427.102 147.24Z" fill="#FFB700"></path><path d="M449.4 141.503C450.76 141.137 451.579 139.717 451.213 138.357C450.848 136.997 449.427 136.179 448.067 136.544C446.708 136.91 445.889 138.33 446.255 139.69C446.62 141.05 448.041 141.868 449.4 141.503Z" fill="#FFB700"></path><path d="M471.719 135.675C473.198 135.277 474.035 133.765 473.648 132.326C473.261 130.886 471.739 130.009 470.3 130.396C468.86 130.783 467.983 132.305 468.37 133.745C468.757 135.184 470.279 136.062 471.719 135.675Z" fill="#FFB700"></path><path d="M493.974 129.777C495.476 129.374 496.366 127.829 495.962 126.327C495.559 124.825 494.014 123.935 492.512 124.339C491.01 124.743 490.12 126.287 490.524 127.789C490.928 129.291 492.472 130.181 493.974 129.777Z" fill="#FFB700"></path><path d="M516.187 123.72C517.667 123.323 518.504 121.811 518.117 120.372C517.73 118.932 516.208 118.055 514.768 118.442C513.329 118.829 512.451 120.351 512.838 121.791C513.225 123.23 514.748 124.107 516.187 123.72Z" fill="#FFB700"></path><path d="M538.377 117.584C539.746 117.216 540.558 115.808 540.19 114.438C539.821 113.069 538.413 112.257 537.044 112.626C535.674 112.994 534.863 114.402 535.231 115.771C535.599 117.141 537.007 117.952 538.377 117.584Z" fill="#FFB700"></path><path d="M560.59 111.355C561.827 111.023 562.56 109.75 562.227 108.514C561.895 107.277 560.623 106.544 559.386 106.876C558.149 107.209 557.416 108.481 557.748 109.718C558.081 110.954 559.353 111.688 560.59 111.355Z" fill="#FFB700"></path><path d="M582.735 105.059C583.775 104.78 584.429 103.703 584.138 102.624C583.848 101.544 582.783 100.93 581.703 101.22C580.623 101.511 580.009 102.576 580.299 103.656C580.59 104.735 581.655 105.349 582.735 105.059Z" fill="#FFB700"></path><path d="M604.851 98.642C605.668 98.4223 606.153 97.5818 605.933 96.7646C605.713 95.9475 604.873 95.4631 604.056 95.6828C603.239 95.9025 602.754 96.743 602.974 97.5601C603.194 98.3773 604.034 98.8616 604.851 98.642Z" fill="#FFB700"></path><path d="M626.966 92.2254C627.54 92.0711 627.88 91.4805 627.726 90.9062C627.571 90.332 626.981 89.9917 626.407 90.146C625.832 90.3004 625.492 90.891 625.646 91.4652C625.801 92.0394 626.391 92.3798 626.966 92.2254Z" fill="#FFB700"></path><path d="M649.113 85.7575C649.433 85.6715 649.608 85.3671 649.522 85.0472C649.436 84.7273 649.132 84.5518 648.812 84.6378C648.492 84.7238 648.316 85.0283 648.402 85.3482C648.488 85.6681 648.793 85.8435 649.113 85.7575Z" fill="#FFB700"></path><path d="M671.216 79.3008C671.216 79.3008 671.295 79.2793 671.274 79.1995C671.252 79.1197 671.252 79.1197 671.173 79.1411C671.093 79.1626 671.093 79.1626 671.114 79.2424C671.136 79.3223 671.136 79.3223 671.216 79.3008Z" fill="#FFB700"></path><path d="M321.388 197.569C321.628 197.504 321.774 197.251 321.71 197.011C321.645 196.771 321.392 196.625 321.152 196.689C320.912 196.754 320.766 197.007 320.83 197.247C320.895 197.487 321.148 197.633 321.388 197.569Z" fill="#FFB700"></path><path d="M343.773 192.152C344.325 192.003 344.652 191.435 344.504 190.883C344.355 190.331 343.787 190.004 343.235 190.152C342.683 190.301 342.356 190.868 342.504 191.421C342.653 191.973 343.221 192.3 343.773 192.152Z" fill="#FFB700"></path><path d="M366.156 186.735C367.017 186.503 367.528 185.617 367.296 184.756C367.065 183.895 366.179 183.384 365.317 183.616C364.456 183.847 363.945 184.733 364.177 185.594C364.408 186.456 365.294 186.966 366.156 186.735Z" fill="#FFB700"></path><path d="M388.582 181.306C389.742 180.995 390.414 179.828 390.103 178.668C389.791 177.508 388.624 176.836 387.464 177.148C386.304 177.459 385.632 178.626 385.944 179.786C386.255 180.946 387.422 181.618 388.582 181.306Z" fill="#FFB700"></path><path d="M410.921 175.73C412.312 175.356 413.137 173.925 412.763 172.534C412.389 171.142 410.958 170.318 409.566 170.692C408.175 171.066 407.35 172.497 407.724 173.888C408.098 175.28 409.529 176.104 410.921 175.73Z" fill="#FFB700"></path><path d="M433.265 170.152C434.865 169.722 435.84 168.088 435.4 166.448C434.959 164.809 433.346 163.913 431.706 164.354C430.067 164.795 429.171 166.408 429.601 168.007C430.031 169.607 431.666 170.582 433.265 170.152Z" fill="#FFB700"></path><path d="M455.583 164.496C457.343 164.023 458.395 162.196 457.922 160.436C457.449 158.677 455.623 157.624 453.863 158.097C452.104 158.57 451.051 160.397 451.524 162.156C451.997 163.916 453.824 164.969 455.583 164.496Z" fill="#FFB700"></path><path d="M477.902 158.667C479.782 158.162 480.893 156.234 480.388 154.355C479.882 152.475 477.954 151.364 476.075 151.869C474.195 152.374 473.084 154.303 473.589 156.182C474.095 158.062 476.023 159.173 477.902 158.667Z" fill="#FFB700"></path><path d="M500.146 152.731C502.045 152.22 503.171 150.266 502.66 148.367C502.15 146.468 500.196 145.342 498.297 145.853C496.397 146.363 495.272 148.317 495.782 150.216C496.293 152.115 498.246 153.241 500.146 152.731Z" fill="#FFB700"></path><path d="M522.366 146.715C524.246 146.21 525.357 144.281 524.852 142.402C524.346 140.522 522.418 139.411 520.539 139.917C518.659 140.422 517.548 142.35 518.053 144.229C518.559 146.109 520.487 147.22 522.366 146.715Z" fill="#FFB700"></path><path d="M544.547 140.537C546.314 140.062 547.361 138.245 546.886 136.478C546.411 134.712 544.594 133.664 542.827 134.139C541.06 134.614 540.013 136.432 540.488 138.198C540.963 139.965 542.78 141.012 544.547 140.537Z" fill="#FFB700"></path><path d="M566.749 134.269C568.348 133.839 569.324 132.205 568.883 130.565C568.442 128.926 566.829 128.03 565.19 128.471C563.55 128.912 562.655 130.525 563.085 132.124C563.515 133.724 565.149 134.699 566.749 134.269Z" fill="#FFB700"></path><path d="M588.883 127.933C590.282 127.557 591.101 126.136 590.725 124.736C590.348 123.337 588.928 122.518 587.528 122.894C586.129 123.271 585.31 124.691 585.686 126.091C586.062 127.49 587.483 128.309 588.883 127.933Z" fill="#FFB700"></path><path d="M610.998 121.516C612.158 121.204 612.83 120.037 612.519 118.878C612.207 117.718 611.04 117.046 609.88 117.357C608.721 117.669 608.048 118.836 608.36 119.996C608.672 121.155 609.839 121.828 610.998 121.516Z" fill="#FFB700"></path><path d="M633.094 115.019C633.974 114.782 634.5 113.869 634.264 112.989C634.027 112.109 633.114 111.583 632.234 111.82C631.355 112.056 630.828 112.969 631.065 113.849C631.301 114.729 632.215 115.255 633.094 115.019Z" fill="#FFB700"></path><path d="M655.229 108.511C655.788 108.36 656.139 107.752 655.989 107.192C655.838 106.632 655.229 106.281 654.67 106.431C654.11 106.582 653.759 107.191 653.909 107.751C654.06 108.311 654.669 108.661 655.229 108.511Z" fill="#FFB700"></path><path d="M677.291 101.894C677.531 101.83 677.677 101.576 677.612 101.336C677.548 101.096 677.294 100.95 677.054 101.015C676.814 101.079 676.668 101.333 676.733 101.573C676.797 101.813 677.051 101.959 677.291 101.894Z" fill="#FFB700"></path><path d="M699.425 95.5578C699.425 95.5578 699.504 95.5364 699.483 95.4565C699.461 95.3767 699.462 95.3768 699.382 95.3982C699.302 95.4197 699.302 95.4196 699.323 95.4995C699.345 95.5793 699.345 95.5792 699.425 95.5578Z" fill="#FFB700"></path><path d="M305.088 225.619C305.22 225.583 305.299 225.447 305.263 225.315C305.228 225.183 305.092 225.104 304.959 225.14C304.827 225.175 304.749 225.311 304.784 225.444C304.82 225.576 304.956 225.654 305.088 225.619Z" fill="#FFB700"></path><path d="M327.481 220.243C327.961 220.114 328.253 219.607 328.124 219.127C327.995 218.647 327.488 218.354 327.008 218.483C326.528 218.612 326.235 219.12 326.364 219.6C326.493 220.08 327.001 220.372 327.481 220.243Z" fill="#FFB700"></path><path d="M349.888 214.906C350.706 214.686 351.19 213.846 350.97 213.029C350.751 212.211 349.91 211.727 349.093 211.947C348.276 212.166 347.791 213.007 348.011 213.824C348.231 214.641 349.071 215.126 349.888 214.906Z" fill="#FFB700"></path><path d="M372.283 209.529C373.443 209.217 374.116 208.05 373.804 206.89C373.492 205.731 372.325 205.058 371.165 205.37C370.006 205.681 369.333 206.849 369.645 208.008C369.957 209.168 371.124 209.84 372.283 209.529Z" fill="#FFB700"></path><path d="M394.708 204.101C396.187 203.703 397.024 202.192 396.637 200.752C396.25 199.312 394.728 198.435 393.289 198.822C391.849 199.209 390.972 200.731 391.359 202.171C391.746 203.611 393.268 204.488 394.708 204.101Z" fill="#FFB700"></path><path d="M417.07 198.604C418.789 198.142 419.853 196.355 419.38 194.596C418.907 192.836 417.131 191.813 415.371 192.286C413.612 192.759 412.588 194.535 413.061 196.294C413.534 198.054 415.31 199.077 417.07 198.604Z" fill="#FFB700"></path><path d="M439.426 193.066C441.385 192.539 442.555 190.51 442.028 188.55C441.501 186.591 439.472 185.421 437.512 185.948C435.553 186.475 434.383 188.504 434.91 190.464C435.437 192.423 437.466 193.593 439.426 193.066Z" fill="#FFB700"></path><path d="M461.743 187.409C463.902 186.829 465.149 184.607 464.579 182.488C464.009 180.368 461.777 179.082 459.657 179.651C457.538 180.221 456.251 182.454 456.821 184.573C457.391 186.692 459.623 187.979 461.743 187.409Z" fill="#FFB700"></path><path d="M484.08 181.662C486.36 181.049 487.705 178.715 487.092 176.436C486.479 174.156 484.145 172.812 481.866 173.424C479.587 174.037 478.242 176.371 478.854 178.65C479.467 180.93 481.801 182.275 484.08 181.662Z" fill="#FFB700"></path><path d="M506.335 175.765C508.655 175.142 510.029 172.757 509.405 170.438C508.782 168.118 506.397 166.744 504.078 167.367C501.759 167.991 500.384 170.376 501.008 172.695C501.631 175.014 504.016 176.389 506.335 175.765Z" fill="#FFB700"></path><path d="M528.549 169.708C530.828 169.095 532.173 166.761 531.561 164.482C530.948 162.202 528.614 160.857 526.335 161.47C524.055 162.083 522.71 164.417 523.323 166.696C523.936 168.976 526.27 170.321 528.549 169.708Z" fill="#FFB700"></path><path d="M550.731 163.531C552.93 162.939 554.217 160.707 553.626 158.507C553.034 156.308 550.802 155.022 548.602 155.613C546.403 156.204 545.117 158.436 545.708 160.636C546.299 162.835 548.532 164.122 550.731 163.531Z" fill="#FFB700"></path><path d="M572.908 157.183C574.868 156.656 576.037 154.627 575.51 152.667C574.984 150.708 572.954 149.538 570.995 150.065C569.035 150.591 567.866 152.621 568.392 154.581C568.919 156.54 570.949 157.71 572.908 157.183Z" fill="#FFB700"></path><path d="M595.02 150.767C596.739 150.305 597.803 148.518 597.33 146.759C596.857 144.999 595.081 143.976 593.321 144.449C591.562 144.922 590.538 146.698 591.011 148.457C591.484 150.217 593.26 151.24 595.02 150.767Z" fill="#FFB700"></path><path d="M617.127 144.31C618.606 143.912 619.443 142.401 619.056 140.961C618.669 139.521 617.147 138.644 615.708 139.031C614.268 139.418 613.391 140.94 613.778 142.38C614.165 143.82 615.687 144.697 617.127 144.31Z" fill="#FFB700"></path><path d="M639.211 137.773C640.371 137.461 641.043 136.294 640.732 135.134C640.42 133.974 639.253 133.302 638.093 133.614C636.934 133.925 636.261 135.092 636.573 136.252C636.885 137.412 638.052 138.084 639.211 137.773Z" fill="#FFB700"></path><path d="M661.323 131.185C662.14 130.966 662.624 130.125 662.405 129.308C662.185 128.491 661.345 128.007 660.527 128.226C659.71 128.446 659.226 129.286 659.446 130.104C659.665 130.921 660.506 131.405 661.323 131.185Z" fill="#FFB700"></path><path d="M683.384 124.568C683.864 124.439 684.156 123.932 684.027 123.452C683.898 122.972 683.391 122.68 682.911 122.809C682.431 122.938 682.139 123.445 682.268 123.925C682.397 124.405 682.904 124.697 683.384 124.568Z" fill="#FFB700"></path><path d="M705.456 117.991C705.588 117.955 705.667 117.819 705.631 117.687C705.596 117.555 705.46 117.476 705.327 117.512C705.195 117.548 705.117 117.684 705.152 117.816C705.188 117.948 705.324 118.027 705.456 117.991Z" fill="#FFB700"></path><path d="M311.151 248.173C311.46 248.09 311.643 247.772 311.56 247.463C311.477 247.154 311.159 246.97 310.85 247.054C310.541 247.137 310.357 247.455 310.441 247.764C310.524 248.073 310.842 248.256 311.151 248.173Z" fill="#FFB700"></path><path d="M333.567 242.877C334.252 242.693 334.658 241.989 334.473 241.304C334.289 240.619 333.585 240.213 332.901 240.397C332.216 240.582 331.81 241.286 331.994 241.97C332.178 242.655 332.882 243.061 333.567 242.877Z" fill="#FFB700"></path><path d="M355.983 237.58C357.043 237.295 357.671 236.204 357.386 235.144C357.101 234.084 356.011 233.456 354.951 233.741C353.891 234.026 353.262 235.116 353.547 236.176C353.832 237.236 354.923 237.865 355.983 237.58Z" fill="#FFB700"></path><path d="M378.378 232.202C379.769 231.828 380.594 230.397 380.22 229.006C379.846 227.615 378.415 226.79 377.023 227.164C375.632 227.538 374.807 228.969 375.181 230.36C375.555 231.752 376.986 232.577 378.378 232.202Z" fill="#FFB700"></path><path d="M400.825 226.854C402.545 226.392 403.608 224.605 403.135 222.846C402.662 221.086 400.886 220.063 399.127 220.536C397.367 221.009 396.344 222.785 396.817 224.544C397.29 226.304 399.066 227.327 400.825 226.854Z" fill="#FFB700"></path><path d="M423.208 221.438C425.262 220.886 426.48 218.773 425.928 216.719C425.376 214.665 423.263 213.448 421.209 214C419.155 214.552 417.938 216.665 418.49 218.718C419.042 220.772 421.154 221.99 423.208 221.438Z" fill="#FFB700"></path><path d="M445.574 215.94C447.892 215.316 449.267 212.931 448.644 210.612C448.02 208.293 445.635 206.919 443.316 207.542C440.997 208.165 439.623 210.551 440.246 212.87C440.869 215.189 443.255 216.563 445.574 215.94Z" fill="#FFB700"></path><path d="M467.903 210.323C470.423 209.646 471.914 207.058 471.237 204.539C470.559 202.019 467.972 200.528 465.452 201.205C462.933 201.883 461.442 204.47 462.119 206.99C462.796 209.509 465.384 211 467.903 210.323Z" fill="#FFB700"></path><path d="M490.263 204.655C492.943 203.935 494.551 201.144 493.831 198.465C493.11 195.786 490.32 194.177 487.64 194.898C484.961 195.618 483.353 198.409 484.073 201.088C484.793 203.767 487.584 205.375 490.263 204.655Z" fill="#FFB700"></path><path d="M512.508 198.718C515.225 197.988 516.835 195.194 516.105 192.477C515.375 189.761 512.58 188.151 509.864 188.881C507.147 189.611 505.537 192.405 506.268 195.122C506.998 197.838 509.792 199.449 512.508 198.718Z" fill="#FFB700"></path><path d="M534.731 192.701C537.41 191.981 539.019 189.19 538.298 186.511C537.578 183.832 534.787 182.224 532.108 182.944C529.429 183.664 527.821 186.455 528.541 189.134C529.261 191.813 532.052 193.421 534.731 192.701Z" fill="#FFB700"></path><path d="M556.898 186.485C559.458 185.797 560.978 183.158 560.29 180.599C559.602 178.04 556.964 176.519 554.404 177.207C551.845 177.895 550.325 180.534 551.013 183.093C551.701 185.652 554.339 187.173 556.898 186.485Z" fill="#FFB700"></path><path d="M579.056 180.057C581.375 179.433 582.749 177.048 582.126 174.729C581.503 172.41 579.117 171.035 576.798 171.659C574.479 172.282 573.105 174.668 573.728 176.987C574.352 179.305 576.737 180.68 579.056 180.057Z" fill="#FFB700"></path><path d="M601.172 173.64C603.252 173.081 604.48 170.95 603.921 168.87C603.362 166.791 601.231 165.563 599.151 166.122C597.072 166.681 595.844 168.812 596.403 170.891C596.962 172.971 599.093 174.199 601.172 173.64Z" fill="#FFB700"></path><path d="M623.245 167.063C624.965 166.601 626.028 164.814 625.555 163.054C625.082 161.295 623.306 160.272 621.547 160.745C619.787 161.218 618.764 162.993 619.237 164.753C619.71 166.512 621.486 167.536 623.245 167.063Z" fill="#FFB700"></path><path d="M645.304 160.447C646.696 160.073 647.521 158.641 647.147 157.25C646.773 155.859 645.341 155.034 643.95 155.408C642.559 155.782 641.734 157.213 642.108 158.605C642.482 159.996 643.913 160.821 645.304 160.447Z" fill="#FFB700"></path><path d="M667.417 153.859C668.457 153.58 669.111 152.504 668.821 151.424C668.531 150.344 667.465 149.73 666.385 150.02C665.306 150.311 664.692 151.376 664.982 152.456C665.272 153.536 666.338 154.15 667.417 153.859Z" fill="#FFB700"></path><path d="M689.47 147.202C690.154 147.018 690.56 146.314 690.376 145.629C690.192 144.945 689.488 144.539 688.803 144.723C688.119 144.907 687.713 145.611 687.897 146.296C688.081 146.98 688.785 147.386 689.47 147.202Z" fill="#FFB700"></path><path d="M711.522 140.545C711.831 140.462 712.015 140.144 711.931 139.835C711.848 139.525 711.53 139.342 711.221 139.425C710.912 139.508 710.729 139.826 710.812 140.136C710.895 140.445 711.213 140.628 711.522 140.545Z" fill="#FFB700"></path><path d="M733.615 134.048C733.615 134.048 733.695 134.026 733.673 133.947C733.652 133.867 733.652 133.867 733.572 133.888C733.492 133.91 733.492 133.91 733.514 133.989C733.535 134.069 733.535 134.069 733.615 134.048Z" fill="#FFB700"></path><path d="M317.191 270.648C317.633 270.529 317.895 270.074 317.776 269.633C317.658 269.191 317.203 268.929 316.761 269.048C316.32 269.167 316.058 269.621 316.177 270.063C316.295 270.504 316.75 270.766 317.191 270.648Z" fill="#FFB700"></path><path d="M339.63 265.431C340.469 265.205 341.006 264.332 340.77 263.452C340.533 262.572 339.671 262.075 338.791 262.311C337.911 262.548 337.414 263.411 337.651 264.29C337.887 265.17 338.75 265.667 339.63 265.431Z" fill="#FFB700"></path><path d="M362.045 260.134C363.282 259.801 364.015 258.529 363.682 257.292C363.35 256.055 362.078 255.322 360.841 255.655C359.604 255.987 358.871 257.259 359.204 258.496C359.536 259.733 360.808 260.466 362.045 260.134Z" fill="#FFB700"></path><path d="M384.463 254.836C386.063 254.406 387.038 252.772 386.598 251.132C386.157 249.492 384.544 248.597 382.904 249.038C381.265 249.478 380.369 251.091 380.799 252.691C381.229 254.29 382.864 255.266 384.463 254.836Z" fill="#FFB700"></path><path d="M406.922 249.528C408.881 249.001 410.051 246.972 409.524 245.012C408.997 243.053 406.968 241.883 405.008 242.41C403.049 242.936 401.879 244.966 402.406 246.926C402.933 248.885 404.962 250.054 406.922 249.528Z" fill="#FFB700"></path><path d="M429.314 244.151C431.633 243.528 433.007 241.143 432.384 238.824C431.76 236.505 429.375 235.13 427.056 235.754C424.737 236.377 423.363 238.762 423.986 241.081C424.61 243.4 426.995 244.775 429.314 244.151Z" fill="#FFB700"></path><path d="M451.698 238.734C454.326 238.028 455.884 235.324 455.177 232.696C454.471 230.068 451.768 228.51 449.14 229.217C446.511 229.923 444.954 232.627 445.66 235.255C446.367 237.883 449.07 239.441 451.698 238.734Z" fill="#FFB700"></path><path d="M474.063 233.237C476.942 232.463 478.667 229.469 477.893 226.59C477.119 223.711 474.126 221.986 471.246 222.76C468.367 223.534 466.642 226.527 467.416 229.407C468.19 232.286 471.184 234.011 474.063 233.237Z" fill="#FFB700"></path><path d="M496.423 227.569C499.502 226.741 501.315 223.595 500.487 220.516C499.659 217.437 496.514 215.624 493.434 216.452C490.355 217.28 488.542 220.426 489.37 223.505C490.198 226.584 493.344 228.397 496.423 227.569Z" fill="#FFB700"></path><path d="M518.699 221.752C521.857 220.903 523.729 217.655 522.88 214.496C522.031 211.338 518.783 209.466 515.624 210.315C512.466 211.164 510.594 214.413 511.443 217.571C512.292 220.729 515.541 222.601 518.699 221.752Z" fill="#FFB700"></path><path d="M540.9 215.656C544.019 214.817 545.821 211.631 544.993 208.552C544.165 205.473 540.969 203.631 537.89 204.459C534.811 205.286 532.968 208.483 533.796 211.562C534.624 214.641 537.821 216.483 540.9 215.656Z" fill="#FFB700"></path><path d="M563.058 209.398C565.977 208.614 567.742 205.609 566.947 202.65C566.151 199.691 563.158 197.966 560.198 198.761C557.239 199.557 555.514 202.55 556.31 205.51C557.105 208.469 560.099 210.194 563.058 209.398Z" fill="#FFB700"></path><path d="M585.193 202.891C587.833 202.181 589.411 199.441 588.702 196.802C587.992 194.163 585.253 192.584 582.613 193.293C579.974 194.003 578.395 196.743 579.105 199.382C579.814 202.021 582.554 203.6 585.193 202.891Z" fill="#FFB700"></path><path d="M607.287 196.394C609.647 195.76 611.01 193.335 610.387 191.016C609.763 188.696 607.328 187.293 605.008 187.916C602.689 188.54 601.286 190.975 601.909 193.295C602.533 195.614 604.968 197.018 607.287 196.394Z" fill="#FFB700"></path><path d="M629.349 189.777C631.349 189.24 632.548 187.16 632.01 185.16C631.473 183.161 629.392 181.962 627.393 182.499C625.393 183.037 624.195 185.117 624.732 187.117C625.27 189.116 627.35 190.315 629.349 189.777Z" fill="#FFB700"></path><path d="M651.403 183.12C653.038 182.681 654.006 181 653.567 179.365C653.128 177.731 651.447 176.762 649.812 177.202C648.178 177.641 647.209 179.322 647.649 180.956C648.088 182.591 649.769 183.559 651.403 183.12Z" fill="#FFB700"></path><path d="M673.49 176.453C674.77 176.109 675.49 174.801 675.157 173.561C674.824 172.321 673.504 171.561 672.265 171.894C671.025 172.228 670.265 173.547 670.598 174.786C670.931 176.026 672.251 176.786 673.49 176.453Z" fill="#FFB700"></path><path d="M695.532 169.756C696.393 169.525 696.904 168.639 696.672 167.777C696.441 166.916 695.555 166.405 694.693 166.637C693.832 166.868 693.322 167.754 693.553 168.616C693.785 169.477 694.671 169.988 695.532 169.756Z" fill="#FFB700"></path><path d="M717.584 163.099C718.064 162.97 718.357 162.462 718.228 161.982C718.099 161.503 717.591 161.21 717.111 161.339C716.631 161.468 716.339 161.976 716.468 162.455C716.597 162.935 717.104 163.228 717.584 163.099Z" fill="#FFB700"></path><path d="M739.633 156.442C739.633 156.442 739.811 156.308 739.779 156.189C739.747 156.069 739.645 156.011 739.526 156.043C739.406 156.075 739.348 156.176 739.38 156.296C739.412 156.416 739.513 156.474 739.633 156.442Z" fill="#FFB700"></path><path d="M323.223 293.081C323.775 292.933 324.102 292.365 323.954 291.813C323.806 291.261 323.238 290.933 322.686 291.082C322.133 291.23 321.806 291.798 321.955 292.35C322.103 292.902 322.671 293.23 323.223 293.081Z" fill="#FFB700"></path><path d="M345.661 287.864C346.62 287.606 347.176 286.642 346.918 285.682C346.66 284.723 345.696 284.167 344.736 284.425C343.776 284.683 343.221 285.647 343.479 286.607C343.737 287.567 344.701 288.122 345.661 287.864Z" fill="#FFB700"></path><path d="M368.088 282.607C369.447 282.242 370.266 280.821 369.901 279.461C369.535 278.102 368.114 277.283 366.755 277.648C365.395 278.014 364.576 279.435 364.942 280.794C365.307 282.154 366.728 282.973 368.088 282.607Z" fill="#FFB700"></path><path d="M390.526 277.39C392.286 276.917 393.339 275.09 392.866 273.331C392.393 271.571 390.566 270.518 388.806 270.991C387.047 271.464 385.994 273.291 386.467 275.051C386.94 276.81 388.767 277.863 390.526 277.39Z" fill="#FFB700"></path><path d="M412.985 272.082C415.144 271.501 416.391 269.279 415.821 267.16C415.251 265.04 413.019 263.754 410.899 264.324C408.78 264.893 407.494 267.126 408.063 269.245C408.633 271.365 410.866 272.651 412.985 272.082Z" fill="#FFB700"></path><path d="M435.399 266.785C437.919 266.108 439.41 263.52 438.733 261.001C438.055 258.481 435.468 256.99 432.948 257.667C430.429 258.345 428.938 260.932 429.615 263.452C430.292 265.971 432.88 267.462 435.399 266.785Z" fill="#FFB700"></path><path d="M457.803 261.448C460.696 260.671 462.411 257.695 461.633 254.801C460.856 251.908 457.88 250.193 454.987 250.971C452.093 251.749 450.379 254.725 451.156 257.618C451.934 260.511 454.91 262.226 457.803 261.448Z" fill="#FFB700"></path><path d="M480.212 256.11C483.451 255.24 485.38 251.891 484.51 248.652C483.639 245.413 480.29 243.483 477.051 244.354C473.812 245.224 471.882 248.573 472.753 251.812C473.624 255.051 476.972 256.981 480.212 256.11Z" fill="#FFB700"></path><path d="M502.602 250.563C506.081 249.628 508.128 246.076 507.192 242.597C506.257 239.118 502.705 237.072 499.226 238.007C495.747 238.942 493.701 242.494 494.636 245.973C495.571 249.452 499.123 251.499 502.602 250.563Z" fill="#FFB700"></path><path d="M524.882 244.745C528.46 243.783 530.581 240.103 529.619 236.525C528.657 232.948 524.977 230.827 521.399 231.789C517.821 232.751 515.701 236.431 516.662 240.008C517.624 243.586 521.304 245.707 524.882 244.745Z" fill="#FFB700"></path><path d="M547.07 238.609C550.549 237.674 552.596 234.122 551.661 230.643C550.725 227.164 547.174 225.117 543.695 226.053C540.215 226.988 538.169 230.54 539.104 234.019C540.039 237.498 543.591 239.544 547.07 238.609Z" fill="#FFB700"></path><path d="M569.186 232.192C572.425 231.321 574.355 227.972 573.484 224.733C572.614 221.494 569.265 219.564 566.026 220.435C562.787 221.306 560.857 224.655 561.728 227.894C562.598 231.133 565.947 233.063 569.186 232.192Z" fill="#FFB700"></path><path d="M591.31 225.644C594.229 224.86 595.994 221.855 595.199 218.896C594.403 215.937 591.41 214.212 588.45 215.008C585.491 215.803 583.766 218.797 584.562 221.756C585.357 224.715 588.351 226.44 591.31 225.644Z" fill="#FFB700"></path><path d="M613.362 218.987C615.922 218.299 617.442 215.661 616.754 213.101C616.066 210.542 613.428 209.022 610.868 209.71C608.309 210.398 606.788 213.036 607.476 215.595C608.164 218.155 610.803 219.675 613.362 218.987Z" fill="#FFB700"></path><path d="M635.412 212.331C637.611 211.74 638.898 209.507 638.306 207.308C637.715 205.109 635.483 203.822 633.283 204.413C631.084 205.005 629.797 207.237 630.388 209.436C630.98 211.636 633.212 212.922 635.412 212.331Z" fill="#FFB700"></path><path d="M657.453 205.634C659.213 205.161 660.265 203.334 659.792 201.575C659.319 199.815 657.493 198.762 655.733 199.235C653.974 199.708 652.921 201.535 653.394 203.295C653.867 205.054 655.694 206.107 657.453 205.634Z" fill="#FFB700"></path><path d="M679.545 198.966C680.944 198.59 681.763 197.169 681.387 195.77C681.011 194.37 679.59 193.551 678.19 193.928C676.791 194.304 675.972 195.725 676.348 197.124C676.724 198.524 678.145 199.343 679.545 198.966Z" fill="#FFB700"></path><path d="M701.575 192.23C702.575 191.961 703.159 190.946 702.891 189.947C702.622 188.947 701.607 188.362 700.607 188.631C699.608 188.899 699.023 189.914 699.291 190.914C699.56 191.914 700.575 192.499 701.575 192.23Z" fill="#FFB700"></path><path d="M723.615 185.533C724.175 185.382 724.526 184.773 724.376 184.213C724.225 183.654 723.616 183.303 723.056 183.453C722.496 183.604 722.146 184.213 722.296 184.772C722.447 185.332 723.055 185.683 723.615 185.533Z" fill="#FFB700"></path><path d="M745.642 178.797C745.642 178.797 745.929 178.591 745.875 178.391C745.822 178.191 745.669 178.103 745.47 178.157C745.27 178.211 745.182 178.363 745.236 178.563C745.289 178.763 745.442 178.851 745.642 178.797Z" fill="#FFB700"></path><path d="M374.119 305.041C375.576 304.649 376.44 303.15 376.049 301.692C375.657 300.235 374.157 299.371 372.7 299.762C371.242 300.154 370.378 301.654 370.77 303.111C371.162 304.569 372.661 305.433 374.119 305.041Z" fill="#FFB700"></path><path d="M396.547 299.783C398.427 299.278 399.538 297.35 399.032 295.471C398.527 293.591 396.599 292.48 394.72 292.985C392.84 293.49 391.729 295.419 392.234 297.298C392.74 299.178 394.668 300.289 396.547 299.783Z" fill="#FFB700"></path><path d="M419.023 294.556C421.302 293.944 422.647 291.61 422.034 289.33C421.422 287.051 419.088 285.706 416.808 286.319C414.529 286.931 413.184 289.265 413.797 291.545C414.409 293.824 416.743 295.169 419.023 294.556Z" fill="#FFB700"></path><path d="M441.452 289.298C444.131 288.578 445.739 285.787 445.019 283.108C444.299 280.429 441.508 278.821 438.829 279.541C436.149 280.261 434.541 283.052 435.262 285.731C435.982 288.41 438.772 290.019 441.452 289.298Z" fill="#FFB700"></path><path d="M463.881 284.041C466.951 283.216 468.771 280.058 467.945 276.989C467.12 273.919 463.962 272.099 460.893 272.924C457.823 273.749 456.003 276.907 456.828 279.977C457.654 283.047 460.811 284.866 463.881 284.041Z" fill="#FFB700"></path><path d="M486.308 278.784C489.787 277.849 491.834 274.297 490.898 270.818C489.963 267.339 486.412 265.292 482.932 266.227C479.453 267.163 477.407 270.714 478.342 274.193C479.277 277.672 482.829 279.719 486.308 278.784Z" fill="#FFB700"></path><path d="M508.751 273.437C512.572 272.41 514.836 268.48 513.809 264.659C512.782 260.838 508.852 258.573 505.031 259.6C501.211 260.628 498.946 264.558 499.973 268.378C501 272.199 504.93 274.464 508.751 273.437Z" fill="#FFB700"></path><path d="M531.06 267.74C535.036 266.671 537.392 262.582 536.323 258.607C535.255 254.631 531.166 252.275 527.19 253.344C523.215 254.412 520.859 258.501 521.927 262.477C522.996 266.452 527.085 268.808 531.06 267.74Z" fill="#FFB700"></path><path d="M553.209 261.443C557.008 260.421 559.299 256.504 558.267 252.665C557.235 248.826 553.328 246.574 549.489 247.606C545.65 248.638 543.399 252.545 544.431 256.384C545.463 260.223 549.37 262.475 553.209 261.443Z" fill="#FFB700"></path><path d="M575.303 254.946C578.822 254 580.898 250.397 579.952 246.878C579.006 243.359 575.404 241.283 571.885 242.229C568.366 243.175 566.29 246.778 567.236 250.297C568.182 253.816 571.784 255.892 575.303 254.946Z" fill="#FFB700"></path><path d="M597.372 248.199C600.491 247.36 602.293 244.174 601.465 241.095C600.638 238.016 597.441 236.174 594.362 237.002C591.283 237.83 589.441 241.026 590.269 244.105C591.096 247.184 594.293 249.026 597.372 248.199Z" fill="#FFB700"></path><path d="M619.425 241.541C622.144 240.81 623.752 238.02 623.021 235.3C622.29 232.581 619.499 230.973 616.78 231.704C614.061 232.435 612.453 235.226 613.184 237.945C613.915 240.664 616.705 242.272 619.425 241.541Z" fill="#FFB700"></path><path d="M641.466 234.844C643.785 234.221 645.16 231.836 644.536 229.517C643.913 227.198 641.528 225.823 639.209 226.447C636.89 227.07 635.515 229.455 636.139 231.774C636.762 234.093 639.147 235.468 641.466 234.844Z" fill="#FFB700"></path><path d="M663.495 228.107C665.394 227.597 666.52 225.643 666.01 223.744C665.499 221.845 663.545 220.719 661.646 221.229C659.747 221.74 658.621 223.694 659.131 225.593C659.642 227.492 661.596 228.618 663.495 228.107Z" fill="#FFB700"></path><path d="M685.577 221.4C687.056 221.002 687.974 219.469 687.565 217.95C687.157 216.43 685.634 215.553 684.115 215.961C682.595 216.37 681.718 217.892 682.127 219.412C682.535 220.931 684.057 221.808 685.577 221.4Z" fill="#FFB700"></path></svg>