<svg width="41" height="27" viewBox="0 0 41 27" fill="none" xmlns="../../../../../../external.html?link=http://www.w3.org/2000/svg"><mask id="path-1-inside-1_1113_1982" fill="#fff"><path fill-rule="evenodd" clip-rule="evenodd" d="M4 0H36.0397c2.2091.0 4 1.79086 4 4V18.1466c0 2.2092-1.7909 4-4 4H35.6419v3.9813l-4.7396-3.9813H4c-2.20914.0-4-1.7908-4-4V3.99999C0 1.79086 1.79086.0 4 0z"/></mask><path d="M35.6419 22.1466v-1h-1v1h1zm0 3.9813L34.9988 26.8936l1.6431 1.3803v-2.146h-1zm-4.7396-3.9813L31.5455 21.3809 31.2666 21.1466h-.3643v1zM36.0397-1H4V1H36.0397V-1zm5 5c0-2.76142-2.23860000000001-5-5-5V1c1.6568.0 3 1.34315 3 3h2zm0 14.1466V4h-2V18.1466h2zm-5 5c2.76139999999999.0 5-2.2385 5-5h-2c0 1.6569-1.3432 3-3 3v2zM35.6419 23.1466H36.0397v-2H35.6419v2zm-1-1v3.9813h2V22.1466h-2zm1.6432 3.2156-4.7396-3.9813-1.2864 1.5314 4.7397 3.9813 1.2863-1.5314zM4 23.1466H30.9023v-2H4v2zm-5-5c0 2.7615 2.23857 5 5 5v-2c-1.65686.0-3-1.3431-3-3H-1zM-1 3.99999V18.1466H1V3.99999H-1zM4-1C1.23858-1-1 1.23857-1 3.99999H1C1 2.34314 2.34314 1 4 1V-1z" fill="#002559" mask="url(#path-1-inside-1_1113_1982)"/></svg>