<svg xmlns="http://www.w3.org/2000/svg" width="63" height="50" viewBox="0 0 63 50" fill="none"><path d="M40.1628 26.7915C43.7448 26.7915 46.6644 29.7111 46.6644 33.2931C46.6644 36.8751 43.7448 39.7947 40.1628 39.7947C36.5807 39.7947 33.6611 36.8751 33.6611 33.2931C33.6611 29.7111 36.5807 26.7915 40.1628 26.7915ZM40.1628 28.8279C37.697 28.8279 35.6975 30.8274 35.6975 33.2931C35.6975 35.7588 37.697 37.7584 40.1628 37.7584C42.6285 37.7584 44.628 35.7588 44.628 33.2931C44.628 30.8274 42.6285 28.8279 40.1628 28.8279Z" fill="#00A8FF"></path><path d="M16.4627 5.29932C20.0447 5.29932 22.9643 8.21891 22.9643 11.8009C22.9643 15.383 20.0447 18.3026 16.4627 18.3026C12.8807 18.3026 9.96106 15.383 9.96106 11.8009C9.96106 8.21891 12.8807 5.29932 16.4627 5.29932ZM16.4627 7.33567C13.997 7.33567 11.9974 9.33523 11.9974 11.8009C11.9974 14.2666 13.997 16.2662 16.4627 16.2662C18.9284 16.2662 20.9279 14.2666 20.9279 11.8009C20.9279 9.33523 18.9284 7.33567 16.4627 7.33567Z" fill="url(#paint0_linear_887_28824)"></path><path d="M7.87549 42.4942C7.87549 43.0585 8.32937 43.5124 8.89367 43.5124H13.3957C13.96 43.5124 14.4139 43.0585 14.4139 42.4942C14.4139 41.93 13.96 41.4761 13.3957 41.4761H8.89367C8.32937 41.4761 7.87549 41.93 7.87549 42.4942Z" fill="#00A8FF"></path><path d="M0 42.4942C0 43.0585 0.453887 43.5124 1.01818 43.5124H5.52024C6.08453 43.5124 6.53842 43.0585 6.53842 42.4942C6.53842 41.93 6.08453 41.4761 5.52024 41.4761H1.01818C0.453887 41.4761 0 41.93 0 42.4942Z" fill="#00A8FF"></path><path d="M6.18274 36.1764V40.2246C6.18274 40.7889 6.63663 41.2427 7.20092 41.2427C7.76521 41.2427 8.2191 40.7889 8.2191 40.2246V36.1764C8.2191 35.6121 7.76521 35.1582 7.20092 35.1582C6.63663 35.1582 6.18274 35.6121 6.18274 36.1764Z" fill="#00A8FF"></path><path d="M6.18286 44.7755V48.8237C6.18286 49.388 6.63675 49.8419 7.20104 49.8419C7.76533 49.8419 8.21922 49.388 8.21922 48.8237V44.7755C8.21922 44.2112 7.76533 43.7573 7.20104 43.7573C6.63675 43.7573 6.18286 44.2112 6.18286 44.7755Z" fill="#00A8FF"></path><path d="M55.5459 7.33556C55.5459 7.89985 55.9998 8.35374 56.5641 8.35374H61.0661C61.6304 8.35374 62.0843 7.89985 62.0843 7.33556C62.0843 6.77127 61.6304 6.31738 61.0661 6.31738H56.5641C55.9998 6.31738 55.5459 6.77127 55.5459 7.33556Z" fill="url(#paint1_linear_887_28824)"></path><path d="M47.6582 7.33556C47.6582 7.89985 48.1121 8.35374 48.6764 8.35374H53.1784C53.7427 8.35374 54.1966 7.89985 54.1966 7.33556C54.1966 6.77127 53.7427 6.31738 53.1784 6.31738H48.6764C48.1121 6.31738 47.6582 6.77127 47.6582 7.33556Z" fill="url(#paint2_linear_887_28824)"></path><path d="M53.8533 1.01818V5.06636C53.8533 5.63065 54.3072 6.08453 54.8714 6.08453C55.4357 6.08453 55.8896 5.63065 55.8896 5.06636V1.01818C55.8896 0.453887 55.4357 0 54.8714 0C54.3072 0 53.8533 0.453887 53.8533 1.01818Z" fill="url(#paint3_linear_887_28824)"></path><path d="M53.8533 9.6173V13.6655C53.8533 14.2298 54.3072 14.6837 54.8714 14.6837C55.4357 14.6837 55.8896 14.2298 55.8896 13.6655V9.6173C55.8896 9.05301 55.4357 8.59912 54.8714 8.59912C54.3072 8.59912 53.8533 9.05301 53.8533 9.6173Z" fill="url(#paint4_linear_887_28824)"></path><defs><linearGradient id="paint0_linear_887_28824" x1="9.96106" y1="7.04082" x2="23.6958" y2="8.13811" gradientUnits="userSpaceOnUse"><stop stop-color="#513DE8"></stop><stop offset="1" stop-color="#8366E3"></stop></linearGradient><linearGradient id="paint1_linear_887_28824" x1="55.5459" y1="6.59011" x2="62.0671" y2="8.26293" gradientUnits="userSpaceOnUse"><stop stop-color="#513DE8"></stop><stop offset="1" stop-color="#8366E3"></stop></linearGradient><linearGradient id="paint2_linear_887_28824" x1="47.6582" y1="6.59011" x2="54.1794" y2="8.26293" gradientUnits="userSpaceOnUse"><stop stop-color="#513DE8"></stop><stop offset="1" stop-color="#8366E3"></stop></linearGradient><linearGradient id="paint3_linear_887_28824" x1="53.8533" y1="0.814893" x2="56.0164" y2="0.87273" gradientUnits="userSpaceOnUse"><stop stop-color="#513DE8"></stop><stop offset="1" stop-color="#8366E3"></stop></linearGradient><linearGradient id="paint4_linear_887_28824" x1="53.8533" y1="9.41401" x2="56.0164" y2="9.47185" gradientUnits="userSpaceOnUse"><stop stop-color="#513DE8"></stop><stop offset="1" stop-color="#8366E3"></stop></linearGradient></defs></svg>