<?xml version="1.0" encoding="utf-8"?>
<!-- Generator: Adobe Illustrator 24.0.1, SVG Export Plug-In . SVG Version: 6.00 Build 0)  -->
<svg width="215" height="233" version="1.1" id="Layer_1" xmlns="http://www.w3.org/2000/svg" xmlns:xlink="http://www.w3.org/1999/xlink" x="0px" y="0px"
	 viewBox="0 0 215 233" style="enable-background:new 0 0 215 233;" xml:space="preserve">
<style type="text/css">
	.st0{fill:url(#SVGID_1_);}
	.st1{fill:url(#SVGID_2_);}
	.st2{fill:url(#SVGID_3_);}
	.st3{fill:url(#SVGID_4_);}
	.st4{fill:url(#SVGID_5_);}
	.st5{fill:url(#SVGID_6_);}
	.st6{fill:url(#SVGID_7_);}
	.st7{fill:url(#SVGID_8_);}
	.st8{fill:url(#SVGID_9_);}
	.st9{fill:url(#SVGID_10_);}
	.st10{fill:url(#SVGID_11_);}
	.st11{fill:url(#SVGID_12_);}
	.st12{fill:url(#SVGID_13_);}
	.st13{fill:url(#SVGID_14_);}
</style>
<linearGradient id="SVGID_1_" gradientUnits="userSpaceOnUse" x1="197.4628" y1="156.0576" x2="205.1996" y2="156.0576">
	<stop  offset="0" style="stop-color:#B32AF3"/>
	<stop  offset="1" style="stop-color:#523DE8"/>
</linearGradient>
<path class="st0" d="M197.6,151.2c1.3,3.6,2.6,7.3,3.7,11c0.3,0.9,1.2,1.5,2.1,1.4c0.1,0,0.3,0,0.4-0.1c1-0.3,1.6-1.4,1.3-2.5
	c-1.2-3.8-2.4-7.5-3.8-11.2c-0.4-1-1.5-1.5-2.5-1.2C197.7,149,197.2,150.2,197.6,151.2L197.6,151.2z"/>
<linearGradient id="SVGID_2_" gradientUnits="userSpaceOnUse" x1="204.3879" y1="178.629" x2="210.7546" y2="178.629">
	<stop  offset="0" style="stop-color:#B32AF3"/>
	<stop  offset="1" style="stop-color:#523DE8"/>
</linearGradient>
<path class="st1" d="M204.4,173.4c0.9,3.7,1.7,7.5,2.4,11.3c0.2,1,1.1,1.7,2.1,1.6c0.1,0,0.1,0,0.1,0c1.1-0.2,1.8-1.2,1.6-2.3
	c-0.7-3.9-1.6-7.8-2.5-11.6c-0.3-1.1-1.3-1.7-2.4-1.4C204.8,171.3,204.2,172.3,204.4,173.4L204.4,173.4z"/>
<linearGradient id="SVGID_3_" gradientUnits="userSpaceOnUse" x1="210.4963" y1="225.0446" x2="214.55" y2="225.0446">
	<stop  offset="0" style="stop-color:#B32AF3"/>
	<stop  offset="1" style="stop-color:#523DE8"/>
</linearGradient>
<path class="st2" d="M212.8,232.9c1-0.1,1.7-0.9,1.8-1.9c0.1-4,0-7.9-0.1-11.8c0-1.1-1-1.9-2-1.9c-1.1,0-1.9,1-1.9,2
	c0.1,3.8,0.1,7.7,0.1,11.6c0,1.1,0.8,2,1.9,2C212.6,232.8,212.7,232.8,212.8,232.9L212.8,232.9z"/>
<linearGradient id="SVGID_4_" gradientUnits="userSpaceOnUse" x1="208.6267" y1="201.6938" x2="213.8036" y2="201.6938">
	<stop  offset="0" style="stop-color:#B32AF3"/>
	<stop  offset="1" style="stop-color:#523DE8"/>
</linearGradient>
<path class="st3" d="M210.4,193.9c-1.1,0.1-1.9,1.1-1.7,2.2c0.2,1.8,0.4,3.6,0.6,5.4c0.2,2.1,0.4,4.1,0.6,6.2c0.1,1.1,1,1.9,2.1,1.8
	c0,0,0,0,0.1,0c1.1-0.1,1.9-1,1.8-2.1c-0.2-2.1-0.3-4.2-0.6-6.3c-0.2-1.8-0.4-3.6-0.6-5.4C212.4,194.5,211.5,193.8,210.4,193.9
	C210.4,193.9,210.4,193.9,210.4,193.9z"/>
<linearGradient id="SVGID_5_" gradientUnits="userSpaceOnUse" x1="187.9018" y1="134.4144" x2="196.9835" y2="134.4144">
	<stop  offset="0" style="stop-color:#B32AF3"/>
	<stop  offset="1" style="stop-color:#523DE8"/>
</linearGradient>
<path class="st4" d="M193.2,140.5c0.3,0.8,1.2,1.2,2,1.2c0.2,0,0.4-0.1,0.6-0.2c1-0.4,1.4-1.6,1-2.6c-1.6-3.6-3.4-7.2-5.2-10.7
	c-0.5-1-1.7-1.3-2.7-0.8c-1,0.5-1.3,1.7-0.8,2.7C189.9,133.4,191.6,136.9,193.2,140.5L193.2,140.5z"/>
<linearGradient id="SVGID_6_" gradientUnits="userSpaceOnUse" x1="105.5975" y1="51.2734" x2="119.8053" y2="51.2734">
	<stop  offset="0" style="stop-color:#B32AF3"/>
	<stop  offset="1" style="stop-color:#523DE8"/>
</linearGradient>
<path class="st5" d="M106.7,50.2c3.4,1.7,6.8,3.6,10.2,5.6c0.4,0.2,0.8,0.3,1.2,0.3c0.6-0.1,1.2-0.4,1.5-1c0.5-0.9,0.2-2.1-0.7-2.7
	c-3.4-2-6.9-3.9-10.4-5.7c-1-0.5-2.2-0.1-2.7,0.9C105.3,48.5,105.7,49.7,106.7,50.2L106.7,50.2z"/>
<linearGradient id="SVGID_7_" gradientUnits="userSpaceOnUse" x1="125.6811" y1="63.7993" x2="139.1636" y2="63.7993">
	<stop  offset="0" style="stop-color:#B32AF3"/>
	<stop  offset="1" style="stop-color:#523DE8"/>
</linearGradient>
<path class="st6" d="M136,68.8c0.4,0.3,0.9,0.4,1.4,0.4c0.5-0.1,1-0.3,1.4-0.8c0.7-0.9,0.5-2.1-0.4-2.8c-3.1-2.4-6.4-4.7-9.6-6.9
	c-0.9-0.6-2.1-0.4-2.8,0.5c-0.6,0.9-0.4,2.1,0.5,2.8C129.7,64.2,132.9,66.5,136,68.8L136,68.8z"/>
<linearGradient id="SVGID_8_" gradientUnits="userSpaceOnUse" x1="144.3866" y1="78.5389" x2="156.9494" y2="78.5389">
	<stop  offset="0" style="stop-color:#B32AF3"/>
	<stop  offset="1" style="stop-color:#523DE8"/>
</linearGradient>
<path class="st7" d="M153.6,83.9c0.4,0.4,1,0.6,1.6,0.6c0.4-0.1,0.9-0.2,1.2-0.6c0.8-0.8,0.8-2,0-2.8c-2.8-2.7-5.7-5.4-8.7-8
	c-0.8-0.7-2.1-0.6-2.8,0.2c-0.7,0.8-0.6,2.1,0.2,2.8C148,78.6,150.9,81.2,153.6,83.9L153.6,83.9z"/>
<linearGradient id="SVGID_9_" gradientUnits="userSpaceOnUse" x1="161.1238" y1="95.3355" x2="172.6437" y2="95.3355">
	<stop  offset="0" style="stop-color:#B32AF3"/>
	<stop  offset="1" style="stop-color:#523DE8"/>
</linearGradient>
<path class="st8" d="M169.2,101c0.4,0.5,1.1,0.8,1.7,0.7c0.4,0,0.7-0.2,1-0.4c0.8-0.7,1-1.9,0.3-2.8c-2.5-3.1-5-6.1-7.7-9
	c-0.7-0.8-2-0.9-2.8-0.1c-0.8,0.7-0.9,2-0.1,2.8C164.2,95,166.8,98,169.2,101L169.2,101z"/>
<linearGradient id="SVGID_10_" gradientUnits="userSpaceOnUse" x1="175.7267" y1="114.0572" x2="186.08" y2="114.0572">
	<stop  offset="0" style="stop-color:#B32AF3"/>
	<stop  offset="1" style="stop-color:#523DE8"/>
</linearGradient>
<path class="st9" d="M182.4,120c0.4,0.7,1.2,1,1.9,0.9c0.3,0,0.6-0.1,0.8-0.3c0.9-0.6,1.2-1.8,0.7-2.7c-2.1-3.4-4.2-6.7-6.5-9.9
	c-0.6-0.9-1.9-1.1-2.8-0.5c-0.9,0.6-1.1,1.9-0.5,2.8C178.3,113.4,180.4,116.7,182.4,120L182.4,120z"/>
<linearGradient id="SVGID_11_" gradientUnits="userSpaceOnUse" x1="0" y1="15.9805" x2="105.726" y2="15.9805">
	<stop  offset="0" style="stop-color:#B32AF3"/>
	<stop  offset="1" style="stop-color:#523DE8"/>
</linearGradient>
<path class="st10" d="M97.1,32l8.6-32L0,0.9L97.1,32z"/>
<linearGradient id="SVGID_12_" gradientUnits="userSpaceOnUse" x1="0" y1="23.6089" x2="97.0988" y2="23.6089">
	<stop  offset="0" style="stop-color:#B32AF3"/>
	<stop  offset="1" style="stop-color:#523DE8"/>
</linearGradient>
<path class="st11" d="M0,0.9l92,38.8l0.2,0.1l4,6.5L97.1,32L0,0.9z"/>
<linearGradient id="SVGID_13_" gradientUnits="userSpaceOnUse" x1="87.6033" y1="43.0497" x2="96.1725" y2="43.0497">
	<stop  offset="0" style="stop-color:#B32AF3"/>
	<stop  offset="1" style="stop-color:#523DE8"/>
</linearGradient>
<path class="st12" d="M96.2,46.3L87.6,45l4.6-5.2L96.2,46.3z"/>
<linearGradient id="SVGID_14_" gradientUnits="userSpaceOnUse" x1="0" y1="33.7704" x2="92.2063" y2="33.7704">
	<stop  offset="0" style="stop-color:#B32AF3"/>
	<stop  offset="1" style="stop-color:#523DE8"/>
</linearGradient>
<path class="st13" d="M80.6,34.9l11.6,4.9L68.4,66.6L0,0.9L80.6,34.9z"/>
</svg>
