<svg xmlns="http://www.w3.org/2000/svg" width="50" height="36" viewBox="0 0 50 36" fill="none"><path d="M11.0228 23.427C10.1143 28.4505 8.58234 32.0666 7.37101 34.3112C6.89004 35.184 7.86981 36.1638 8.72487 35.665C18.8787 29.7509 23.3321 21.129 23.8843 14.1995C24.3653 8.2319 20.286 2.08617 14.1224 0.96391C7.95888 -0.158353 2.04472 3.93881 0.92246 10.1023C-0.253244 16.5687 4.30706 22.7857 11.0228 23.427Z" fill="white"></path><path d="M36.3357 23.427C35.4272 28.4505 33.8952 32.0666 32.6839 34.3112C32.2029 35.184 33.1827 36.1638 34.0377 35.665C44.1915 29.7509 48.645 21.129 49.1972 14.1995C49.6782 8.2319 45.5988 2.08617 39.4353 0.96391C33.2717 -0.158353 27.3576 3.93881 26.2353 10.1023C25.0596 16.5687 29.62 22.7857 36.3357 23.427Z" fill="white"></path></svg>