<?xml version="1.0" encoding="utf-8"?>
<!-- Generator: Adobe Illustrator 24.0.1, SVG Export Plug-In . SVG Version: 6.00 Build 0)  -->
<svg version="1.1" id="Layer_1" xmlns="http://www.w3.org/2000/svg" xmlns:xlink="http://www.w3.org/1999/xlink" x="0px" y="0px"
	 viewBox="0 0 40 36" style="enable-background:new 0 0 40 36;" xml:space="preserve">
<style type="text/css">
	.st0{fill:url(#SVGID_1_);}
	.st1{fill:url(#SVGID_2_);}
</style>
<linearGradient id="SVGID_1_" gradientUnits="userSpaceOnUse" x1="39.2266" y1="35.7786" x2="21.8327" y2="5.6515">
	<stop  offset="0" style="stop-color:#F18525"/>
	<stop  offset="1" style="stop-color:#F3561B"/>
</linearGradient>
<path class="st0" d="M22,35.3c0-1.6,0-3.6,0-6.5c0-2.9,0-5.2,0-6.5c0-2.6,0-4.9,0-7c0-2.1,0.5-3.9,1.1-6c0.5-2.1,1.3-3.6,2.4-4.9
	c1.1-1.3,2.4-2.3,4-3.1C31,0.5,33.1,0,35.5,0L40,8.8c-3.2,0-5.5,0.8-6.9,2.1c-1.3,1.3-2.1,3.6-2.1,6.8h9v17.7H22z"/>
<linearGradient id="SVGID_2_" gradientUnits="userSpaceOnUse" x1="17.1963" y1="35.7786" x2="-0.1976" y2="5.6515">
	<stop  offset="0" style="stop-color:#F18525"/>
	<stop  offset="1" style="stop-color:#F3561B"/>
</linearGradient>
<path class="st1" d="M0,28.8v6.5h18V17.7H9c0-3.1,0.8-5.5,2.1-6.8c1.3-1.3,3.7-2.1,6.9-2.1L13.5,0C11.1,0,9,0.5,7.4,1.3
	c-1.6,0.8-2.9,1.8-4,3.1C2.4,5.7,1.6,7.3,1.1,9.4c-0.5,2.1-1.1,3.9-1.1,6v7V28.8z"/>
</svg>
