<?xml version="1.0" encoding="utf-8"?>
<!-- Generator: Adobe Illustrator 24.0.1, SVG Export Plug-In . SVG Version: 6.00 Build 0)  -->
<svg version="1.1" id="Layer_1" xmlns="http://www.w3.org/2000/svg" xmlns:xlink="http://www.w3.org/1999/xlink" x="0px" y="0px"
	 viewBox="0 0 53 55" style="enable-background:new 0 0 53 55;" xml:space="preserve">
<style type="text/css">
	.st0{fill:url(#SVGID_1_);}
</style>
<linearGradient id="SVGID_1_" gradientUnits="userSpaceOnUse" x1="49.9274" y1="6.7997" x2="0.4495" y2="44.4423" gradientTransform="matrix(1 0 0 -1 0 56)">
	<stop  offset="0" style="stop-color:#1C41FD"/>
	<stop  offset="1" style="stop-color:#E1D9FD"/>
</linearGradient>
<path class="st0" d="M24.5,0.4C19.6,0.9,15,2.7,11,5.6s-7,6.8-8.9,11.3c-1.9,4.5-2.5,9.5-1.8,14.3c0.7,4.8,2.7,9.4,5.8,13.2
	c3.1,3.8,7.2,6.7,11.8,8.3s9.6,2,14.4,1.1s9.2-3.2,12.9-6.5c3.6-3.3,6.3-7.5,7.7-12.2l-11.2-3.4c-0.8,2.7-2.3,5-4.4,6.9
	c-2.1,1.9-4.6,3.1-7.3,3.7c-2.7,0.5-5.5,0.3-8.1-0.6c-2.6-0.9-4.9-2.6-6.7-4.7c-1.8-2.1-2.9-4.7-3.3-7.5c-0.4-2.7-0.1-5.5,1-8.1
	c1.1-2.6,2.8-4.8,5-6.4c2.2-1.6,4.9-2.7,7.6-2.9L24.5,0.4z"/>
</svg>
