<svg xmlns="http://www.w3.org/2000/svg" width="111" height="115" viewBox="0 0 111 115" fill="none"><path d="M85.1893 101.726C85.1893 101.726 85.1346 102.079 84.5661 102.172C84.5661 102.172 84.178 102.293 83.7899 102.414C83.7899 102.414 83.4291 102.358 83.4018 102.534L83.2214 102.506C83.2214 102.506 83.2214 102.506 83.0136 102.655C82.6529 102.599 82.2374 102.896 81.6962 102.812C81.6962 102.812 81.5159 102.784 81.3355 102.757C81.3355 102.757 81.1551 102.729 80.9747 102.701C80.7943 102.673 80.4335 102.617 80.2258 102.766C79.6846 102.682 79.0888 102.951 78.5476 102.867C78.1868 102.811 78.0064 102.783 77.6457 102.728C77.6457 102.728 77.2849 102.672 77.1045 102.644C77.1045 102.644 76.7437 102.588 76.5633 102.56C73.8028 102.494 70.5284 102.168 66.948 101.433C66.7676 101.405 66.4068 101.349 66.2264 101.321L65.5048 101.209C65.5048 101.209 64.6029 101.07 64.0891 100.809C63.5479 100.726 63.1871 100.67 62.6733 100.409C62.4929 100.381 62.1321 100.326 61.9517 100.298C61.7713 100.27 61.4105 100.214 61.2301 100.186C61.0497 100.158 60.689 100.102 60.5086 100.074C60.3282 100.046 59.9674 99.9905 59.787 99.9625C59.2458 99.8787 58.9124 99.6463 58.3986 99.386C58.3986 99.386 58.2182 99.3581 58.0378 99.3302L57.677 99.2743C57.677 99.2743 57.1632 99.014 57.0101 98.8095C56.8297 98.7816 56.4689 98.7257 56.3159 98.5213C56.1355 98.4933 55.7747 98.4375 55.6216 98.233C55.4413 98.2051 55.0805 98.1492 54.7744 97.7403C54.7744 97.7403 54.4136 97.6845 54.2332 97.6565C54.2332 97.6565 53.8724 97.6007 53.7193 97.3962C53.3586 97.3403 53.0524 96.9314 52.5386 96.6711C52.5386 96.6711 52.3582 96.6432 52.1778 96.6152C52.1778 96.6152 51.9974 96.5873 51.8171 96.5594C51.6367 96.5315 51.3032 96.2991 51.1502 96.0946C49.3025 94.9047 47.1214 93.4825 44.6342 91.6513C43.9673 91.1865 43.3004 90.7217 42.8413 90.1083C42.5078 89.8759 42.1744 89.6436 41.8683 89.2346C41.5348 89.0022 41.2287 88.5933 40.8952 88.3609C40.8952 88.3609 40.5618 88.1285 40.4087 87.9241C40.4087 87.9241 40.2283 87.8961 40.0753 87.6917C40.0753 87.6917 40.0753 87.6917 39.9222 87.4872C39.5888 87.2548 39.2827 86.8459 38.9765 86.437C38.7962 86.4091 38.6704 86.0281 38.49 86.0001C38.3096 85.9722 38.1839 85.5912 38.0035 85.5633C37.6974 85.1544 37.364 84.922 37.0579 84.5131C36.7517 84.1041 36.4456 83.6952 36.1122 83.4628C36.1122 83.4628 35.9318 83.4349 35.7787 83.2304C35.7787 83.2304 35.5983 83.2025 35.4453 82.9981C35.2649 82.9701 35.1392 82.5891 34.9861 82.3847C34.8057 82.3567 34.68 81.9758 34.5269 81.7713C34.3739 81.5668 34.2208 81.3624 34.0677 81.1579C33.9147 80.9535 33.7616 80.749 33.6086 80.5445C33.6086 80.5445 33.4555 80.3401 33.3025 80.1356L33.3571 79.7825C33.051 79.3736 32.7449 78.9647 32.4661 78.3793C32.4661 78.3793 32.313 78.1748 32.3404 77.9983C32.3404 77.9983 32.3677 77.8217 32.2146 77.6173C32.242 77.4407 31.9085 77.2084 31.7555 77.0039C31.7828 76.8274 31.4494 76.595 31.2963 76.3905C31.3236 76.214 30.9902 75.9816 30.8645 75.6006C30.8918 75.4241 30.5583 75.1917 30.4326 74.8107C30.4326 74.8107 30.4599 74.6342 30.3069 74.4297C30.3069 74.4297 30.3342 74.2532 30.1812 74.0487C29.9024 73.4633 29.5963 73.0543 29.3175 72.4689C29.3448 72.2924 29.0387 71.8834 28.8856 71.679C28.913 71.5024 28.6068 71.0935 28.4538 70.8891C28.0493 69.9226 27.4917 68.7517 27.1145 67.6087C26.7374 66.4658 26.3602 65.3228 25.983 64.1798C25.6058 63.0369 25.4364 61.7453 25.2669 60.4537C25.3216 60.1006 25.1685 59.8962 25.2232 59.5431C25.2778 59.1901 25.3052 59.0135 25.1794 58.6325C25.2341 58.2795 25.2614 58.103 25.1357 57.722C25.1357 57.722 25.1904 57.3689 25.2177 57.1924C25.2177 57.1924 25.2724 56.8393 25.2997 56.6628C25.3106 55.3991 25.3216 54.1355 25.3598 52.6953C25.4145 52.3423 25.4692 51.9892 25.4965 51.8127L25.6605 50.7535C25.6605 50.7535 25.8518 49.5178 25.9611 48.8116C26.0158 48.4586 26.0705 48.1055 26.1251 47.7525C26.1798 47.3994 26.2345 47.0463 26.2891 46.6933C26.3438 46.3402 26.3985 45.9872 26.4531 45.6341L26.5351 45.1045L26.5898 44.7514C26.6445 44.3984 26.6991 44.0453 26.7538 43.6923C26.7538 43.6923 26.8084 43.3392 26.8358 43.1627L26.9178 42.6331C26.9178 42.6331 27.2075 41.9549 27.4425 41.6298C27.4972 41.2767 27.5519 40.9236 27.7596 40.775L27.8416 40.2454C27.8416 40.2454 28.0766 39.9203 28.2844 39.7717C28.339 39.4186 28.5741 39.0935 28.7818 38.9449C28.7818 38.9449 28.8365 38.5918 28.8638 38.4153L28.9458 37.8857L29.3886 37.412C29.3886 37.412 29.4432 37.0589 29.4706 36.8824C29.5252 36.5293 29.9407 36.2321 29.968 36.0556C29.968 36.0556 30.0227 35.7025 30.2304 35.5539L30.3124 35.0243C30.3124 35.0243 30.9356 34.5785 31.1706 34.2534C31.2253 33.9004 31.6134 33.7797 31.8484 33.4546C32.7613 32.3306 33.6469 31.3831 34.7128 30.4636C35.7788 29.544 37.0251 28.6524 38.2441 27.9373C39.4631 27.2223 40.8352 26.7116 42.3876 26.229C42.3876 26.229 42.3876 26.229 42.568 26.2569L42.7484 26.2848C42.7484 26.2848 43.1365 26.1642 43.3442 26.0155C43.705 26.0714 44.0931 25.9507 44.6616 25.858C45.0224 25.9139 45.5636 25.9976 46.1048 26.0814C46.6459 26.1652 47.1871 26.249 47.5206 26.4814C48.0617 26.5652 48.3678 26.9741 48.8543 27.411C49.1605 27.8199 49.4666 28.2288 49.7454 28.8143C50.0515 29.2232 50.1499 29.7807 50.0952 30.1338C50.0405 30.4868 50.1389 31.0443 50.0843 31.3974C49.9476 32.2801 49.8383 32.9862 49.729 33.6923C49.6196 34.3984 49.1495 35.0487 48.8598 35.7269C48.8598 35.7269 48.8051 36.0799 48.5974 36.2285L48.5701 36.4051L48.2804 37.0833L48.1984 37.6129C48.1984 37.6129 47.7829 37.9101 47.5752 38.0587L47.4932 38.5883C47.4932 38.5883 46.87 39.0341 46.635 39.3592C45.7221 40.4832 44.8365 41.4306 43.7706 42.3502C42.7047 43.2697 41.666 44.0127 40.447 44.7278C35.7514 47.616 29.886 48.5155 24.764 46.9994C22.1128 46.2274 19.9317 44.8052 18.1934 42.9092C17.2204 42.0355 16.6355 41.0411 15.8702 40.0188C15.2853 39.0244 14.7004 38.03 14.1429 36.8591C13.1808 34.7218 12.5795 32.6403 12.3663 30.4381C11.9454 28.3846 11.8853 26.3869 12.0055 24.4171C12.0329 24.2406 12.0875 23.8875 12.1148 23.711C12.1148 23.711 12.1422 23.5345 12.1695 23.3579C12.1695 23.3579 12.1968 23.1814 12.2242 23.0049C12.2515 22.8284 12.3062 22.4753 12.3335 22.2988C12.3608 22.1222 12.4155 21.7692 12.4428 21.5926C12.5248 21.0631 12.5795 20.71 12.6615 20.1804C12.7435 19.6508 12.7982 19.2977 12.8528 18.9447C13.1261 17.1794 13.3721 15.5906 13.9789 14.0577C14.0336 13.7046 14.0882 13.3516 14.1429 12.9985C14.1975 12.6454 14.2522 12.2924 14.4873 11.9672C14.5146 11.7907 14.5419 11.6142 14.5693 11.4377C14.5693 11.4377 14.6239 11.0846 14.6513 10.9081C14.7059 10.555 14.7606 10.2019 14.9956 9.87681C15.5477 8.69696 15.9195 7.48917 16.4442 6.48585C16.4716 6.30932 16.5262 5.95625 16.734 5.80765C16.7613 5.63112 16.8159 5.27806 17.0237 5.12946C17.051 4.95293 17.1057 4.59987 17.3134 4.45127C17.3407 4.27474 17.3681 4.09821 17.5758 3.94961C17.6031 3.77308 17.6304 3.59654 17.8382 3.44794C17.8655 3.27141 17.8928 3.09488 18.1005 2.94628C18.1552 2.59322 18.5707 2.29602 18.598 2.11949C18.6253 1.94296 18.8604 1.61783 19.0681 1.46922C19.0954 1.29269 19.3032 1.14409 19.5109 0.995492C19.5382 0.818961 19.7459 0.670361 19.9263 0.69829C19.9263 0.69829 19.9263 0.69829 19.8443 1.22788C19.8443 1.22788 19.7897 1.58094 19.7623 1.75747C19.735 1.934 19.6803 2.28707 19.4726 2.43567C19.4179 2.78873 19.2102 2.93733 18.9752 3.26246C18.9752 3.26246 18.9205 3.61552 18.8932 3.79205C18.8658 3.96858 18.8385 4.14511 18.8112 4.32164C18.7838 4.49817 18.7565 4.67471 18.5215 4.99984C18.4941 5.17637 18.4668 5.3529 18.2317 5.67803C18.2044 5.85456 18.1497 6.20762 17.942 6.35622C17.9147 6.53275 17.86 6.88581 17.6523 7.03442C17.3079 8.06567 16.7831 9.06899 16.3841 10.4533C16.3294 10.8064 16.2748 11.1594 16.2201 11.5125C16.2201 11.5125 16.1654 11.8656 16.1381 12.0421C16.1381 12.0421 16.0834 12.3951 16.0561 12.5717C16.0015 12.9247 15.9468 13.2778 15.8921 13.6309C15.8375 13.9839 15.7828 14.337 15.7281 14.69C15.5095 16.1023 15.2635 17.6911 14.9902 19.4564C14.9355 19.8094 14.8535 20.339 14.7988 20.6921C14.7442 21.0451 14.6622 21.5747 14.6075 21.9278C14.4709 22.8105 14.5146 23.721 14.5583 24.6316C14.6458 26.4528 14.7059 28.4505 15.1541 30.3275C15.6024 32.2045 16.2037 34.286 17.04 36.0424C17.8491 37.9753 19.0462 39.7875 20.6861 41.1259C21.5061 41.7952 22.326 42.4644 23.3264 43.1616C23.5068 43.1895 23.8402 43.4219 23.9933 43.6264C23.9933 43.6264 24.1737 43.6543 24.354 43.6822C24.354 43.6822 24.5344 43.7102 24.7148 43.7381C24.8952 43.766 25.256 43.8219 25.409 44.0263C25.5894 44.0543 25.9502 44.1101 26.1306 44.1381C28.2406 44.8263 30.6404 44.8363 32.9144 44.4653C34.0514 44.2799 35.2157 43.9178 36.1997 43.5279C37.1836 43.138 38.3753 42.5994 39.4139 41.8564C41.4638 40.5469 43.1802 39.0051 44.771 37.0822C44.7983 36.9057 45.2137 36.6085 45.2411 36.4319C45.2957 36.0789 45.6838 35.9582 45.7385 35.6051L45.7932 35.2521L46.2086 34.9549L46.2633 34.6018C46.2633 34.6018 46.3179 34.2487 46.3453 34.0722C46.6077 33.5706 46.87 33.0689 46.952 32.5393C47.034 32.0097 47.116 31.4801 47.1707 31.1271C47.2527 30.5975 47.3074 30.2444 46.9739 30.012C46.9739 30.012 47.0012 29.8355 46.8209 29.8076C46.8209 29.8076 46.6405 29.7796 46.4601 29.7517C46.4601 29.7517 46.2797 29.7238 46.0993 29.6958C46.0993 29.6958 45.7385 29.64 45.5581 29.612C45.3777 29.5841 45.017 29.5283 44.8092 29.6769L44.4484 29.621L44.2407 29.7696C44.2407 29.7696 44.2407 29.7696 44.0603 29.7417C41.9394 30.3171 39.8895 31.6266 37.9927 33.1405C37.1344 33.9115 36.2489 34.8589 35.5437 35.8343C35.5164 36.0108 35.1009 36.308 35.0736 36.4846C35.0189 36.8376 34.8112 36.9862 34.5762 37.3114L34.5215 37.6644L34.1061 37.9616C34.0514 38.3147 33.8437 38.4633 33.6086 38.7884C33.6086 38.7884 33.6086 38.7884 33.5813 38.965L33.472 39.6711L33.4173 40.0241C33.4173 40.0241 33.1822 40.3493 33.0018 40.3213C32.9472 40.6744 32.9199 40.8509 32.6848 41.1761L32.6301 41.5291L32.5755 41.8822C32.5755 41.8822 32.3131 42.3839 32.078 42.709C32.0234 43.062 31.996 43.2386 31.761 43.5637L31.7063 43.9168C31.7063 43.9168 31.7063 43.9168 31.679 44.0933C31.679 44.0933 31.5423 44.9759 31.515 45.1525L31.4603 45.5055L31.3783 46.0351C31.3237 46.3882 31.2963 46.5647 31.2417 46.9178C31.187 47.2708 31.1597 47.4474 31.105 47.8004C31.0503 48.1535 31.023 48.33 30.9683 48.6831C30.8864 49.2127 30.777 49.9188 30.695 50.4484C30.6404 50.8015 30.613 50.978 30.5584 51.3311C30.5037 51.6841 30.4764 51.8606 30.4217 52.2137C30.2577 53.2729 30.4272 54.5645 30.4436 55.6516L30.3889 56.0046L30.3342 56.3577C30.2796 56.7108 30.2522 56.8873 30.378 57.2683C30.3506 57.4448 30.296 57.7979 30.449 58.0023C30.6021 58.2068 30.367 58.5319 30.5201 58.7364C30.7169 59.8514 30.9137 60.9665 31.3182 61.9329C31.6954 63.0759 31.9195 64.0144 32.324 64.9808C32.7285 65.9473 33.133 66.9137 33.5375 67.8802C33.5102 68.0567 33.8436 68.2891 33.789 68.6421C33.7616 68.8187 34.0951 69.0511 34.2208 69.4321C34.5269 69.841 34.6253 70.3985 34.9314 70.8074C34.9314 70.8074 34.9041 70.984 35.0572 71.1884C35.0572 71.1884 35.0298 71.3649 35.1829 71.5694C35.1556 71.7459 35.489 71.9783 35.6421 72.1828C35.6147 72.3593 35.9482 72.5917 36.1012 72.7962C36.0739 72.9727 36.4074 73.2051 36.5604 73.4095C36.5331 73.5861 36.8665 73.8185 37.0196 74.0229C37.0196 74.0229 36.9923 74.1995 37.1453 74.4039C37.1453 74.4039 37.118 74.5805 37.271 74.7849C37.5772 75.1938 37.8833 75.6028 38.1894 76.0117L38.1621 76.1882C38.1621 76.1882 38.1621 76.1882 38.3151 76.3927C38.3151 76.3927 38.6212 76.8016 38.7743 77.006C38.7743 77.006 39.0804 77.415 39.2335 77.6194C39.2335 77.6194 39.5396 78.0283 39.6927 78.2328C39.6927 78.2328 39.9988 78.6417 40.1518 78.8462C40.1518 78.8462 40.1518 78.8462 40.3049 79.0506C40.3049 79.0506 40.3049 79.0506 40.4579 79.2551C40.7641 79.664 41.0975 79.8964 41.4036 80.3053C41.7097 80.7142 42.0432 80.9466 42.3493 81.3556C42.3493 81.3556 42.6828 81.588 42.8358 81.7924C42.8358 81.7924 43.1693 82.0248 43.3223 82.2293C43.6558 82.4617 43.9619 82.8706 44.2953 83.103C44.2953 83.103 44.2953 83.103 44.4484 83.3074C44.4484 83.3074 44.4484 83.3074 44.6288 83.3354C44.6288 83.3354 44.9622 83.5677 45.1153 83.7722C45.4487 84.0046 45.7822 84.237 45.9079 84.618C46.2414 84.8504 46.5748 85.0828 46.7279 85.2872C47.3948 85.752 47.8813 86.1888 48.3678 86.6257C50.6746 88.429 52.7026 89.6468 54.3972 90.6322C54.5776 90.6601 54.758 90.688 55.0914 90.9204C55.0914 90.9204 55.2718 90.9484 55.4522 90.9763C55.4522 90.9763 55.6326 91.0042 55.813 91.0322C56.1738 91.088 56.4799 91.4969 56.8407 91.5528C56.8407 91.5528 57.2014 91.6087 57.3818 91.6366C57.3818 91.6366 57.7426 91.6924 57.923 91.7204C58.2838 91.7762 58.4642 91.8042 58.6172 92.0086C58.7976 92.0365 59.1584 92.0924 59.3115 92.2969C59.4918 92.3248 59.8526 92.3807 60.0057 92.5851C60.1861 92.613 60.5469 92.6689 60.6999 92.8734L61.0607 92.9292C61.0607 92.9292 61.2411 92.9572 61.3941 93.1616C61.7549 93.2175 62.2688 93.4778 62.6022 93.7102C62.7826 93.7381 62.963 93.766 63.3238 93.8219C63.5042 93.8498 63.6846 93.8778 64.0453 93.9336C64.2257 93.9615 64.4061 93.9895 64.7669 94.0453C64.9473 94.0733 65.1277 94.1012 65.4885 94.1571C65.8492 94.2129 66.3904 94.2967 66.7239 94.5291C67.0846 94.585 67.6258 94.6688 67.9593 94.9011L68.5004 94.9849C68.5004 94.9849 68.8612 95.0408 69.0143 95.2452C72.1793 96.2776 75.2186 96.9289 77.7441 97.3199C77.7441 97.3199 78.1048 97.3758 78.2852 97.4037C78.2852 97.4037 78.646 97.4596 78.8264 97.4875C79.1872 97.5434 79.3676 97.5713 79.7284 97.6271C80.2695 97.7109 80.8107 97.7947 81.3519 97.8785C81.5323 97.9064 81.893 97.9623 82.0734 97.9902C82.0734 97.9902 82.2538 98.0182 82.4342 98.0461C82.4342 98.0461 82.6146 98.074 82.795 98.1019C83.1558 98.1578 83.6969 98.2416 84.0577 98.2975C84.0577 98.2975 84.0577 98.2975 84.2381 98.3254C84.2381 98.3254 84.2381 98.3254 84.4185 98.3533C84.4185 98.3533 84.7793 98.4092 84.9597 98.4371C85.3205 98.493 85.5008 98.5209 85.6812 98.5488C86.042 98.6047 86.3755 98.8371 86.3481 99.0136L85.1893 101.726Z" fill="url(#paint0_linear_815_1253)"></path><path d="M70.2386 102.846C69.1563 102.678 67.8935 102.483 66.8112 102.315C66.8112 102.315 66.8112 102.315 66.6308 102.287C66.6308 102.287 66.27 102.232 66.0896 102.204L65.3681 102.092C65.3681 102.092 65.1877 102.064 65.0073 102.036C64.6465 101.98 64.2857 101.924 63.925 101.868C63.3838 101.785 63.023 101.729 62.5092 101.468C62.5092 101.468 62.5092 101.468 62.3288 101.441C62.3288 101.441 61.968 101.385 61.7876 101.357C61.6072 101.329 61.2464 101.273 61.066 101.245C60.8857 101.217 60.7053 101.189 60.5249 101.161C60.3445 101.133 60.1641 101.105 59.9837 101.077L59.4425 100.994C59.4425 100.994 58.956 100.557 58.5952 100.501C58.5952 100.501 58.5952 100.501 58.4149 100.473L58.0541 100.417C58.0541 100.417 57.5402 100.157 57.3872 99.9524C57.3872 99.9524 56.846 99.8686 56.6929 99.6641C56.6929 99.6641 56.3322 99.6083 56.1518 99.5803C56.1518 99.5803 56.1518 99.5803 55.9714 99.5524L55.1241 99.0597C55.1241 99.0597 54.9437 99.0318 54.7633 99.0038C54.7633 99.0038 54.5829 98.9759 54.4025 98.948C54.4025 98.948 54.4025 98.948 54.2221 98.9201C54.0418 98.8921 53.681 98.8363 53.5279 98.6318L52.9867 98.548L53.0141 98.3715C53.0141 98.3715 53.0141 98.3715 52.8337 98.3436C52.8337 98.3436 52.6533 98.3156 52.4729 98.2877C52.2925 98.2598 51.9591 98.0274 51.806 97.8229C50.8057 97.1257 49.778 96.6051 48.7776 95.9079C47.5969 95.1828 46.4435 94.2812 45.2901 93.3796C45.2901 93.3796 45.1097 93.3517 44.9566 93.1472C44.4701 92.7103 43.9836 92.2735 43.4971 91.8366L43.1363 91.7808C43.1363 91.7808 42.6772 91.1674 42.5241 90.9629C42.1907 90.7306 42.0376 90.5261 41.7042 90.2937L41.5238 90.2658C41.5238 90.2658 41.5511 90.0892 41.398 89.8848C41.398 89.8848 41.2177 89.8568 41.0646 89.6524C41.0646 89.6524 41.0646 89.6524 40.7311 89.42C40.7311 89.42 40.7311 89.42 40.5781 89.2155L40.2173 89.1597C40.2173 89.1597 39.7581 88.5463 39.6324 88.1653C39.6324 88.1653 39.299 87.9329 39.3263 87.7564C39.3263 87.7564 39.3263 87.7564 39.1732 87.5519C39.1732 87.5519 38.9928 87.524 38.8398 87.3195C38.8398 87.3195 38.6594 87.2916 38.5063 87.0871C38.1729 86.8548 38.0198 86.6503 37.7137 86.2414C37.5606 86.0369 37.4076 85.8325 37.0741 85.6001L36.5876 85.1632C36.5876 85.1632 36.5876 85.1632 36.2542 84.9308C36.2542 84.9308 36.0738 84.9029 35.9207 84.6984C35.9207 84.6984 35.9207 84.6984 35.7677 84.494C35.7677 84.494 35.6146 84.2895 35.4616 84.0851L35.0024 83.4717C35.0024 83.4717 34.8493 83.2672 34.6963 83.0627L34.2644 82.2728C34.2644 82.2728 34.1114 82.0684 33.9583 81.8639L34.013 81.5109C34.013 81.5109 33.6085 80.5444 33.3024 80.1355C33.3024 80.1355 33.3023 80.1355 33.3297 79.959C33.3297 79.959 33.357 79.7824 33.204 79.578C33.204 79.578 33.1056 79.0205 32.9252 78.9925C32.9525 78.816 32.6191 78.5836 32.466 78.3791C32.466 78.3791 32.1872 77.7937 32.2145 77.6172L32.0342 77.5892C32.0342 77.5892 31.9358 77.0317 31.7827 76.8273L31.8374 76.4742C31.8374 76.4742 31.4766 76.4183 31.5039 76.2418C31.5312 76.0653 31.2251 75.6563 31.0721 75.4519C31.0994 75.2754 30.766 75.043 30.6402 74.662L30.2084 73.8721C30.2084 73.8721 30.0827 73.4911 29.9023 73.4631C29.9023 73.4631 29.9296 73.2866 29.7765 73.0822C29.219 71.9113 28.8145 70.9448 28.4373 69.8018C28.0601 68.6589 27.6829 67.5159 27.3058 66.3729C26.9286 65.2299 26.7591 63.9384 26.5897 62.6468C26.617 62.4703 26.6717 62.1172 26.5186 61.9127C26.5733 61.5597 26.6006 61.3832 26.4749 61.0022C26.4749 61.0022 26.5295 60.6491 26.5842 60.296C26.5842 60.296 26.6115 60.1195 26.6389 59.943C26.6389 59.943 26.6935 59.5899 26.7209 59.4134C26.7209 59.4134 26.7482 59.2369 26.7755 59.0603C26.6607 57.4157 26.8247 56.3565 26.8357 55.0929C26.8357 55.0929 26.863 54.9163 26.8903 54.7398C26.9177 54.5633 26.945 54.3867 26.9996 54.0337L27.1636 52.9745C27.1636 52.9745 27.3003 52.0918 27.3823 51.5623C27.3823 51.5623 27.437 51.2092 27.4643 51.0327C27.4916 50.8561 27.5463 50.5031 27.5736 50.3265C27.5736 50.3265 27.5736 50.3265 27.601 50.15C27.2402 50.0942 27.0598 50.0662 26.699 50.0104C25.4636 49.6383 24.2555 49.0898 23.0748 48.3647C22.0745 47.6675 20.8937 46.9424 20.1284 45.9201C19.6419 45.4832 19.3358 45.0743 18.8766 44.4609C18.5705 44.052 18.1113 43.4386 17.8052 43.0297C17.2203 42.0353 16.6354 41.041 16.0778 39.8701C15.6733 38.9036 15.2962 37.7606 14.919 36.6177C14.6949 35.6792 14.3177 34.5362 14.3013 33.4491C14.0608 31.4235 13.8202 29.3978 13.9405 27.4281C13.9678 27.2515 13.9952 27.075 14.0225 26.8985C14.0225 26.8985 14.0498 26.7219 14.0772 26.5454C14.0772 26.5454 14.1045 26.3689 14.1318 26.1923C14.1592 26.0158 14.1865 25.8393 14.2138 25.6628L14.2412 25.4862C14.2412 25.4862 14.2958 25.1332 14.3232 24.9566C14.3232 24.9566 14.3778 24.6036 14.4052 24.427C14.4598 24.074 14.4871 23.8974 14.5418 23.5444L14.7331 22.3087C14.9791 20.7199 15.2251 19.1311 15.8592 17.4217C15.9139 17.0686 15.9685 16.7156 16.0232 16.3625C16.0505 16.186 16.1052 15.8329 16.1325 15.6564C16.1325 15.6564 16.1599 15.4798 16.1872 15.3033L16.2692 14.7737C16.2692 14.7737 16.3239 14.4207 16.3512 14.2441L16.4059 13.8911C16.4059 13.8911 16.4879 13.3615 16.6956 13.2129C17.275 11.8565 17.7998 10.8532 18.1442 9.82191L18.1988 9.46884L18.2535 9.11578C18.2535 9.11578 18.4886 8.79065 18.6963 8.64205C18.6963 8.64205 18.6963 8.64205 18.7236 8.46552L18.8329 7.7594L19.2484 7.4622C19.2484 7.4622 19.2484 7.4622 19.2757 7.28567C19.2757 7.28567 19.303 7.10913 19.3304 6.9326C19.3304 6.9326 19.4124 6.40301 19.6201 6.25441C19.6748 5.90135 20.0902 5.60415 20.1175 5.42762C20.1449 5.25109 20.3799 4.92596 20.5876 4.77735C20.5876 4.77735 20.8227 4.45222 21.0304 4.30362C21.0578 4.12709 21.2655 3.97849 21.4459 4.00642C21.4459 4.00642 21.4459 4.00642 21.3639 4.53601C21.3639 4.53601 21.3092 4.88907 21.2819 5.0656C21.2819 5.0656 21.2819 5.0656 21.2545 5.24213C21.2545 5.24213 21.1999 5.5952 21.1725 5.77173C21.1179 6.12479 20.9102 6.27339 20.6751 6.59852C20.6751 6.59852 20.6204 6.95158 20.5931 7.12811C20.5658 7.30464 20.5384 7.48117 20.5111 7.6577C20.5111 7.6577 20.5111 7.6577 20.4838 7.83423C20.4838 7.83423 20.4564 8.01076 20.4291 8.1873C20.4291 8.1873 20.3471 8.71689 20.3198 8.89342C20.3198 8.89342 20.2925 9.06995 20.2651 9.24648C20.2651 9.24648 20.2105 9.59954 20.1831 9.77607L20.0738 10.4822C19.5764 11.309 19.0516 12.3123 18.6252 13.8732C18.5705 14.2262 18.5159 14.5793 18.4612 14.9323C18.4612 14.9323 18.4065 15.2854 18.3792 15.4619L18.2972 15.9915C18.2972 15.9915 18.2699 16.1681 18.2426 16.3446C18.2152 16.5211 18.1606 16.8742 18.1332 17.0507C18.0786 17.4038 18.0239 17.7568 17.9692 18.1099C17.7232 19.6987 17.4773 21.2874 17.2313 22.8762L17.0399 24.1119C17.0399 24.1119 16.9579 24.6415 16.9033 24.9946C16.9033 24.9946 16.8486 25.3476 16.8213 25.5242C16.6846 26.4068 16.7284 27.3174 16.7721 28.228C16.8322 30.2257 16.9197 32.0469 17.3679 33.9239C17.592 34.8624 17.7888 35.9774 18.2207 36.7674C18.6252 37.7338 18.8493 38.6723 19.4342 39.6667C20.4236 41.6275 21.6207 43.4397 23.0803 44.7502C23.9002 45.4195 24.7202 46.0887 25.7205 46.7859C25.7205 46.7859 26.0813 46.8418 26.2344 47.0462C26.2344 47.0462 26.2344 47.0462 26.4148 47.0742C26.4148 47.0742 26.5951 47.1021 26.7755 47.13C26.7755 47.13 26.7755 47.13 26.9559 47.1579C26.9559 47.1579 27.3167 47.2138 27.4971 47.2417C27.4971 47.2417 27.6775 47.2697 27.8579 47.2976C27.8579 47.2976 28.399 47.3814 28.5794 47.4093C28.9402 47.4652 29.1206 47.4931 29.4814 47.549L29.5361 47.1959C29.5634 47.0194 29.618 46.6663 29.6454 46.4898L29.7 46.1367L29.782 45.6071C29.782 45.6071 29.8094 45.4306 30.0171 45.282C30.0444 45.1055 30.0718 44.9289 30.1264 44.5759L30.2631 43.6932L30.7059 43.2195C30.7059 43.2195 30.7332 43.043 30.7605 42.8664L30.8152 42.5134C30.8152 42.5134 31.0502 42.1882 31.258 42.0396C31.258 42.0396 31.2853 41.8631 31.3126 41.6866L31.3946 41.157L32.0451 40.5346C32.0998 40.1816 32.5152 39.8844 32.5426 39.7078C32.5426 39.7078 32.5699 39.5313 32.5972 39.3548L32.6792 38.8252C32.6792 38.8252 33.0947 38.528 33.3024 38.3794L33.3571 38.0263C33.3571 38.0263 33.5648 37.8777 33.7725 37.7291C33.7998 37.5526 34.0076 37.404 34.2426 37.0789C34.6854 36.6051 35.1555 35.9549 35.5983 35.4811C36.0411 35.0074 36.6642 34.5616 37.107 34.0879C37.7302 33.6421 38.1729 33.1683 38.7961 32.7225C39.4193 32.2767 40.0424 31.8309 40.6383 31.5616C42.0377 30.8745 43.4371 30.1874 44.7818 29.8533C44.7818 29.8533 44.7818 29.8533 44.9622 29.8812L45.1426 29.9091C45.1426 29.9091 45.323 29.9371 45.5033 29.965C45.8641 30.0209 46.4326 29.9281 46.8207 29.8074C47.3619 29.8912 47.7227 29.9471 48.0835 30.0029C48.0835 30.0029 49.1658 30.1705 49.4993 30.4029C50.0404 30.4867 50.5269 30.9236 50.8331 31.3325C51.1392 31.7414 51.4453 32.1503 51.7241 32.7358C51.8498 33.1168 51.9482 33.6743 52.0466 34.2318C51.9919 34.5849 52.0903 35.1424 52.0357 35.4954C51.9263 36.2016 51.7897 37.0842 51.6803 37.7903C51.571 38.4965 51.1009 39.1467 50.8112 39.8249C50.7839 40.0014 50.7565 40.178 50.5488 40.3266L50.4668 40.8562L50.3848 41.3858L49.7616 41.8316C49.7616 41.8316 49.7343 42.0081 49.707 42.1846L49.625 42.7142C49.625 42.7142 49.0292 42.9835 49.0018 43.16C49.0018 43.16 48.9745 43.3366 48.9472 43.5131C48.0343 44.6371 47.1487 45.5845 46.0828 46.5041C45.0168 47.4236 43.9782 48.1666 42.7592 48.8817C41.9557 49.2996 41.1521 49.7174 40.3485 50.1353C41.1521 49.7174 41.9557 49.2996 42.7592 48.8817C43.9782 48.1666 45.0168 47.4236 46.0828 46.5041C47.1487 45.5845 48.0343 44.6371 48.9472 43.5131C48.9472 43.5131 48.9745 43.3366 49.0018 43.16C49.0292 42.9835 49.2369 42.8349 49.4446 42.6863L49.5266 42.1567C49.5266 42.1567 49.9147 42.036 49.942 41.8595L50.024 41.3299L50.8823 40.559C50.8823 40.559 50.9642 40.0294 51.172 39.8808C51.6421 39.2305 51.9318 38.5523 52.0411 37.8462C52.1778 36.9635 52.4675 36.2854 52.3964 35.5513C52.4784 35.0217 52.5331 34.6686 52.4074 34.2877C52.4894 33.7581 52.1833 33.3491 52.0575 32.9682C51.7787 32.3827 51.4726 31.9738 51.1665 31.5649C50.8604 31.1559 50.3466 30.8956 49.8327 30.6353C49.2915 30.5515 48.7777 30.2912 48.4169 30.2353C48.0561 30.1795 47.515 30.0957 46.9738 30.0119C46.613 29.956 46.2522 29.9002 45.6564 30.1695C45.6564 30.1695 45.476 30.1415 45.2956 30.1136L45.1152 30.0857C45.1152 30.0857 45.1152 30.0857 44.9075 30.2343C43.5628 30.5683 42.1907 31.079 40.764 31.9426C40.1682 32.2119 39.545 32.6577 38.9218 33.1035C38.2987 33.5493 37.8559 34.0231 37.2327 34.4689C36.7899 34.9426 36.1668 35.3884 35.724 35.8621C35.2812 36.3359 34.8384 36.8096 34.3683 37.4599C34.341 37.6364 34.1333 37.785 33.8982 38.1101C33.8982 38.1101 33.8709 38.2866 33.8436 38.4632L33.7889 38.8162C33.7889 38.8162 33.3735 39.1134 33.1657 39.262L33.0837 39.7916C33.0837 39.7916 32.6956 39.9123 32.6683 40.0888C32.6136 40.4419 32.1982 40.7391 32.1709 40.9156L31.8811 41.5938L31.7991 42.1234L31.6187 42.0955C31.6187 42.0955 31.5914 42.272 31.5641 42.4485C31.5367 42.6251 31.5094 42.8016 31.3017 42.9502L31.247 43.3033C31.247 43.3033 31.247 43.3033 31.0666 43.2753C31.0666 43.2753 31.0393 43.4519 31.012 43.6284L30.93 44.158L30.4325 44.9848C30.4052 45.1613 30.3779 45.3378 30.3232 45.6909C30.3232 45.6909 30.2959 45.8674 30.2685 46.044L30.1866 46.5736C30.1866 46.5736 30.0772 47.2797 30.0226 47.6327L29.9679 47.9858C31.411 48.2092 32.8541 48.4327 34.3519 48.3031L34.4066 47.95L34.4613 47.5969C34.4613 47.5969 34.4886 47.4204 34.5159 47.2439C34.5433 47.0673 34.5706 46.8908 34.5979 46.7143C34.5979 46.7143 34.6799 46.1847 34.915 45.8596L34.9696 45.5065C34.9696 45.5065 34.997 45.33 35.2047 45.1814C35.2047 45.1814 35.314 44.4752 35.5217 44.3266C35.5217 44.3266 35.5491 44.1501 35.5764 43.9736L35.6311 43.6205L36.1012 42.9703L36.5986 42.1435L36.6259 41.9669L36.6806 41.6139C36.6806 41.6139 37.3038 41.1681 37.3584 40.815C37.3584 40.815 37.3858 40.6385 37.4131 40.4619C37.4131 40.4619 37.6482 40.1368 37.8559 39.9882C38.561 39.0128 39.4466 38.0653 40.3048 37.2944C41.163 36.5235 42.2017 35.7805 43.2129 35.214C44.2242 34.6475 45.2355 34.0811 46.3725 33.8956C46.3725 33.8956 46.3725 33.8956 46.5529 33.9235L46.7333 33.9514L47.1214 33.8308C47.4822 33.8866 47.6626 33.9145 47.8703 33.7659C48.0507 33.7939 48.2311 33.8218 48.4115 33.8497C48.4115 33.8497 48.5918 33.8777 48.7722 33.9056C48.7722 33.9056 48.9526 33.9335 49.133 33.9615C49.133 33.9615 49.133 33.9615 49.2861 34.1659C49.2587 34.3424 49.5375 34.9279 49.4829 35.281C49.4009 35.8106 49.3462 36.1636 49.2642 36.6932C49.1822 37.2228 48.9198 37.7245 48.6574 38.2261C48.6574 38.2261 48.6301 38.4026 48.6028 38.5792L48.5481 38.9322L48.4934 39.2853L48.078 39.5825C48.0507 39.759 47.8156 40.0842 47.6079 40.2328C47.6079 40.2328 47.3728 40.5579 47.1651 40.7065C47.1651 40.7065 47.1651 40.7065 47.1378 40.883C46.4326 41.8584 45.5471 42.8059 44.6888 43.5768C43.8306 44.3478 42.792 45.0908 41.7534 45.8338C40.7148 46.5768 39.7308 46.9667 38.5392 47.5053C37.5552 47.8952 36.3909 48.2572 35.2539 48.4427C34.7127 48.3589 34.2973 48.6561 33.7561 48.5723L33.6468 49.2785L33.5921 49.6315L33.5101 50.1611L33.3734 51.0438C33.3734 51.0438 33.3188 51.3968 33.2914 51.5734C33.2914 51.5734 33.2641 51.7499 33.2368 51.9264C33.2368 51.9264 33.2368 51.9264 33.2095 52.1029C33.1821 52.2795 33.1548 52.456 33.1275 52.6325C33.1275 52.6325 33.0728 52.9856 33.0455 53.1621C32.9908 53.5152 32.9088 54.0448 32.8541 54.3978L32.7175 55.2805C32.7175 55.2805 32.6628 55.6336 32.6355 55.8101C32.6355 55.8101 32.6081 55.9866 32.5808 56.1631C32.3895 57.3989 32.5589 58.6904 32.6027 59.601C32.6027 59.601 32.5753 59.7775 32.548 59.9541C32.548 59.9541 32.5207 60.1306 32.4933 60.3071C32.4933 60.3071 32.466 60.4837 32.4387 60.6602C32.4387 60.6602 32.384 61.0133 32.3567 61.1898C32.3294 61.3663 32.2747 61.7194 32.4277 61.9238C32.4004 62.1004 32.3731 62.2769 32.4988 62.6579C32.6956 63.7729 32.9197 64.7115 33.2969 65.8544C33.521 66.7929 33.8982 67.9359 34.3027 68.9023C34.7072 69.8688 35.1117 70.8352 35.5162 71.8017L35.7677 72.5637C35.7677 72.5637 36.0738 72.9726 36.0465 73.1491C36.0465 73.1491 36.3253 73.7346 36.6314 74.1435L36.5767 74.4965L36.9375 74.5524C36.9375 74.5524 36.9375 74.5524 36.9102 74.7289C36.9102 74.7289 36.8828 74.9055 36.8555 75.082L37.3147 75.6954C37.3147 75.6954 37.4677 75.8998 37.6208 76.1043C37.6208 76.1043 37.7192 76.6618 37.8722 76.8663C37.8722 76.8663 38.151 77.4517 38.3041 77.6562C38.3041 77.6562 38.3041 77.6562 38.4571 77.8607C38.4571 77.8607 38.4571 77.8606 38.4298 78.0372C38.7359 78.4461 39.042 78.855 39.3482 79.2639L39.3208 79.4405C39.3208 79.4405 39.3208 79.4405 39.4739 79.6449C39.4739 79.6449 39.6269 79.8494 39.78 80.0538L40.0861 80.4628C40.0861 80.4628 40.2392 80.6672 40.3922 80.8717L40.5726 80.8996C40.5726 80.8996 40.6984 81.2806 40.8514 81.4851C40.8514 81.4851 41.1575 81.894 41.3106 82.0985L41.491 82.1264C41.491 82.1264 41.4363 82.4794 41.5894 82.6839C41.7698 82.7118 41.8955 83.0928 42.0485 83.2973L42.3547 83.7062C42.3547 83.7062 42.8412 84.1431 42.9942 84.3475C42.9942 84.3475 43.1746 84.3754 43.1473 84.552C43.1473 84.552 43.3003 84.7564 43.4534 84.9609C43.4534 84.9609 43.4534 84.9609 43.4261 85.1374C43.4261 85.1374 43.5791 85.3419 43.7322 85.5463C43.7322 85.5463 44.1914 86.1597 44.5248 86.3921C44.5248 86.3921 44.4975 86.5687 44.6779 86.5966C44.6779 86.5966 45.0113 86.829 45.1644 87.0334C45.1644 87.0334 45.6236 87.6468 45.957 87.8792L46.3178 87.9351C46.3178 87.9351 46.5966 88.5205 46.777 88.5484C47.2635 88.9853 47.7773 89.2456 48.0834 89.6545C48.0834 89.6545 48.2638 89.6825 48.4169 89.8869C50.3902 91.4578 52.2379 92.6477 54.4463 93.8934L55.1678 94.0051C55.1678 94.0051 55.2936 94.3861 55.4739 94.414C55.4739 94.414 55.4739 94.414 55.6543 94.442C56.0151 94.4978 56.3212 94.9068 56.682 94.9626C56.682 94.9626 56.682 94.9626 56.8624 94.9905C56.8624 94.9905 57.0428 95.0185 57.2232 95.0464C57.2232 95.0464 57.4036 95.0743 57.584 95.1023L57.7644 95.1302C57.9447 95.1581 58.1251 95.1861 58.3055 95.214C58.3055 95.214 58.3055 95.214 58.4859 95.2419L58.8467 95.2978C58.8467 95.2978 59.0271 95.3257 59.2075 95.3536C59.2075 95.3536 59.3879 95.3816 59.5683 95.4095C59.5683 95.4095 59.929 95.4653 60.2625 95.6977L60.6233 95.7536C60.6233 95.7536 60.6233 95.7536 60.8037 95.7815L60.9841 95.8095C60.9841 95.8095 61.6783 96.0977 62.0117 96.3301C62.0117 96.3301 62.3725 96.386 62.5529 96.4139C62.7333 96.4418 62.9137 96.4697 63.2745 96.5256C63.2745 96.5256 63.4549 96.5535 63.6352 96.5815L63.996 96.6373L64.3568 96.6932C64.3568 96.6932 64.3568 96.6932 64.5372 96.7211L65.0784 96.8049C65.0784 96.8049 65.5922 97.0652 65.7726 97.0931C65.953 97.1211 66.3138 97.1769 66.4942 97.2049C66.4942 97.2049 66.8549 97.2607 67.0353 97.2887L67.5765 97.3724C67.5765 97.3724 67.7569 97.4004 67.9373 97.4283C67.9373 97.4283 67.9373 97.4283 68.1177 97.4562C69.7139 97.8841 71.1296 98.2841 72.7258 98.712C74.1689 98.9354 75.4043 99.3075 76.8475 99.5309C76.8475 99.5309 77.0279 99.5588 77.2082 99.5868C77.2082 99.5868 77.569 99.6426 77.7494 99.6706C77.9298 99.6985 78.2906 99.7543 78.471 99.7823C78.471 99.7823 79.1925 99.894 79.5533 99.9499C79.7337 99.9778 79.9141 100.006 80.0945 100.034C80.2749 100.062 80.6357 100.117 80.8161 100.145C80.8161 100.145 80.9964 100.173 81.1768 100.201C81.1768 100.201 81.3572 100.229 81.5376 100.257C81.8984 100.313 82.4396 100.397 82.8003 100.453L82.9807 100.481L83.1611 100.508C83.1611 100.508 83.5219 100.564 83.7023 100.592C84.0631 100.648 84.2435 100.676 84.4239 100.704C84.7846 100.76 85.1181 100.992 85.0908 101.169C85.0908 101.169 85.0361 101.522 84.4676 101.615C84.4676 101.615 84.0795 101.735 83.6914 101.856C83.6914 101.856 83.3306 101.8 83.3033 101.977L83.1229 101.949C83.1229 101.949 83.1229 101.949 82.9151 102.097C82.9151 102.097 82.1389 102.339 81.5977 102.255C81.5977 102.255 81.5977 102.255 81.4174 102.227C81.4174 102.227 81.237 102.199 81.0566 102.171C80.8762 102.143 80.5154 102.087 80.3077 102.236C80.3077 102.236 80.1273 102.208 79.9469 102.18C79.5861 102.124 79.0176 102.217 78.4491 102.31C78.0883 102.254 77.9079 102.226 77.5472 102.17C77.5472 102.17 77.3668 102.142 77.1864 102.114C77.1864 102.114 77.006 102.086 76.8256 102.058C75.3551 102.011 73.8847 101.964 72.2612 101.713C71.72 101.629 71.1788 101.545 70.4573 101.434L70.2386 102.846ZM25.5565 47.8451C25.5565 47.8451 25.5565 47.8451 25.5292 48.0216C25.5019 48.1981 25.4472 48.5512 25.4199 48.7277C25.4199 48.7277 25.3652 49.0808 25.3379 49.2573C25.2559 49.7869 25.2012 50.14 25.1192 50.6696L24.9552 51.7288C24.9552 51.7288 24.9006 52.0818 24.8459 52.4349C24.8459 52.4349 24.8186 52.6114 24.7912 52.7879C24.6272 53.8471 24.6163 55.1108 24.7311 56.7554C24.7311 56.7554 24.7038 56.9319 24.6764 57.1085C24.6764 57.1085 24.6764 57.1085 24.6491 57.285C24.6491 57.285 24.5944 57.6381 24.5671 57.8146C24.5398 57.9911 24.5124 58.1676 24.4851 58.3442C24.4851 58.3442 24.4031 58.8738 24.5288 59.2548C24.5015 59.4313 24.4468 59.7844 24.5999 59.9888C24.7694 61.2804 25.1465 62.4234 25.316 63.7149C25.6932 64.8579 26.0704 66.0009 26.4475 67.1439C26.8247 68.2868 27.2292 69.2533 27.7868 70.4242C27.7868 70.4242 27.7595 70.6007 27.9125 70.8052C27.9125 70.8052 28.0382 71.1862 28.2186 71.2141L28.6505 72.004C28.6505 72.004 28.9566 72.4129 29.0823 72.7939C29.055 72.9704 29.3611 73.3794 29.5142 73.5838C29.5142 73.5838 29.5142 73.5838 29.4868 73.7603L29.4322 74.1134C29.4322 74.1134 29.946 74.3737 29.9187 74.5503L30.0991 74.5782C30.0991 74.5782 30.3505 75.3402 30.3232 75.5167C30.3232 75.5167 30.602 76.1022 30.755 76.3066C30.755 76.3066 30.8807 76.6876 31.0338 76.8921C31.0338 76.8921 30.9791 77.2451 31.1595 77.2731C31.1595 77.2731 31.1322 77.4496 31.1049 77.6261C31.411 78.035 31.5367 78.416 31.8702 78.6484L31.8155 79.0015C31.8155 79.0015 31.9412 79.3825 32.1216 79.4104L32.5808 80.0238C32.5808 80.0238 32.7065 80.4048 32.8596 80.6092L33.3187 81.2226C33.3187 81.2226 33.4718 81.4271 33.6249 81.6315C33.6249 81.6315 33.6249 81.6315 33.7779 81.836C33.7779 81.836 33.9583 81.8639 34.1114 82.0684C34.1114 82.0684 34.2918 82.0963 34.4448 82.3008L34.9313 82.7376C34.9313 82.7376 35.2374 83.1465 35.5709 83.3789C35.7239 83.5834 36.0301 83.9923 36.3635 84.2247C36.3635 84.2247 36.5439 84.2526 36.697 84.4571C36.697 84.4571 36.8774 84.485 37.0304 84.6895C37.0304 84.6895 37.0304 84.6895 37.1835 84.8939C37.1835 84.8939 37.5169 85.1263 37.4896 85.3029C37.6426 85.5073 37.9761 85.7397 38.1292 85.9442L38.4899 86C38.4899 86 38.4353 86.3531 38.5883 86.5576C38.5883 86.5576 38.7687 86.5855 38.9218 86.7899C38.9218 86.7899 39.1022 86.8179 39.2552 87.0223C39.2552 87.0223 39.2552 87.0223 39.4083 87.2268L39.5887 87.2547C39.5887 87.2547 40.0478 87.8681 40.3813 88.1005C40.5617 88.1284 40.8678 88.5373 41.0482 88.5653L41.409 88.6211C41.409 88.6211 42.3547 89.6714 42.8412 90.1082C42.8412 90.1082 43.0216 90.1361 43.1746 90.3406C44.328 91.2422 45.4814 92.1439 46.6622 92.869C47.6625 93.5661 48.6629 94.2633 49.6905 94.7839C49.8709 94.8119 50.2044 95.0443 50.3574 95.2487C50.3574 95.2487 50.5378 95.2766 50.7182 95.3046C50.7182 95.3046 50.7182 95.3046 50.8986 95.3325L51.4398 95.4163C51.4398 95.4163 51.9263 95.8532 52.0793 96.0576C52.0793 96.0576 52.0793 96.0576 52.2597 96.0855C52.2597 96.0855 52.4401 96.1135 52.6205 96.1414C52.6205 96.1414 52.8009 96.1693 52.9813 96.1973L53.8286 96.69C53.8286 96.69 53.8286 96.69 54.009 96.7179C54.009 96.7179 54.3697 96.7738 54.5501 96.8017C54.7305 96.8296 55.0913 96.8855 55.2444 97.0899C55.2444 97.0899 55.7855 97.1737 55.9386 97.3782L56.2994 97.434C56.2994 97.434 56.2994 97.434 56.4798 97.462C56.8405 97.5178 57.0209 97.5458 57.3544 97.7782L57.8955 97.8619C57.8955 97.8619 58.229 98.0943 58.4094 98.1223C58.4094 98.1223 58.7702 98.1781 58.9506 98.206C59.1309 98.234 59.4917 98.2898 59.6721 98.3178C59.6721 98.3178 60.0329 98.3736 60.2133 98.4016C60.2133 98.4016 60.2133 98.4016 60.3937 98.4295C60.3937 98.4295 61.2956 98.5691 61.8095 98.8295C62.1703 98.8853 62.531 98.9412 62.8918 98.997C62.8918 98.997 63.0722 99.025 63.2526 99.0529L63.9742 99.1646C63.9742 99.1646 64.3349 99.2205 64.5153 99.2484C64.5153 99.2484 64.5153 99.2484 64.6957 99.2763C66.4996 99.5556 68.1231 99.807 69.7466 100.058C71.3702 100.31 72.8406 100.357 74.3111 100.404C74.3111 100.404 74.4915 100.431 74.6719 100.459C74.6719 100.459 74.8522 100.487 75.0326 100.515C75.0326 100.515 75.5738 100.599 75.9619 100.478C76.5031 100.562 76.8912 100.441 77.4597 100.349C77.4597 100.349 77.6401 100.377 77.8205 100.405C78.0009 100.433 78.3617 100.488 78.5694 100.34C78.5694 100.34 78.7498 100.368 78.9302 100.396C78.9302 100.396 78.9302 100.396 79.1105 100.424C79.1105 100.424 80.0672 100.21 80.4553 100.09C80.4553 100.09 80.4553 100.09 80.6357 100.117L80.8161 100.145C80.8161 100.145 81.2042 100.025 81.2315 99.8482C81.4119 99.8761 81.8 99.7554 82.0077 99.6068C82.3958 99.4861 82.6036 99.3375 82.6309 99.161C82.6309 99.161 82.5052 98.78 81.964 98.6962C81.7836 98.6683 81.4228 98.6124 81.2424 98.5845C81.2424 98.5845 80.8817 98.5287 80.7013 98.5007L80.5209 98.4728L80.3405 98.4449C79.9797 98.389 79.7993 98.3611 79.4385 98.3052L79.2581 98.2773C79.2581 98.2773 79.0778 98.2494 78.8974 98.2214C78.8974 98.2214 78.717 98.1935 78.5366 98.1656C78.3562 98.1376 77.9954 98.0818 77.815 98.0538C77.6346 98.0259 77.4542 97.998 77.2738 97.9701C76.9131 97.9142 76.5523 97.8583 76.1915 97.8025C76.1915 97.8025 75.6503 97.7187 75.4699 97.6908C75.4699 97.6908 75.1092 97.6349 74.9288 97.607C74.9288 97.607 74.7484 97.579 74.568 97.5511C73.1249 97.3277 71.8621 97.1322 70.4463 96.7322C68.8228 96.4808 67.254 95.8764 65.8382 95.4764C65.8382 95.4764 65.8382 95.4764 65.6578 95.4485C65.6578 95.4485 65.4774 95.4206 65.297 95.3927L64.7559 95.3089C64.7559 95.3089 64.3951 95.253 64.242 95.0485C64.0616 95.0206 63.7008 94.9648 63.5205 94.9368C63.3401 94.9089 62.9793 94.853 62.7989 94.8251L62.2577 94.7413C62.2577 94.7413 62.2577 94.7413 62.0773 94.7134L61.7165 94.6575L61.3558 94.6017C61.3558 94.6017 61.1754 94.5737 60.995 94.5458C60.8146 94.5179 60.6342 94.49 60.2734 94.4341C60.2734 94.4341 59.9126 94.3782 59.7323 94.3503C59.3715 94.2944 59.038 94.0621 58.7046 93.8297L58.5242 93.8017C58.5242 93.8017 58.5242 93.8017 58.3438 93.7738L57.983 93.718C57.983 93.718 57.6496 93.4856 57.3161 93.2532C57.3161 93.2532 57.1357 93.2252 56.9553 93.1973C56.9553 93.1973 56.7749 93.1694 56.5946 93.1415L56.2338 93.0856C56.2338 93.0856 56.2338 93.0856 56.0534 93.0577C56.0534 93.0577 55.6926 93.0018 55.5122 92.9739L55.3318 92.9459C55.3318 92.9459 55.1514 92.918 54.971 92.8901C54.971 92.8901 54.7907 92.8622 54.6103 92.8342C54.6103 92.8342 54.6103 92.8342 54.4299 92.8063C54.0691 92.7504 53.7356 92.518 53.4022 92.2857C53.4022 92.2857 53.4022 92.2857 53.2218 92.2577C53.2218 92.2577 53.0414 92.2298 52.861 92.2019L52.1395 92.0901C49.9857 90.4913 47.9577 89.2735 46.1647 87.7306C46.1647 87.7306 45.9843 87.7027 45.8313 87.4982C45.3448 87.0614 44.8309 86.801 44.5248 86.3921C44.3444 86.3642 44.1914 86.1597 44.0383 85.9553L43.6775 85.8994C43.6775 85.8994 43.2457 85.1095 42.9122 84.8771C42.9122 84.8771 42.5788 84.6447 42.4257 84.4403C42.4257 84.4403 42.4257 84.4403 42.2453 84.4123C42.2453 84.4123 42.2453 84.4123 42.2727 84.2358C41.9392 84.0034 41.7862 83.7989 41.48 83.39C41.48 83.39 41.327 83.1856 41.1739 82.9811C41.1739 82.9811 41.0482 82.6001 40.8678 82.5722C40.8678 82.5722 40.6874 82.5443 40.7148 82.3677C40.5617 82.1633 40.2282 81.9309 40.0752 81.7264L39.7691 81.3175C39.7691 81.3175 39.463 80.9086 39.3099 80.7041C39.3099 80.7041 39.3099 80.7041 39.1568 80.4997L38.9764 80.4717C38.9764 80.4717 38.6977 79.8863 38.5446 79.6818C38.5446 79.6818 38.3915 79.4774 38.2385 79.2729L38.0581 79.245C38.0581 79.245 37.9324 78.864 37.7793 78.6595L37.4732 78.2506C37.4732 78.2506 37.3201 78.0461 37.1671 77.8417C37.1671 77.8417 37.1671 77.8417 37.014 77.6372L37.0414 77.4607C36.7352 77.0518 36.4291 76.6428 36.123 76.2339C36.123 76.2339 36.1503 76.0574 35.9973 75.8529C36.0246 75.6764 35.6912 75.444 35.5381 75.2396C35.5381 75.2396 35.4124 74.8586 35.2593 74.6541C35.2593 74.6541 35.1609 74.0966 34.9805 74.0686L34.5214 73.4553C34.5214 73.4553 34.5214 73.4553 34.5487 73.2787C34.5487 73.2787 34.576 73.1022 34.6034 72.9257L34.658 72.5726C34.658 72.5726 34.0185 71.9313 33.8927 71.5503C33.8927 71.5503 33.5866 71.1414 33.6413 70.7883L33.3898 70.0263C32.9853 69.0599 32.5808 68.0935 32.1763 67.127C31.7718 66.1606 31.3946 65.0176 31.1705 64.0791C30.7933 62.9361 30.5692 61.9976 30.3724 60.8826C30.3997 60.706 30.4271 60.5295 30.3013 60.1485C30.3287 59.972 30.3833 59.6189 30.2303 59.4145C30.2303 59.4145 30.2849 59.0614 30.3123 58.8849C30.3123 58.8849 30.3396 58.7083 30.3669 58.5318L30.4216 58.1787C30.4216 58.1787 30.4489 58.0022 30.4763 57.8257C30.4325 56.9151 30.4435 55.6515 30.4544 54.3878C30.4544 54.3878 30.4817 54.2113 30.5091 54.0348C30.5091 54.0348 30.5637 53.6817 30.5911 53.5052L30.7277 52.6225C30.7277 52.6225 30.8644 51.7399 30.919 51.3868C30.919 51.3868 30.9737 51.0337 31.001 50.8572C31.0284 50.6807 31.0557 50.5041 31.083 50.3276C31.083 50.3276 31.083 50.3276 31.1104 50.1511C31.1104 50.1511 31.1377 49.9745 31.165 49.798C30.8042 49.7422 30.4435 49.6863 29.9023 49.6025C28.82 49.4349 27.918 49.2953 26.8357 49.1277L25.5565 47.8451ZM25.5565 47.8451C25.5565 47.8451 26.6389 48.0127 27.18 48.0965C28.082 48.2361 28.9839 48.3757 29.9132 48.3389C29.9132 48.3389 29.9679 47.9858 29.9952 47.8093L30.1319 46.9266L30.2139 46.397L30.2685 46.044L30.3779 45.3378C29.2409 45.5233 27.9781 45.3278 26.8958 45.1602C26.7154 45.1323 26.3546 45.0765 26.1742 45.0485L26.1196 45.4016L26.0376 45.9312C26.0376 45.9312 25.9556 46.4608 25.9282 46.6373L25.7369 47.873L25.5565 47.8451ZM20.1777 1.46016C20.1777 1.46016 20.1777 1.46016 19.7622 1.75736C19.7622 1.75736 19.7076 2.11042 19.3194 2.23109C19.3194 2.23109 19.0844 2.55622 18.8493 2.88135C18.822 3.05788 18.587 3.38301 18.3519 3.70815C18.3519 3.70815 18.2972 4.06121 18.0895 4.20981C18.0895 4.20981 18.0348 4.56287 18.0075 4.7394C18.0075 4.7394 18.0075 4.7394 17.9802 4.91593L17.9255 5.26899L17.8162 5.97512C17.8162 5.97512 17.4554 5.91926 17.4281 6.09579C17.4281 6.09579 17.3734 6.44885 17.3461 6.62538L17.2914 6.97844L17.0564 7.30357C16.5589 8.13036 16.1872 9.33815 15.6078 10.6945C15.5804 10.8711 15.5258 11.2241 15.4984 11.4007L15.4438 11.7537C15.4438 11.7537 15.3891 12.1068 15.3618 12.2833L15.2798 12.8129C15.2798 12.8129 15.2525 12.9894 15.2251 13.166C15.1978 13.3425 15.1431 13.6956 15.1158 13.8721C15.0611 14.2251 15.0065 14.5782 14.9518 14.9313C12.9019 16.2407 12.6286 18.0061 12.3826 19.5948L12.1913 20.8305C12.1913 20.8305 12.1093 21.3601 12.0546 21.7132C12.0546 21.7132 12 22.0663 11.9726 22.2428C11.9453 22.4193 11.918 22.5959 11.8906 22.7724C11.8906 22.7724 11.8086 23.302 11.7813 23.4785C11.7813 23.4785 11.754 23.655 11.7266 23.8316C11.7266 23.8316 11.6993 24.0081 11.672 24.1846L11.6446 24.3612C11.6173 24.5377 11.59 24.7142 11.5626 24.8907C11.4424 26.8605 11.6556 29.0627 11.9234 30.9118C12.1202 32.0268 12.317 33.1419 12.5411 34.0804C12.9183 35.2233 13.3228 36.1898 13.7 37.3328C14.2575 38.5037 14.6621 39.4701 15.4273 40.4924C15.7061 41.0778 16.1926 41.5147 16.4988 41.9236C16.9853 42.3605 17.264 42.9459 17.7506 43.3828C19.6692 45.3067 21.8503 46.729 24.3211 47.473C24.6819 47.5289 24.8623 47.5568 25.2231 47.6127L25.3871 46.5535L25.4144 46.377C25.4417 46.2005 25.4964 45.8474 25.5237 45.6709L25.6057 45.1413C25.245 45.0854 25.0646 45.0575 24.7038 45.0016C24.5234 44.9737 24.1626 44.9178 23.9822 44.8899C23.9822 44.8899 23.8018 44.862 23.6214 44.834C23.6214 44.834 23.2607 44.7782 23.0803 44.7502C23.0803 44.7502 23.0803 44.7502 22.8999 44.7223C22.8999 44.7223 22.7195 44.6944 22.5391 44.6665C22.5391 44.6665 22.5391 44.6665 22.3587 44.6385C22.3587 44.6385 21.9979 44.5827 21.8449 44.3782C20.9976 43.8855 19.9972 43.1883 19.2046 42.3426C17.7451 41.032 16.548 39.2198 15.5585 37.259C15.154 36.2925 14.7495 35.3261 14.345 34.3597C14.1209 33.4211 13.7164 32.4547 13.4923 31.5162C13.044 29.6392 12.9566 27.818 12.8964 25.8203C13.0331 24.9377 12.9894 24.0271 12.9456 23.1165C12.9456 23.1165 13.0003 22.7634 13.0276 22.5869C13.055 22.4104 13.1096 22.0573 13.1643 21.7042L13.3556 20.4685C13.6016 18.8798 13.8476 17.291 14.0936 15.7022C14.1482 15.3491 14.2029 14.9961 14.2576 14.643C14.2849 14.4665 14.3396 14.1134 14.3669 13.9369C14.3669 13.9369 14.3942 13.7604 14.4216 13.5838L14.5036 13.0542C14.5036 13.0542 14.5582 12.7012 14.5856 12.5247C14.6402 12.1716 14.6949 11.8185 14.7495 11.4655C15.1486 10.0812 15.6734 9.07783 16.0177 8.04658L16.1271 7.34045C16.1271 7.34045 16.3621 7.01532 16.5699 6.86672C16.5699 6.86672 16.5972 6.69019 16.6245 6.51366L16.6792 6.1606C16.6792 6.1606 16.7612 5.63101 16.7885 5.45448C16.7885 5.45448 16.7885 5.45448 16.8158 5.27794C16.8432 5.10141 16.8705 4.92488 16.8978 4.74835C16.9252 4.57182 16.9525 4.39529 16.9798 4.21876C17.0345 3.8657 17.2696 3.54057 17.4773 3.39197C17.5046 3.21544 17.5319 3.03891 17.5593 2.86238C17.5593 2.86238 17.5593 2.86238 17.5866 2.68585C17.6139 2.50931 17.6413 2.33278 17.6686 2.15625C17.7233 1.80319 17.7506 1.62666 17.7506 1.62666L20.1777 1.46016ZM46.0172 30.2253C46.0172 30.2253 45.6564 30.1695 45.476 30.1415C45.2956 30.1136 45.1152 30.0857 44.7271 30.2063L44.3663 30.1505L44.1586 30.2991C44.1586 30.2991 44.1586 30.2991 43.9782 30.2711C42.8139 30.6332 41.8299 31.0231 40.8187 31.5896C39.8074 32.1561 38.9492 32.927 37.9106 33.67C37.0523 34.4409 36.1668 35.3884 35.4616 36.3638C35.4616 36.3638 35.2266 36.6889 35.0188 36.8375C35.0188 36.8375 34.9915 37.014 34.9642 37.1906C34.9095 37.5436 34.7018 37.6922 34.4667 38.0174L34.4121 38.3704C34.4121 38.3704 34.0513 38.3146 34.024 38.4911L33.5265 39.3179L33.4172 40.024L33.3625 40.3771C33.3625 40.3771 33.3625 40.3771 33.1821 40.3492C33.1821 40.3492 33.1548 40.5257 33.1275 40.7022C33.1001 40.8787 33.0728 41.0553 32.8377 41.3804L32.7831 41.7335C32.7831 41.7335 32.7558 41.91 32.7284 42.0865L32.6738 42.4396C32.6738 42.4396 32.4114 42.9413 32.1763 43.2664C32.1763 43.2664 32.1217 43.6194 32.0943 43.796C32.0943 43.796 32.067 43.9725 32.0397 44.149L31.985 44.5021L31.9303 44.8552C31.9303 44.8552 32.8596 44.8183 33.4281 44.7255C34.5651 44.5401 35.7295 44.178 36.7134 43.7881C37.6974 43.3982 38.889 42.8596 39.9276 42.1166C40.9389 41.5501 41.7971 40.7792 42.8631 39.8597C43.7213 39.0887 44.6069 38.1413 45.312 37.1659C45.312 37.1659 45.312 37.1659 45.3394 36.9893C45.3394 36.9893 45.5744 36.6642 45.7821 36.5156C45.7821 36.5156 46.0445 36.0139 46.2796 35.6888L46.3342 35.3357L46.9847 34.7134C46.9847 34.7134 47.0394 34.3604 47.0667 34.1838C47.3291 33.6822 47.5915 33.1805 47.6735 32.6509C47.7555 32.1213 47.8375 31.5917 47.8922 31.2387C47.9468 30.8856 48.0288 30.356 47.6954 30.1236C47.6954 30.1236 47.7227 29.9471 47.5423 29.9192C47.5423 29.9192 47.3619 29.8912 47.1815 29.8633C47.1815 29.8633 47.0011 29.8354 46.8207 29.8074L46.0172 30.2253Z" fill="url(#paint1_linear_815_1253)"></path><path d="M96.273 101.823L77.673 88.6576L81.1848 100.079L75.5707 111.273L96.273 101.823Z" fill="url(#paint2_linear_815_1253)"></path><defs><linearGradient id="paint0_linear_815_1253" x1="13.8834" y1="12.2884" x2="101.565" y2="32.5271" gradientUnits="userSpaceOnUse"><stop stop-color="#513DE8"></stop><stop offset="1" stop-color="#8366E3"></stop></linearGradient><linearGradient id="paint1_linear_815_1253" x1="13.411" y1="12.9529" x2="100.541" y2="33.0135" gradientUnits="userSpaceOnUse"><stop stop-color="#513DE8"></stop><stop offset="1" stop-color="#8366E3"></stop></linearGradient><linearGradient id="paint2_linear_815_1253" x1="76.4438" y1="91.6443" x2="97.784" y2="94.1241" gradientUnits="userSpaceOnUse"><stop stop-color="#513DE8"></stop><stop offset="1" stop-color="#8366E3"></stop></linearGradient></defs></svg>