<?xml version="1.0" encoding="utf-8"?>
<!-- Generator: Adobe Illustrator 24.0.1, SVG Export Plug-In . SVG Version: 6.00 Build 0)  -->
<svg width="111" height="115" version="1.1" id="Layer_1" xmlns="http://www.w3.org/2000/svg" xmlns:xlink="http://www.w3.org/1999/xlink" x="0px" y="0px"
	 viewBox="0 0 111 115" style="enable-background:new 0 0 111 115;" xml:space="preserve">
<style type="text/css">
	.st0{fill:url(#SVGID_1_);}
	.st1{fill:url(#SVGID_2_);}
	.st2{fill:url(#SVGID_3_);}
</style>
<linearGradient id="SVGID_1_" gradientUnits="userSpaceOnUse" x1="11.9508" y1="51.7892" x2="86.3497" y2="51.7892">
	<stop  offset="0" style="stop-color:#F24E1A"/>
	<stop  offset="1" style="stop-color:#F28A25"/>
</linearGradient>
<path class="st0" d="M85.2,101.7c0,0-0.1,0.4-0.6,0.4c0,0-0.4,0.1-0.8,0.2c0,0-0.4-0.1-0.4,0.1l-0.2,0c0,0,0,0-0.2,0.1
	c-0.4-0.1-0.8,0.2-1.3,0.2c0,0-0.2,0-0.4-0.1c0,0-0.2,0-0.4-0.1c-0.2,0-0.5-0.1-0.7,0.1c-0.5-0.1-1.1,0.2-1.7,0.1
	c-0.4-0.1-0.5-0.1-0.9-0.1c0,0-0.4-0.1-0.5-0.1c0,0-0.4-0.1-0.5-0.1c-2.8-0.1-6-0.4-9.6-1.1c-0.2,0-0.5-0.1-0.7-0.1l-0.7-0.1
	c0,0-0.9-0.1-1.4-0.4c-0.5-0.1-0.9-0.1-1.4-0.4c-0.2,0-0.5-0.1-0.7-0.1c-0.2,0-0.5-0.1-0.7-0.1c-0.2,0-0.5-0.1-0.7-0.1
	c-0.2,0-0.5-0.1-0.7-0.1c-0.5-0.1-0.9-0.3-1.4-0.6c0,0-0.2,0-0.4-0.1l-0.4-0.1c0,0-0.5-0.3-0.7-0.5c-0.2,0-0.5-0.1-0.7-0.3
	c-0.2,0-0.5-0.1-0.7-0.3c-0.2,0-0.5-0.1-0.8-0.5c0,0-0.4-0.1-0.5-0.1c0,0-0.4-0.1-0.5-0.3c-0.4-0.1-0.7-0.5-1.2-0.7
	c0,0-0.2,0-0.4-0.1c0,0-0.2,0-0.4-0.1c-0.2,0-0.5-0.3-0.7-0.5c-1.8-1.2-4-2.6-6.5-4.4c-0.7-0.5-1.3-0.9-1.8-1.5
	c-0.3-0.2-0.7-0.5-1-0.9c-0.3-0.2-0.6-0.6-1-0.9c0,0-0.3-0.2-0.5-0.4c0,0-0.2,0-0.3-0.2c0,0,0,0-0.2-0.2c-0.3-0.2-0.6-0.6-0.9-1.1
	c-0.2,0-0.3-0.4-0.5-0.4c-0.2,0-0.3-0.4-0.5-0.4c-0.3-0.4-0.6-0.6-0.9-1.1c-0.3-0.4-0.6-0.8-0.9-1.1c0,0-0.2,0-0.3-0.2
	c0,0-0.2,0-0.3-0.2c-0.2,0-0.3-0.4-0.5-0.6c-0.2,0-0.3-0.4-0.5-0.6c-0.2-0.2-0.3-0.4-0.5-0.6c-0.2-0.2-0.3-0.4-0.5-0.6
	c0,0-0.2-0.2-0.3-0.4l0.1-0.4c-0.3-0.4-0.6-0.8-0.9-1.4c0,0-0.2-0.2-0.1-0.4c0,0,0-0.2-0.1-0.4c0-0.2-0.3-0.4-0.5-0.6
	c0-0.2-0.3-0.4-0.5-0.6c0-0.2-0.3-0.4-0.4-0.8c0-0.2-0.3-0.4-0.4-0.8c0,0,0-0.2-0.1-0.4c0,0,0-0.2-0.1-0.4c-0.3-0.6-0.6-1-0.9-1.6
	c0-0.2-0.3-0.6-0.4-0.8c0-0.2-0.3-0.6-0.4-0.8c-0.4-1-1-2.1-1.3-3.3c-0.4-1.1-0.8-2.3-1.1-3.4c-0.4-1.1-0.5-2.4-0.7-3.7
	c0.1-0.4-0.1-0.6,0-0.9c0.1-0.4,0.1-0.5,0-0.9c0.1-0.4,0.1-0.5,0-0.9c0,0,0.1-0.4,0.1-0.5c0,0,0.1-0.4,0.1-0.5c0-1.3,0-2.5,0.1-4
	c0.1-0.4,0.1-0.7,0.1-0.9l0.2-1.1c0,0,0.2-1.2,0.3-1.9c0.1-0.4,0.1-0.7,0.2-1.1c0.1-0.4,0.1-0.7,0.2-1.1c0.1-0.4,0.1-0.7,0.2-1.1
	l0.1-0.5l0.1-0.4c0.1-0.4,0.1-0.7,0.2-1.1c0,0,0.1-0.4,0.1-0.5l0.1-0.5c0,0,0.3-0.7,0.5-1c0.1-0.4,0.1-0.7,0.3-0.9l0.1-0.5
	c0,0,0.2-0.3,0.4-0.5c0.1-0.4,0.3-0.7,0.5-0.8c0,0,0.1-0.4,0.1-0.5l0.1-0.5l0.4-0.5c0,0,0.1-0.4,0.1-0.5c0.1-0.4,0.5-0.7,0.5-0.8
	c0,0,0.1-0.4,0.3-0.5l0.1-0.5c0,0,0.6-0.4,0.9-0.8c0.1-0.4,0.4-0.5,0.7-0.8c0.9-1.1,1.8-2.1,2.9-3c1.1-0.9,2.3-1.8,3.5-2.5
	c1.2-0.7,2.6-1.2,4.1-1.7c0,0,0,0,0.2,0l0.2,0c0,0,0.4-0.1,0.6-0.3c0.4,0.1,0.7-0.1,1.3-0.2c0.4,0.1,0.9,0.1,1.4,0.2
	c0.5,0.1,1.1,0.2,1.4,0.4c0.5,0.1,0.8,0.5,1.3,0.9c0.3,0.4,0.6,0.8,0.9,1.4c0.3,0.4,0.4,1,0.3,1.3c-0.1,0.4,0,0.9,0,1.3
	c-0.1,0.9-0.2,1.6-0.4,2.3c-0.1,0.7-0.6,1.4-0.9,2c0,0-0.1,0.4-0.3,0.5l0,0.2l-0.3,0.7l-0.1,0.5c0,0-0.4,0.3-0.6,0.4l-0.1,0.5
	c0,0-0.6,0.4-0.9,0.8c-0.9,1.1-1.8,2.1-2.9,3c-1.1,0.9-2.1,1.7-3.3,2.4c-4.7,2.9-10.6,3.8-15.7,2.3c-2.7-0.8-4.8-2.2-6.6-4.1
	c-1-0.9-1.6-1.9-2.3-2.9c-0.6-1-1.2-2-1.7-3.2c-1-2.1-1.6-4.2-1.8-6.4c-0.4-2.1-0.5-4.1-0.4-6c0-0.2,0.1-0.5,0.1-0.7
	c0,0,0-0.2,0.1-0.4c0,0,0-0.2,0.1-0.4c0-0.2,0.1-0.5,0.1-0.7c0-0.2,0.1-0.5,0.1-0.7c0.1-0.5,0.1-0.9,0.2-1.4
	c0.1-0.5,0.1-0.9,0.2-1.2c0.3-1.8,0.5-3.4,1.1-4.9c0.1-0.4,0.1-0.7,0.2-1.1c0.1-0.4,0.1-0.7,0.3-1c0-0.2,0.1-0.4,0.1-0.5
	c0,0,0.1-0.4,0.1-0.5c0.1-0.4,0.1-0.7,0.3-1c0.6-1.2,0.9-2.4,1.4-3.4c0-0.2,0.1-0.5,0.3-0.7c0-0.2,0.1-0.5,0.3-0.7
	c0-0.2,0.1-0.5,0.3-0.7c0-0.2,0.1-0.4,0.3-0.5c0-0.2,0.1-0.4,0.3-0.5c0-0.2,0.1-0.4,0.3-0.5c0.1-0.4,0.5-0.7,0.5-0.8
	c0-0.2,0.3-0.5,0.5-0.7c0-0.2,0.2-0.3,0.4-0.5c0-0.2,0.2-0.3,0.4-0.3c0,0,0,0-0.1,0.5c0,0-0.1,0.4-0.1,0.5c0,0.2-0.1,0.5-0.3,0.7
	c-0.1,0.4-0.3,0.5-0.5,0.8c0,0-0.1,0.4-0.1,0.5c0,0.2-0.1,0.4-0.1,0.5c0,0.2-0.1,0.4-0.3,0.7c0,0.2-0.1,0.4-0.3,0.7
	c0,0.2-0.1,0.5-0.3,0.7c0,0.2-0.1,0.5-0.3,0.7c-0.3,1-0.9,2-1.3,3.4c-0.1,0.4-0.1,0.7-0.2,1.1c0,0-0.1,0.4-0.1,0.5
	c0,0-0.1,0.4-0.1,0.5c-0.1,0.4-0.1,0.7-0.2,1.1c-0.1,0.4-0.1,0.7-0.2,1.1c-0.2,1.4-0.5,3-0.7,4.8c-0.1,0.4-0.1,0.9-0.2,1.2
	c-0.1,0.4-0.1,0.9-0.2,1.2c-0.1,0.9-0.1,1.8,0,2.7c0.1,1.8,0.1,3.8,0.6,5.7c0.4,1.9,1,4,1.9,5.7c0.8,1.9,2,3.7,3.6,5.1
	c0.8,0.7,1.6,1.3,2.6,2c0.2,0,0.5,0.3,0.7,0.5c0,0,0.2,0,0.4,0.1c0,0,0.2,0,0.4,0.1c0.2,0,0.5,0.1,0.7,0.3c0.2,0,0.5,0.1,0.7,0.1
	c2.1,0.7,4.5,0.7,6.8,0.3c1.1-0.2,2.3-0.5,3.3-0.9c1-0.4,2.2-0.9,3.2-1.7c2-1.3,3.8-2.9,5.4-4.8c0-0.2,0.4-0.5,0.5-0.7
	c0.1-0.4,0.4-0.5,0.5-0.8l0.1-0.4l0.4-0.3l0.1-0.4c0,0,0.1-0.4,0.1-0.5c0.3-0.5,0.5-1,0.6-1.5c0.1-0.5,0.2-1.1,0.2-1.4
	c0.1-0.5,0.1-0.9-0.2-1.1c0,0,0-0.2-0.2-0.2c0,0-0.2,0-0.4-0.1c0,0-0.2,0-0.4-0.1c0,0-0.4-0.1-0.5-0.1c-0.2,0-0.5-0.1-0.7,0.1
	l-0.4-0.1l-0.2,0.1c0,0,0,0-0.2,0c-2.1,0.6-4.2,1.9-6.1,3.4c-0.9,0.8-1.7,1.7-2.4,2.7c0,0.2-0.4,0.5-0.5,0.7
	c-0.1,0.4-0.3,0.5-0.5,0.8l-0.1,0.4L34.1,38c-0.1,0.4-0.3,0.5-0.5,0.8c0,0,0,0,0,0.2l-0.1,0.7L33.4,40c0,0-0.2,0.3-0.4,0.3
	c-0.1,0.4-0.1,0.5-0.3,0.9l-0.1,0.4l-0.1,0.4c0,0-0.3,0.5-0.5,0.8c-0.1,0.4-0.1,0.5-0.3,0.9l-0.1,0.4c0,0,0,0,0,0.2
	c0,0-0.1,0.9-0.2,1.1l-0.1,0.4L31.4,46c-0.1,0.4-0.1,0.5-0.1,0.9c-0.1,0.4-0.1,0.5-0.1,0.9c-0.1,0.4-0.1,0.5-0.1,0.9
	c-0.1,0.5-0.2,1.2-0.3,1.8c-0.1,0.4-0.1,0.5-0.1,0.9c-0.1,0.4-0.1,0.5-0.1,0.9c-0.2,1.1,0,2.4,0,3.4L30.4,56l-0.1,0.4
	c-0.1,0.4-0.1,0.5,0,0.9c0,0.2-0.1,0.5,0.1,0.7c0.2,0.2-0.1,0.5,0.1,0.7c0.2,1.1,0.4,2.2,0.8,3.2c0.4,1.1,0.6,2.1,1,3
	c0.4,1,0.8,1.9,1.2,2.9c0,0.2,0.3,0.4,0.3,0.8c0,0.2,0.3,0.4,0.4,0.8c0.3,0.4,0.4,1,0.7,1.4c0,0,0,0.2,0.1,0.4c0,0,0,0.2,0.1,0.4
	c0,0.2,0.3,0.4,0.5,0.6c0,0.2,0.3,0.4,0.5,0.6c0,0.2,0.3,0.4,0.5,0.6c0,0.2,0.3,0.4,0.5,0.6c0,0,0,0.2,0.1,0.4c0,0,0,0.2,0.1,0.4
	c0.3,0.4,0.6,0.8,0.9,1.2l0,0.2c0,0,0,0,0.2,0.2c0,0,0.3,0.4,0.5,0.6c0,0,0.3,0.4,0.5,0.6c0,0,0.3,0.4,0.5,0.6c0,0,0.3,0.4,0.5,0.6
	c0,0,0,0,0.2,0.2c0,0,0,0,0.2,0.2c0.3,0.4,0.6,0.6,0.9,1.1c0.3,0.4,0.6,0.6,0.9,1.1c0,0,0.3,0.2,0.5,0.4c0,0,0.3,0.2,0.5,0.4
	c0.3,0.2,0.6,0.6,1,0.9c0,0,0,0,0.2,0.2c0,0,0,0,0.2,0c0,0,0.3,0.2,0.5,0.4c0.3,0.2,0.7,0.5,0.8,0.8c0.3,0.2,0.7,0.5,0.8,0.7
	c0.7,0.5,1.2,0.9,1.6,1.3c2.3,1.8,4.3,3,6,4c0.2,0,0.4,0.1,0.7,0.3c0,0,0.2,0,0.4,0.1c0,0,0.2,0,0.4,0.1c0.4,0.1,0.7,0.5,1,0.5
	c0,0,0.4,0.1,0.5,0.1c0,0,0.4,0.1,0.5,0.1c0.4,0.1,0.5,0.1,0.7,0.3c0.2,0,0.5,0.1,0.7,0.3c0.2,0,0.5,0.1,0.7,0.3
	c0.2,0,0.5,0.1,0.7,0.3l0.4,0.1c0,0,0.2,0,0.3,0.2c0.4,0.1,0.9,0.3,1.2,0.5c0.2,0,0.4,0.1,0.7,0.1c0.2,0,0.4,0.1,0.7,0.1
	c0.2,0,0.4,0.1,0.7,0.1c0.2,0,0.4,0.1,0.7,0.1c0.4,0.1,0.9,0.1,1.2,0.4c0.4,0.1,0.9,0.1,1.2,0.4l0.5,0.1c0,0,0.4,0.1,0.5,0.3
	c3.2,1,6.2,1.7,8.7,2.1c0,0,0.4,0.1,0.5,0.1c0,0,0.4,0.1,0.5,0.1c0.4,0.1,0.5,0.1,0.9,0.1c0.5,0.1,1.1,0.2,1.6,0.3
	c0.2,0,0.5,0.1,0.7,0.1c0,0,0.2,0,0.4,0.1c0,0,0.2,0,0.4,0.1c0.4,0.1,0.9,0.1,1.3,0.2c0,0,0,0,0.2,0c0,0,0,0,0.2,0
	c0,0,0.4,0.1,0.5,0.1c0.4,0.1,0.5,0.1,0.7,0.1c0.4,0.1,0.7,0.3,0.7,0.5L85.2,101.7z"/>
<linearGradient id="SVGID_2_" gradientUnits="userSpaceOnUse" x1="11.5282" y1="52.1531" x2="85.0924" y2="52.1531">
	<stop  offset="0" style="stop-color:#F24E1A"/>
	<stop  offset="1" style="stop-color:#F28A25"/>
</linearGradient>
<path class="st1" d="M70.2,102.8c-1.1-0.2-2.3-0.4-3.4-0.5c0,0,0,0-0.2,0c0,0-0.4-0.1-0.5-0.1l-0.7-0.1c0,0-0.2,0-0.4-0.1
	c-0.4-0.1-0.7-0.1-1.1-0.2c-0.5-0.1-0.9-0.1-1.4-0.4c0,0,0,0-0.2,0c0,0-0.4-0.1-0.5-0.1c-0.2,0-0.5-0.1-0.7-0.1
	c-0.2,0-0.4-0.1-0.5-0.1c-0.2,0-0.4-0.1-0.5-0.1l-0.5-0.1c0,0-0.5-0.4-0.8-0.5c0,0,0,0-0.2,0l-0.4-0.1c0,0-0.5-0.3-0.7-0.5
	c0,0-0.5-0.1-0.7-0.3c0,0-0.4-0.1-0.5-0.1c0,0,0,0-0.2,0l-0.8-0.5c0,0-0.2,0-0.4-0.1c0,0-0.2,0-0.4-0.1c0,0,0,0-0.2,0
	c-0.2,0-0.5-0.1-0.7-0.3L53,98.5l0-0.2c0,0,0,0-0.2,0c0,0-0.2,0-0.4-0.1c-0.2,0-0.5-0.3-0.7-0.5c-1-0.7-2-1.2-3-1.9
	c-1.2-0.7-2.3-1.6-3.5-2.5c0,0-0.2,0-0.3-0.2c-0.5-0.4-1-0.9-1.5-1.3l-0.4-0.1c0,0-0.5-0.6-0.6-0.8c-0.3-0.2-0.5-0.4-0.8-0.7l-0.2,0
	c0,0,0-0.2-0.1-0.4c0,0-0.2,0-0.3-0.2c0,0,0,0-0.3-0.2c0,0,0,0-0.2-0.2l-0.4-0.1c0,0-0.5-0.6-0.6-1c0,0-0.3-0.2-0.3-0.4
	c0,0,0,0-0.2-0.2c0,0-0.2,0-0.3-0.2c0,0-0.2,0-0.3-0.2c-0.3-0.2-0.5-0.4-0.8-0.8c-0.2-0.2-0.3-0.4-0.6-0.6l-0.5-0.4c0,0,0,0-0.3-0.2
	c0,0-0.2,0-0.3-0.2c0,0,0,0-0.2-0.2c0,0-0.2-0.2-0.3-0.4L35,83.5c0,0-0.2-0.2-0.3-0.4l-0.4-0.8c0,0-0.2-0.2-0.3-0.4l0.1-0.4
	c0,0-0.4-1-0.7-1.4c0,0,0,0,0-0.2c0,0,0-0.2-0.1-0.4c0,0-0.1-0.6-0.3-0.6c0-0.2-0.3-0.4-0.5-0.6c0,0-0.3-0.6-0.3-0.8l-0.2,0
	c0,0-0.1-0.6-0.3-0.8l0.1-0.4c0,0-0.4-0.1-0.3-0.2s-0.3-0.6-0.4-0.8c0-0.2-0.3-0.4-0.4-0.8l-0.4-0.8c0,0-0.1-0.4-0.3-0.4
	c0,0,0-0.2-0.1-0.4c-0.6-1.2-1-2.1-1.3-3.3c-0.4-1.1-0.8-2.3-1.1-3.4c-0.4-1.1-0.5-2.4-0.7-3.7c0-0.2,0.1-0.5-0.1-0.7
	c0.1-0.4,0.1-0.5,0-0.9c0,0,0.1-0.4,0.1-0.7c0,0,0-0.2,0.1-0.4c0,0,0.1-0.4,0.1-0.5c0,0,0-0.2,0.1-0.4c-0.1-1.6,0-2.7,0.1-4
	c0,0,0-0.2,0.1-0.4c0-0.2,0.1-0.4,0.1-0.7l0.2-1.1c0,0,0.1-0.9,0.2-1.4c0,0,0.1-0.4,0.1-0.5c0-0.2,0.1-0.5,0.1-0.7c0,0,0,0,0-0.2
	c-0.4-0.1-0.5-0.1-0.9-0.1c-1.2-0.4-2.4-0.9-3.6-1.6c-1-0.7-2.2-1.4-2.9-2.4c-0.5-0.4-0.8-0.8-1.3-1.5c-0.3-0.4-0.8-1-1.1-1.4
	c-0.6-1-1.2-2-1.7-3.2c-0.4-1-0.8-2.1-1.2-3.3c-0.2-0.9-0.6-2.1-0.6-3.2c-0.2-2-0.5-4.1-0.4-6c0-0.2,0.1-0.4,0.1-0.5
	c0,0,0-0.2,0.1-0.4c0,0,0-0.2,0.1-0.4c0-0.2,0.1-0.4,0.1-0.5l0-0.2c0,0,0.1-0.4,0.1-0.5c0,0,0.1-0.4,0.1-0.5
	c0.1-0.4,0.1-0.5,0.1-0.9l0.2-1.2c0.2-1.6,0.5-3.2,1.1-4.9c0.1-0.4,0.1-0.7,0.2-1.1c0-0.2,0.1-0.5,0.1-0.7c0,0,0-0.2,0.1-0.4
	l0.1-0.5c0,0,0.1-0.4,0.1-0.5l0.1-0.4c0,0,0.1-0.5,0.3-0.7c0.6-1.4,1.1-2.4,1.4-3.4l0.1-0.4l0.1-0.4c0,0,0.2-0.3,0.4-0.5
	c0,0,0,0,0-0.2l0.1-0.7l0.4-0.3c0,0,0,0,0-0.2c0,0,0-0.2,0.1-0.4c0,0,0.1-0.5,0.3-0.7c0.1-0.4,0.5-0.7,0.5-0.8
	c0-0.2,0.3-0.5,0.5-0.7c0,0,0.2-0.3,0.4-0.5c0-0.2,0.2-0.3,0.4-0.3c0,0,0,0-0.1,0.5c0,0-0.1,0.4-0.1,0.5c0,0,0,0,0,0.2
	c0,0-0.1,0.4-0.1,0.5c-0.1,0.4-0.3,0.5-0.5,0.8c0,0-0.1,0.4-0.1,0.5s-0.1,0.4-0.1,0.5c0,0,0,0,0,0.2c0,0,0,0.2-0.1,0.4
	c0,0-0.1,0.5-0.1,0.7c0,0,0,0.2-0.1,0.4c0,0-0.1,0.4-0.1,0.5l-0.1,0.7c-0.5,0.8-1,1.8-1.4,3.4c-0.1,0.4-0.1,0.7-0.2,1.1
	c0,0-0.1,0.4-0.1,0.5L18.3,16c0,0,0,0.2-0.1,0.4c0,0.2-0.1,0.5-0.1,0.7c-0.1,0.4-0.1,0.7-0.2,1.1c-0.2,1.6-0.5,3.2-0.7,4.8L17,24.1
	c0,0-0.1,0.5-0.1,0.9c0,0-0.1,0.4-0.1,0.5c-0.1,0.9-0.1,1.8,0,2.7c0.1,2,0.1,3.8,0.6,5.7c0.2,0.9,0.4,2.1,0.9,2.8
	c0.4,1,0.6,1.9,1.2,2.9c1,2,2.2,3.8,3.6,5.1c0.8,0.7,1.6,1.3,2.6,2c0,0,0.4,0.1,0.5,0.3c0,0,0,0,0.2,0c0,0,0.2,0,0.4,0.1
	c0,0,0,0,0.2,0c0,0,0.4,0.1,0.5,0.1c0,0,0.2,0,0.4,0.1c0,0,0.5,0.1,0.7,0.1c0.4,0.1,0.5,0.1,0.9,0.1l0.1-0.4c0-0.2,0.1-0.5,0.1-0.7
	l0.1-0.4l0.1-0.5c0,0,0-0.2,0.2-0.3c0-0.2,0.1-0.4,0.1-0.7l0.1-0.9l0.4-0.5c0,0,0-0.2,0.1-0.4l0.1-0.4c0,0,0.2-0.3,0.4-0.5
	c0,0,0-0.2,0.1-0.4l0.1-0.5l0.7-0.6c0.1-0.4,0.5-0.7,0.5-0.8c0,0,0-0.2,0.1-0.4l0.1-0.5c0,0,0.4-0.3,0.6-0.4l0.1-0.4
	c0,0,0.2-0.1,0.4-0.3c0-0.2,0.2-0.3,0.5-0.7c0.4-0.5,0.9-1.1,1.4-1.6c0.4-0.5,1.1-0.9,1.5-1.4c0.6-0.4,1.1-0.9,1.7-1.4
	s1.2-0.9,1.8-1.2c1.4-0.7,2.8-1.4,4.1-1.7c0,0,0,0,0.2,0l0.2,0c0,0,0.2,0,0.4,0.1c0.4,0.1,0.9,0,1.3-0.2c0.5,0.1,0.9,0.1,1.3,0.2
	c0,0,1.1,0.2,1.4,0.4c0.5,0.1,1,0.5,1.3,0.9c0.3,0.4,0.6,0.8,0.9,1.4c0.1,0.4,0.2,0.9,0.3,1.5c-0.1,0.4,0,0.9,0,1.3
	c-0.1,0.7-0.2,1.6-0.4,2.3c-0.1,0.7-0.6,1.4-0.9,2c0,0.2-0.1,0.4-0.3,0.5l-0.1,0.5l-0.1,0.5l-0.6,0.4c0,0,0,0.2-0.1,0.4l-0.1,0.5
	c0,0-0.6,0.3-0.6,0.4c0,0,0,0.2-0.1,0.4c-0.9,1.1-1.8,2.1-2.9,3c-1.1,0.9-2.1,1.7-3.3,2.4c-0.8,0.4-1.6,0.8-2.4,1.3
	c0.8-0.4,1.6-0.8,2.4-1.3c1.2-0.7,2.3-1.5,3.3-2.4c1.1-0.9,2-1.9,2.9-3c0,0,0-0.2,0.1-0.4c0-0.2,0.2-0.3,0.4-0.5l0.1-0.5
	c0,0,0.4-0.1,0.4-0.3l0.1-0.5l0.9-0.8c0,0,0.1-0.5,0.3-0.7c0.5-0.7,0.8-1.3,0.9-2c0.1-0.9,0.4-1.6,0.4-2.3c0.1-0.5,0.1-0.9,0-1.3
	c0.1-0.5-0.2-0.9-0.3-1.3c-0.3-0.6-0.6-1-0.9-1.4c-0.3-0.4-0.8-0.7-1.3-0.9c-0.5-0.1-1.1-0.3-1.4-0.4c-0.4-0.1-0.9-0.1-1.4-0.2
	c-0.4-0.1-0.7-0.1-1.3,0.2c0,0-0.2,0-0.4-0.1l-0.2,0c0,0,0,0-0.2,0.1c-1.3,0.3-2.7,0.8-4.1,1.7c-0.6,0.3-1.2,0.7-1.8,1.2
	c-0.6,0.4-1.1,0.9-1.7,1.4c-0.4,0.5-1.1,0.9-1.5,1.4c-0.4,0.5-0.9,0.9-1.4,1.6c0,0.2-0.2,0.3-0.5,0.7c0,0,0,0.2-0.1,0.4l-0.1,0.4
	c0,0-0.4,0.3-0.6,0.4l-0.1,0.5c0,0-0.4,0.1-0.4,0.3c-0.1,0.4-0.5,0.7-0.5,0.8l-0.3,0.7l-0.1,0.5l-0.2,0c0,0,0,0.2-0.1,0.4
	c0,0.2-0.1,0.4-0.3,0.5l-0.1,0.4c0,0,0,0-0.2,0c0,0,0,0.2-0.1,0.4l-0.1,0.5L30.4,45c0,0.2-0.1,0.4-0.1,0.7c0,0,0,0.2-0.1,0.4
	l-0.1,0.5c0,0-0.1,0.7-0.2,1.1L30,48c1.4,0.2,2.9,0.4,4.4,0.3l0.1-0.4l0.1-0.4c0,0,0-0.2,0.1-0.4c0-0.2,0.1-0.4,0.1-0.5
	c0,0,0.1-0.5,0.3-0.9l0.1-0.4c0,0,0-0.2,0.2-0.3c0,0,0.1-0.7,0.3-0.9c0,0,0-0.2,0.1-0.4l0.1-0.4l0.5-0.7l0.5-0.8l0-0.2l0.1-0.4
	c0,0,0.6-0.4,0.7-0.8c0,0,0-0.2,0.1-0.4c0,0,0.2-0.3,0.4-0.5c0.7-1,1.6-1.9,2.4-2.7c0.9-0.8,1.9-1.5,2.9-2.1c1-0.6,2-1.1,3.2-1.3
	c0,0,0,0,0.2,0l0.2,0l0.4-0.1c0.4,0.1,0.5,0.1,0.7-0.1c0.2,0,0.4,0.1,0.5,0.1c0,0,0.2,0,0.4,0.1c0,0,0.2,0,0.4,0.1c0,0,0,0,0.2,0.2
	c0,0.2,0.3,0.8,0.2,1.1c-0.1,0.5-0.1,0.9-0.2,1.4c-0.1,0.5-0.3,1-0.6,1.5c0,0,0,0.2-0.1,0.4l-0.1,0.4l-0.1,0.4l-0.4,0.3
	c0,0.2-0.3,0.5-0.5,0.7c0,0-0.2,0.3-0.4,0.5c0,0,0,0,0,0.2c-0.7,1-1.6,1.9-2.4,2.7c-0.9,0.8-1.9,1.5-2.9,2.3c-1,0.7-2,1.1-3.2,1.7
	c-1,0.4-2.1,0.8-3.3,0.9c-0.5-0.1-1,0.2-1.5,0.1l-0.1,0.7l-0.1,0.4l-0.1,0.5L33.4,51c0,0-0.1,0.4-0.1,0.5c0,0,0,0.2-0.1,0.4
	c0,0,0,0,0,0.2c0,0.2-0.1,0.4-0.1,0.5c0,0-0.1,0.4-0.1,0.5c-0.1,0.4-0.1,0.9-0.2,1.2l-0.1,0.9c0,0-0.1,0.4-0.1,0.5
	c0,0,0,0.2-0.1,0.4c-0.2,1.2,0,2.5,0,3.4c0,0,0,0.2-0.1,0.4c0,0,0,0.2-0.1,0.4c0,0,0,0.2-0.1,0.4c0,0-0.1,0.4-0.1,0.5
	c0,0.2-0.1,0.5,0.1,0.7c0,0.2-0.1,0.4,0.1,0.7c0.2,1.1,0.4,2.1,0.8,3.2c0.2,0.9,0.6,2.1,1,3c0.4,1,0.8,1.9,1.2,2.9l0.3,0.8
	c0,0,0.3,0.4,0.3,0.6c0,0,0.3,0.6,0.6,1l-0.1,0.4l0.4,0.1c0,0,0,0,0,0.2c0,0,0,0.2-0.1,0.4l0.5,0.6c0,0,0.2,0.2,0.3,0.4
	c0,0,0.1,0.6,0.3,0.8c0,0,0.3,0.6,0.4,0.8c0,0,0,0,0.2,0.2c0,0,0,0,0,0.2c0.3,0.4,0.6,0.8,0.9,1.2l0,0.2c0,0,0,0,0.2,0.2
	c0,0,0.2,0.2,0.3,0.4l0.3,0.4c0,0,0.2,0.2,0.3,0.4l0.2,0c0,0,0.1,0.4,0.3,0.6c0,0,0.3,0.4,0.5,0.6l0.2,0c0,0-0.1,0.4,0.1,0.6
	c0.2,0,0.3,0.4,0.5,0.6l0.3,0.4c0,0,0.5,0.4,0.6,0.6c0,0,0.2,0,0.2,0.2c0,0,0.2,0.2,0.3,0.4c0,0,0,0,0,0.2c0,0,0.2,0.2,0.3,0.4
	c0,0,0.5,0.6,0.8,0.8c0,0,0,0.2,0.2,0.2c0,0,0.3,0.2,0.5,0.4c0,0,0.5,0.6,0.8,0.8l0.4,0.1c0,0,0.3,0.6,0.5,0.6
	c0.5,0.4,1,0.7,1.3,1.1c0,0,0.2,0,0.3,0.2c2,1.6,3.8,2.8,6,4l0.7,0.1c0,0,0.1,0.4,0.3,0.4c0,0,0,0,0.2,0c0.4,0.1,0.7,0.5,1,0.5
	c0,0,0,0,0.2,0c0,0,0.2,0,0.4,0.1c0,0,0.2,0,0.4,0.1l0.2,0c0.2,0,0.4,0.1,0.5,0.1c0,0,0,0,0.2,0l0.4,0.1c0,0,0.2,0,0.4,0.1
	c0,0,0.2,0,0.4,0.1c0,0,0.4,0.1,0.7,0.3l0.4,0.1c0,0,0,0,0.2,0l0.2,0c0,0,0.7,0.3,1,0.5c0,0,0.4,0.1,0.5,0.1c0.2,0,0.4,0.1,0.7,0.1
	c0,0,0.2,0,0.4,0.1l0.4,0.1l0.4,0.1c0,0,0,0,0.2,0l0.5,0.1c0,0,0.5,0.3,0.7,0.3c0.2,0,0.5,0.1,0.7,0.1c0,0,0.4,0.1,0.5,0.1l0.5,0.1
	c0,0,0.2,0,0.4,0.1c0,0,0,0,0.2,0c1.6,0.4,3,0.8,4.6,1.3c1.4,0.2,2.7,0.6,4.1,0.8c0,0,0.2,0,0.4,0.1c0,0,0.4,0.1,0.5,0.1
	c0.2,0,0.5,0.1,0.7,0.1c0,0,0.7,0.1,1.1,0.2c0.2,0,0.4,0.1,0.5,0.1c0.2,0,0.5,0.1,0.7,0.1c0,0,0.2,0,0.4,0.1c0,0,0.2,0,0.4,0.1
	c0.4,0.1,0.9,0.1,1.3,0.2l0.2,0l0.2,0c0,0,0.4,0.1,0.5,0.1c0.4,0.1,0.5,0.1,0.7,0.1c0.4,0.1,0.7,0.3,0.7,0.5c0,0-0.1,0.4-0.6,0.4
	c0,0-0.4,0.1-0.8,0.2c0,0-0.4-0.1-0.4,0.1l-0.2,0c0,0,0,0-0.2,0.1c0,0-0.8,0.2-1.3,0.2c0,0,0,0-0.2,0c0,0-0.2,0-0.4-0.1
	c-0.2,0-0.5-0.1-0.7,0.1c0,0-0.2,0-0.4-0.1c-0.4-0.1-0.9,0-1.5,0.1c-0.4-0.1-0.5-0.1-0.9-0.1c0,0-0.2,0-0.4-0.1c0,0-0.2,0-0.4-0.1
	c-1.5,0-2.9-0.1-4.6-0.3c-0.5-0.1-1.1-0.2-1.8-0.3L70.2,102.8z M25.6,47.8c0,0,0,0,0,0.2c0,0.2-0.1,0.5-0.1,0.7c0,0-0.1,0.4-0.1,0.5
	c-0.1,0.5-0.1,0.9-0.2,1.4L25,51.7c0,0-0.1,0.4-0.1,0.7c0,0,0,0.2-0.1,0.4c-0.2,1.1-0.2,2.3-0.1,4c0,0,0,0.2-0.1,0.4c0,0,0,0,0,0.2
	c0,0-0.1,0.4-0.1,0.5c0,0.2-0.1,0.4-0.1,0.5c0,0-0.1,0.5,0,0.9c0,0.2-0.1,0.5,0.1,0.7c0.2,1.3,0.5,2.4,0.7,3.7
	c0.4,1.1,0.8,2.3,1.1,3.4c0.4,1.1,0.8,2.1,1.3,3.3c0,0,0,0.2,0.1,0.4c0,0,0.1,0.4,0.3,0.4l0.4,0.8c0,0,0.3,0.4,0.4,0.8
	c0,0.2,0.3,0.6,0.4,0.8c0,0,0,0,0,0.2l-0.1,0.4c0,0,0.5,0.3,0.5,0.4l0.2,0c0,0,0.3,0.8,0.2,0.9c0,0,0.3,0.6,0.4,0.8
	c0,0,0.1,0.4,0.3,0.6c0,0-0.1,0.4,0.1,0.4c0,0,0,0.2-0.1,0.4c0.3,0.4,0.4,0.8,0.8,1L31.8,79c0,0,0.1,0.4,0.3,0.4l0.5,0.6
	c0,0,0.1,0.4,0.3,0.6l0.5,0.6c0,0,0.2,0.2,0.3,0.4c0,0,0,0,0.2,0.2c0,0,0.2,0,0.3,0.2c0,0,0.2,0,0.3,0.2l0.5,0.4
	c0,0,0.3,0.4,0.6,0.6c0.2,0.2,0.5,0.6,0.8,0.8c0,0,0.2,0,0.3,0.2c0,0,0.2,0,0.3,0.2c0,0,0,0,0.2,0.2c0,0,0.3,0.2,0.3,0.4
	c0.2,0.2,0.5,0.4,0.6,0.6l0.4,0.1c0,0-0.1,0.4,0.1,0.6c0,0,0.2,0,0.3,0.2c0,0,0.2,0,0.3,0.2c0,0,0,0,0.2,0.2l0.2,0
	c0,0,0.5,0.6,0.8,0.8c0.2,0,0.5,0.4,0.7,0.5l0.4,0.1c0,0,0.9,1.1,1.4,1.5c0,0,0.2,0,0.3,0.2c1.2,0.9,2.3,1.8,3.5,2.5
	c1,0.7,2,1.4,3,1.9c0.2,0,0.5,0.3,0.7,0.5c0,0,0.2,0,0.4,0.1c0,0,0,0,0.2,0l0.5,0.1c0,0,0.5,0.4,0.6,0.6c0,0,0,0,0.2,0
	c0,0,0.2,0,0.4,0.1c0,0,0.2,0,0.4,0.1l0.8,0.5c0,0,0,0,0.2,0c0,0,0.4,0.1,0.5,0.1c0.2,0,0.5,0.1,0.7,0.3c0,0,0.5,0.1,0.7,0.3
	l0.4,0.1c0,0,0,0,0.2,0c0.4,0.1,0.5,0.1,0.9,0.3l0.5,0.1c0,0,0.3,0.2,0.5,0.3c0,0,0.4,0.1,0.5,0.1c0.2,0,0.5,0.1,0.7,0.1
	c0,0,0.4,0.1,0.5,0.1c0,0,0,0,0.2,0c0,0,0.9,0.1,1.4,0.4c0.4,0.1,0.7,0.1,1.1,0.2c0,0,0.2,0,0.4,0.1l0.7,0.1c0,0,0.4,0.1,0.5,0.1
	c0,0,0,0,0.2,0c1.8,0.3,3.4,0.5,5.1,0.8c1.6,0.3,3.1,0.3,4.6,0.3c0,0,0.2,0,0.4,0.1c0,0,0.2,0,0.4,0.1c0,0,0.5,0.1,0.9,0
	c0.5,0.1,0.9,0,1.5-0.1c0,0,0.2,0,0.4,0.1c0.2,0,0.5,0.1,0.7-0.1c0,0,0.2,0,0.4,0.1c0,0,0,0,0.2,0c0,0,1-0.2,1.3-0.3c0,0,0,0,0.2,0
	l0.2,0c0,0,0.4-0.1,0.4-0.3c0.2,0,0.6-0.1,0.8-0.2c0.4-0.1,0.6-0.3,0.6-0.4c0,0-0.1-0.4-0.7-0.5c-0.2,0-0.5-0.1-0.7-0.1
	c0,0-0.4-0.1-0.5-0.1l-0.2,0l-0.2,0c-0.4-0.1-0.5-0.1-0.9-0.1l-0.2,0c0,0-0.2,0-0.4-0.1c0,0-0.2,0-0.4-0.1c-0.2,0-0.5-0.1-0.7-0.1
	c-0.2,0-0.4-0.1-0.5-0.1c-0.4-0.1-0.7-0.1-1.1-0.2c0,0-0.5-0.1-0.7-0.1c0,0-0.4-0.1-0.5-0.1c0,0-0.2,0-0.4-0.1
	c-1.4-0.2-2.7-0.4-4.1-0.8c-1.6-0.3-3.2-0.9-4.6-1.3c0,0,0,0-0.2,0c0,0-0.2,0-0.4-0.1l-0.5-0.1c0,0-0.4-0.1-0.5-0.3
	c-0.2,0-0.5-0.1-0.7-0.1c-0.2,0-0.5-0.1-0.7-0.1l-0.5-0.1c0,0,0,0-0.2,0l-0.4-0.1l-0.4-0.1c0,0-0.2,0-0.4-0.1
	c-0.2,0-0.4-0.1-0.7-0.1c0,0-0.4-0.1-0.5-0.1c-0.4-0.1-0.7-0.3-1-0.5l-0.2,0c0,0,0,0-0.2,0L58,93.7c0,0-0.3-0.2-0.7-0.5
	c0,0-0.2,0-0.4-0.1c0,0-0.2,0-0.4-0.1l-0.4-0.1c0,0,0,0-0.2,0c0,0-0.4-0.1-0.5-0.1l-0.2,0c0,0-0.2,0-0.4-0.1c0,0-0.2,0-0.4-0.1
	c0,0,0,0-0.2,0c-0.4-0.1-0.7-0.3-1-0.5c0,0,0,0-0.2,0c0,0-0.2,0-0.4-0.1l-0.7-0.1c-2.2-1.6-4.2-2.8-6-4.4c0,0-0.2,0-0.3-0.2
	c-0.5-0.4-1-0.7-1.3-1.1c-0.2,0-0.3-0.2-0.5-0.4l-0.4-0.1c0,0-0.4-0.8-0.8-1c0,0-0.3-0.2-0.5-0.4c0,0,0,0-0.2,0c0,0,0,0,0-0.2
	c-0.3-0.2-0.5-0.4-0.8-0.8c0,0-0.2-0.2-0.3-0.4c0,0-0.1-0.4-0.3-0.4c0,0-0.2,0-0.2-0.2c-0.2-0.2-0.5-0.4-0.6-0.6l-0.3-0.4
	c0,0-0.3-0.4-0.5-0.6c0,0,0,0-0.2-0.2l-0.2,0c0,0-0.3-0.6-0.4-0.8c0,0-0.2-0.2-0.3-0.4l-0.2,0c0,0-0.1-0.4-0.3-0.6l-0.3-0.4
	c0,0-0.2-0.2-0.3-0.4c0,0,0,0-0.2-0.2l0-0.2c-0.3-0.4-0.6-0.8-0.9-1.2c0,0,0-0.2-0.1-0.4c0-0.2-0.3-0.4-0.5-0.6c0,0-0.1-0.4-0.3-0.6
	c0,0-0.1-0.6-0.3-0.6l-0.5-0.6c0,0,0,0,0-0.2c0,0,0-0.2,0.1-0.4l0.1-0.4c0,0-0.6-0.6-0.8-1c0,0-0.3-0.4-0.3-0.8L33.4,70
	c-0.4-1-0.8-1.9-1.2-2.9c-0.4-1-0.8-2.1-1-3c-0.4-1.1-0.6-2.1-0.8-3.2c0-0.2,0.1-0.4-0.1-0.7c0-0.2,0.1-0.5-0.1-0.7
	c0,0,0.1-0.4,0.1-0.5c0,0,0-0.2,0.1-0.4l0.1-0.4c0,0,0-0.2,0.1-0.4c0-0.9,0-2.2,0-3.4c0,0,0-0.2,0.1-0.4c0,0,0.1-0.4,0.1-0.5
	l0.1-0.9c0,0,0.1-0.9,0.2-1.2c0,0,0.1-0.4,0.1-0.5c0-0.2,0.1-0.4,0.1-0.5c0,0,0,0,0-0.2c0,0,0-0.2,0.1-0.4c-0.4-0.1-0.7-0.1-1.3-0.2
	c-1.1-0.2-2-0.3-3.1-0.5L25.6,47.8z M25.6,47.8c0,0,1.1,0.2,1.6,0.3c0.9,0.1,1.8,0.3,2.7,0.2c0,0,0.1-0.4,0.1-0.5l0.1-0.9l0.1-0.5
	l0.1-0.4l0.1-0.7c-1.1,0.2-2.4,0-3.5-0.2c-0.2,0-0.5-0.1-0.7-0.1l-0.1,0.4L26,45.9c0,0-0.1,0.5-0.1,0.7l-0.2,1.2L25.6,47.8z
	 M20.2,1.5c0,0,0,0-0.4,0.3c0,0-0.1,0.4-0.4,0.5c0,0-0.2,0.3-0.5,0.7c0,0.2-0.3,0.5-0.5,0.8c0,0-0.1,0.4-0.3,0.5
	c0,0-0.1,0.4-0.1,0.5c0,0,0,0,0,0.2l-0.1,0.4L17.8,6c0,0-0.4-0.1-0.4,0.1c0,0-0.1,0.4-0.1,0.5L17.3,7l-0.2,0.3
	c-0.5,0.8-0.9,2-1.4,3.4c0,0.2-0.1,0.5-0.1,0.7l-0.1,0.4c0,0-0.1,0.4-0.1,0.5l-0.1,0.5c0,0,0,0.2-0.1,0.4c0,0.2-0.1,0.5-0.1,0.7
	c-0.1,0.4-0.1,0.7-0.2,1.1c-2,1.3-2.3,3.1-2.6,4.7l-0.2,1.2c0,0-0.1,0.5-0.1,0.9c0,0-0.1,0.4-0.1,0.5c0,0.2-0.1,0.4-0.1,0.5
	c0,0-0.1,0.5-0.1,0.7c0,0,0,0.2-0.1,0.4c0,0,0,0.2-0.1,0.4l0,0.2c0,0.2-0.1,0.4-0.1,0.5c-0.1,2,0.1,4.2,0.4,6
	c0.2,1.1,0.4,2.2,0.6,3.2c0.4,1.1,0.8,2.1,1.2,3.3c0.6,1.2,1,2.1,1.7,3.2c0.3,0.6,0.8,1,1.1,1.4c0.5,0.4,0.8,1,1.3,1.5
	c1.9,1.9,4.1,3.3,6.6,4.1c0.4,0.1,0.5,0.1,0.9,0.1l0.2-1.1l0-0.2c0-0.2,0.1-0.5,0.1-0.7l0.1-0.5c-0.4-0.1-0.5-0.1-0.9-0.1
	c-0.2,0-0.5-0.1-0.7-0.1c0,0-0.2,0-0.4-0.1c0,0-0.4-0.1-0.5-0.1c0,0,0,0-0.2,0c0,0-0.2,0-0.4-0.1c0,0,0,0-0.2,0c0,0-0.4-0.1-0.5-0.3
	c-0.8-0.5-1.8-1.2-2.6-2c-1.5-1.3-2.7-3.1-3.6-5.1c-0.4-1-0.8-1.9-1.2-2.9c-0.2-0.9-0.6-1.9-0.9-2.8c-0.4-1.9-0.5-3.7-0.6-5.7
	c0.1-0.9,0.1-1.8,0-2.7c0,0,0.1-0.4,0.1-0.5c0-0.2,0.1-0.5,0.1-0.9l0.2-1.2c0.2-1.6,0.5-3.2,0.7-4.8c0.1-0.4,0.1-0.7,0.2-1.1
	c0-0.2,0.1-0.5,0.1-0.7c0,0,0-0.2,0.1-0.4l0.1-0.5c0,0,0.1-0.4,0.1-0.5c0.1-0.4,0.1-0.7,0.2-1.1c0.4-1.4,0.9-2.4,1.3-3.4l0.1-0.7
	c0,0,0.2-0.3,0.4-0.5c0,0,0-0.2,0.1-0.4l0.1-0.4c0,0,0.1-0.5,0.1-0.7c0,0,0,0,0-0.2c0-0.2,0.1-0.4,0.1-0.5c0-0.2,0.1-0.4,0.1-0.5
	c0.1-0.4,0.3-0.7,0.5-0.8c0-0.2,0.1-0.4,0.1-0.5c0,0,0,0,0-0.2c0-0.2,0.1-0.4,0.1-0.5c0.1-0.4,0.1-0.5,0.1-0.5L20.2,1.5z M46,30.2
	c0,0-0.4-0.1-0.5-0.1c-0.2,0-0.4-0.1-0.7,0.1l-0.4-0.1l-0.2,0.1c0,0,0,0-0.2,0c-1.2,0.4-2.1,0.8-3.2,1.3c-1,0.6-1.9,1.3-2.9,2.1
	c-0.9,0.8-1.7,1.7-2.4,2.7c0,0-0.2,0.3-0.4,0.5c0,0,0,0.2-0.1,0.4c-0.1,0.4-0.3,0.5-0.5,0.8l-0.1,0.4c0,0-0.4-0.1-0.4,0.1l-0.5,0.8
	L33.4,40l-0.1,0.4c0,0,0,0-0.2,0c0,0,0,0.2-0.1,0.4c0,0.2-0.1,0.4-0.3,0.7l-0.1,0.4c0,0,0,0.2-0.1,0.4l-0.1,0.4c0,0-0.3,0.5-0.5,0.8
	c0,0-0.1,0.4-0.1,0.5c0,0,0,0.2-0.1,0.4L32,44.5l-0.1,0.4c0,0,0.9,0,1.5-0.1c1.1-0.2,2.3-0.5,3.3-0.9c1-0.4,2.2-0.9,3.2-1.7
	c1-0.6,1.9-1.3,2.9-2.3c0.9-0.8,1.7-1.7,2.4-2.7c0,0,0,0,0-0.2c0,0,0.2-0.3,0.4-0.5c0,0,0.3-0.5,0.5-0.8l0.1-0.4l0.7-0.6
	c0,0,0.1-0.4,0.1-0.5c0.3-0.5,0.5-1,0.6-1.5c0.1-0.5,0.2-1.1,0.2-1.4c0.1-0.4,0.1-0.9-0.2-1.1c0,0,0-0.2-0.2-0.2c0,0-0.2,0-0.4-0.1
	c0,0-0.2,0-0.4-0.1L46,30.2z"/>
<linearGradient id="SVGID_3_" gradientUnits="userSpaceOnUse" x1="75.5707" y1="99.9653" x2="96.273" y2="99.9653">
	<stop  offset="0" style="stop-color:#F24E1A"/>
	<stop  offset="1" style="stop-color:#F28A25"/>
</linearGradient>
<path class="st2" d="M96.3,101.8L77.7,88.7l3.5,11.4l-5.6,11.2L96.3,101.8z"/>
</svg>
