<svg xmlns="http://www.w3.org/2000/svg" width="80" height="80" viewBox="0 0 80 80" fill="none"><path d="M68.3868 15.4858C66.253 15.4858 64.5159 17.2229 64.5159 19.36C64.5159 21.4857 66.253 23.2229 68.3868 23.2229C70.5216 23.2229 72.2576 21.4857 72.2576 19.36C72.2576 17.2229 70.5216 15.4858 68.3868 15.4858ZM68.3868 20.6402C67.6748 20.6402 67.0964 20.0686 67.0964 19.36C67.0964 18.64 67.6748 18.0687 68.3868 18.0687C69.0988 18.0687 69.677 18.64 69.677 19.36C69.677 20.0686 69.0988 20.6402 68.3868 20.6402Z" fill="white"></path><path d="M79.9999 21.5887V18.0687C79.9999 17.1315 79.9999 17.1314 76.8171 16.08L76.6582 15.7372L78.1599 12.7086L75.0319 9.57717L71.9748 11.0629L71.6742 10.9485L70.6182 7.73718H66.1553L65.1107 10.9258L64.7633 11.0857L61.7415 9.57717L58.6147 12.7086L60.0947 15.7715L59.9758 16.0687L56.7747 17.12V21.5887L59.9553 22.6287L60.1164 22.9829L58.6147 26.0001L61.7415 29.1315L64.7999 27.6457L65.1004 27.7716L66.1656 30.9715H70.6182L71.6616 27.783L72.0101 27.623L75.0342 29.1315L78.161 26.0001L76.681 22.9372L76.7999 22.6401L79.9999 21.5887ZM75.9919 20.183C75.2662 20.423 74.6799 20.9944 74.3747 21.7716L74.3107 21.9201C73.9987 22.6401 74.0113 23.4515 74.3473 24.1258L75.0216 25.4858L74.5176 25.9886L73.1565 25.3144C72.4799 24.983 71.6765 24.9601 70.9519 25.2801L70.769 25.36C70.0238 25.6457 69.4582 26.24 69.2193 26.96L68.7507 28.3886H68.0239L67.5541 26.96C67.3141 26.2286 66.7496 25.6458 65.9736 25.3373L65.8216 25.2801C65.0981 24.9715 64.2936 24.983 63.6159 25.3144L62.2558 25.9886L61.7507 25.4858L62.4261 24.1258C62.7633 23.4515 62.7758 22.6401 62.4616 21.9201L62.3861 21.7372C62.0913 20.9944 61.5073 20.423 60.7804 20.183L59.3552 19.7143V18.9943L60.7816 18.5257C61.5084 18.2857 62.0947 17.7143 62.3998 16.9371L62.4639 16.7886C62.7759 16.0686 62.7633 15.2572 62.4273 14.5829L61.753 13.2228L62.257 12.72L63.6182 13.3943C64.2959 13.7371 65.0981 13.7486 65.8216 13.4286L66.0056 13.3487C66.7507 13.063 67.3165 12.4801 67.5553 11.7486L68.0239 10.3201H68.7507L69.2204 11.7486C69.4604 12.4801 70.025 13.0628 70.801 13.3714L70.9519 13.4286C71.6753 13.7372 72.481 13.7371 73.1587 13.3943L74.5187 12.72L75.0239 13.2228L74.3484 14.5829C74.0113 15.2572 73.9988 16.0686 74.3119 16.7886L74.3885 16.9714C74.6822 17.7143 75.2662 18.2857 75.9919 18.5257C75.9919 18.5257 76.7713 18.7772 77.4204 18.9943V19.7143L75.9919 20.183Z" fill="white"></path><path d="M33.5469 5.16577H36.1286V7.73721H33.5469V5.16577Z" fill="white"></path><path d="M38.71 5.16577H41.2906V7.73721H38.71V5.16577Z" fill="white"></path><path d="M43.8706 5.16577H46.4512V7.73721H43.8706V5.16577Z" fill="white"></path><path d="M30.9668 12.9029H33.5474V15.1772C33.5474 16.7658 34.8411 18.0687 36.4319 18.0687C37.5314 18.0687 38.5189 17.4515 39.0137 16.4687L40.7966 12.9029H49.0308C50.4548 12.9029 51.6114 11.7486 51.6114 10.3201V2.58288C51.6114 1.1543 50.4548 0 49.0308 0H30.9668C29.5439 0 28.3862 1.1543 28.3862 2.58288V10.3201C28.3862 11.7486 29.5439 12.9029 30.9668 12.9029ZM30.9668 2.58288H49.0308L49.0343 10.3201H39.2011L36.7062 15.3144C36.5782 15.5658 36.128 15.4629 36.128 15.1772V10.3201H30.9668V2.58288Z" fill="white"></path><path d="M5.16115 27.0972C5.16115 29.2344 6.89833 30.9716 9.03205 30.9716C11.1669 30.9716 12.9029 29.2344 12.9029 27.0972V24.6744L12.9829 24.3545C13.4663 22.423 14.4687 20.5373 16.0492 18.5944C17.6778 16.583 18.3532 14.0573 17.9566 11.4744C17.3532 7.56583 14.0595 4.39999 10.1223 3.93142C7.54973 3.63428 4.96228 4.43435 3.03656 6.14864C1.10627 7.86294 0 10.3316 0 12.903C0 14.983 0.723465 17.0059 2.03433 18.6173C3.54862 20.4687 4.59658 22.5144 5.16115 24.7087V27.0972ZM7.74173 15.4859C7.74173 14.7659 8.32005 14.1944 9.03205 14.1944C9.74405 14.1944 10.3223 14.7659 10.3223 15.4859C10.3223 16.1944 9.74405 16.7773 9.03205 16.7773C8.32005 16.7773 7.74173 16.1944 7.74173 15.4859ZM9.03205 28.3887C8.32005 28.3887 7.74173 27.8058 7.74173 27.0972V25.8058H10.3223V27.0972C10.3223 27.8058 9.74405 28.3887 9.03205 28.3887ZM2.58058 12.903C2.58058 11.063 3.37142 9.30287 4.75085 8.08001C6.14629 6.83429 7.94401 6.27429 9.81944 6.50286C12.6274 6.83429 14.9772 9.08581 15.4046 11.8744C15.6915 13.7258 15.2081 15.5315 14.0446 16.9601C12.3543 19.0401 11.2298 21.0972 10.6149 23.2229H10.3223V19.1201C11.8206 18.5829 12.9029 17.1659 12.9029 15.4859C12.9029 13.3487 11.1669 11.6116 9.03205 11.6116C6.89833 11.6116 5.16115 13.3487 5.16115 15.4859C5.16115 17.1659 6.24344 18.5829 7.74173 19.1201V23.2229H7.42971C6.73257 20.9829 5.59315 18.8915 4.03315 16.9829C3.096 15.8287 2.58058 14.3887 2.58058 12.903Z" fill="white"></path><path d="M36.1287 40.0001C36.8418 40.0001 37.419 39.4172 37.419 38.7087C37.419 38.0001 36.8418 37.4172 36.1287 37.4172C35.4167 37.4172 34.8384 38.0001 34.8384 38.7087C34.8384 39.4172 35.4167 40.0001 36.1287 40.0001Z" fill="white"></path><path d="M43.8709 40.0001C44.5829 40.0001 45.1611 39.4172 45.1611 38.7087C45.1611 38.0001 44.5829 37.4172 43.8709 37.4172C43.1577 37.4172 42.5806 38.0001 42.5806 38.7087C42.5806 39.4172 43.1577 40.0001 43.8709 40.0001Z" fill="white"></path><path d="M44.8888 43.4287L45.0236 43.1544L42.7162 42.0001L42.5802 42.2744C42.0887 43.2573 41.1002 43.8744 39.9996 43.8744C38.899 43.8744 37.9105 43.2573 37.419 42.2744L37.283 42.0001L34.9756 43.1544L35.1104 43.4287C36.0419 45.2916 37.9162 46.4573 39.9996 46.4573C42.083 46.4573 43.9573 45.2916 44.8888 43.4287Z" fill="white"></path><path d="M73.5487 33.5429H67.0069C62.7875 33.5429 59.3555 36.983 59.3555 41.2002C59.3555 46.1145 57.6127 50.8116 54.4629 54.5487C53.5475 54.2059 52.5989 53.9544 51.6355 53.8173L46.2046 53.0402L45.4537 50.0345C47.6663 48.6516 49.3132 46.4573 49.9841 43.8745H50.3235C53.1692 43.8745 55.4846 41.5544 55.4846 38.7087C55.4846 36.8115 54.4389 35.1658 52.9041 34.263V32.2629C52.9041 25.8515 47.6949 20.6401 41.2914 20.6401H38.7097C32.3062 20.6401 27.0971 25.8515 27.0971 32.2629V34.263C25.5623 35.1658 24.5165 36.8115 24.5165 38.7087C24.5165 41.5544 26.832 43.8745 29.6777 43.8745H30.0171C30.6868 46.4573 32.3348 48.6516 34.5474 50.0345L33.7966 53.0402L28.3657 53.8173C27.4022 53.9544 26.4525 54.2059 25.5382 54.5487C22.3885 50.8116 20.6456 46.1145 20.6456 41.2002C20.6456 36.983 17.2136 33.5429 12.9942 33.5429H6.45244C4.31758 33.5429 2.58154 35.2801 2.58154 37.4173C2.58154 39.543 4.105 41.3487 6.20558 41.6915L10.3233 42.3887V44.5373C10.3233 51.4173 12.8616 57.9545 17.4456 63.0517C17.0216 64.366 16.7747 65.7488 16.7747 67.1774V80.0003H63.2264V67.1774C63.2264 65.7488 62.9795 64.366 62.5555 63.0517C67.1395 57.9545 69.6778 51.4173 69.6778 44.5373V42.3887L73.7967 41.703C75.8961 41.3487 77.4196 39.543 77.4196 37.4173C77.4196 35.2801 75.6835 33.5429 73.5487 33.5429ZM48.5063 55.9773L45.9486 60.1259L42.3086 57.943L45.5074 55.543L48.5063 55.9773ZM40 69.7945L38.8068 67.8517L40 63.2345L41.1943 67.8517L40 69.7945ZM35.4046 62.3317L37.9646 60.7887L36.9291 64.8002L35.4046 62.3317ZM43.0732 64.8002L42.0377 60.7887L44.5977 62.3317L43.0732 64.8002ZM50.3235 41.2916V36.1258C51.7463 36.1258 52.9041 37.2916 52.9041 38.7087C52.9041 40.1373 51.7463 41.2916 50.3235 41.2916ZM29.6777 32.2629C29.6777 27.2801 33.7314 23.2229 38.7097 23.2229H41.2914C46.2697 23.2229 50.3235 27.2801 50.3235 32.2629V33.5429H49.0332C47.0423 33.5429 45.1932 32.5602 44.088 30.903L42.5817 28.6402L41.5074 30.2515C40.1325 32.3201 37.8285 33.5429 35.3485 33.5429H30.9679H29.6777V32.2629ZM27.0971 38.7087C27.0971 37.2916 28.2548 36.1258 29.6777 36.1258V41.2916C28.2548 41.2916 27.0971 40.1373 27.0971 38.7087ZM32.2583 41.2916V36.1258H35.3485C38.0811 36.1258 40.6537 35.0172 42.5154 33.0972C43.848 34.6858 45.7052 35.7144 47.744 36.0344V41.2916C47.744 45.5544 44.272 49.0288 40.0023 49.0288C35.7326 49.0288 32.2583 45.5544 32.2583 41.2916ZM40 51.6116C41.0686 51.6116 42.1017 51.4516 43.0697 51.143L43.7017 53.6802L40 56.4459L36.2982 53.6802L36.9291 51.143C37.8994 51.4516 38.9326 51.6116 40 51.6116ZM34.4937 55.543L37.6926 57.943L34.0526 60.1259L31.496 55.9773L34.4937 55.543ZM6.63073 39.1544C5.78045 39.0059 5.16219 38.2858 5.16219 37.4173C5.16219 36.7087 5.74044 36.1258 6.45244 36.1258H12.9942C15.7908 36.1258 18.0651 38.4002 18.0651 41.2002C18.0651 42.1602 18.1439 43.0973 18.2582 44.0345L12.9222 44.9259C12.921 44.8002 12.9039 44.663 12.9039 44.5373V42.3887C12.9039 41.1201 11.9976 40.0458 10.7462 39.8401L6.63073 39.1544ZM13.0982 47.5087L18.7153 46.5716C19.5028 49.9087 21.0079 53.0173 23.1657 55.7259C23.0411 55.8059 22.9085 55.863 22.7862 55.943C21.0285 57.1201 19.6182 58.6631 18.5965 60.4345C15.553 56.7202 13.6605 52.263 13.0982 47.5087ZM19.3553 67.1774C19.3553 63.5203 21.1736 60.1259 24.2182 58.0916C25.5611 57.2001 27.1142 56.6059 28.7119 56.3773L38.7097 72.6174V77.4174H27.0971V65.8059H24.5165V77.4174H19.3553V67.1774ZM60.6458 77.4174H55.4846V65.8059H52.9041V77.4174H41.2914V72.6174L51.2903 56.3773C52.8869 56.6059 54.44 57.2001 55.784 58.0916C58.8275 60.1259 60.6458 63.5203 60.6458 67.1774V77.4174ZM57.2149 55.943C57.0938 55.863 56.9601 55.7945 56.8355 55.7259C58.9909 53.0173 60.4983 49.8973 61.2858 46.5716L66.9029 47.5087C66.3406 52.263 64.4481 56.7202 61.4058 60.4345C60.3829 58.6631 58.9726 57.1201 57.2149 55.943ZM73.3716 39.1544L69.2515 39.8401C68.0035 40.0458 67.0973 41.1201 67.0973 42.3887V44.5373C67.0973 44.663 67.08 44.8002 67.0789 44.9259L61.743 44.0345C61.8572 43.0973 61.936 42.1602 61.936 41.2002C61.936 38.4002 64.2103 36.1258 67.0069 36.1258H73.5487C74.2607 36.1258 74.839 36.7087 74.839 37.4173C74.839 38.2858 74.2207 39.0059 73.3716 39.1544Z" fill="white"></path></svg>