<svg xmlns="http://www.w3.org/2000/svg" width="40" height="40" viewBox="0 0 40 40" fill="none"><path d="M37.6404 39.7524C37.1021 39.7524 36.5638 39.5453 36.1911 39.1312L0.621009 3.56115C-0.207166 2.73297 -0.207166 1.44931 0.621009 0.621131C1.44918 -0.207044 2.73285 -0.207044 3.56102 0.621131L39.1311 36.1912C39.9593 37.0194 39.9593 38.3031 39.1311 39.1312C38.7171 39.5453 38.1787 39.7524 37.6818 39.7524H37.6404Z" fill="url(#paint0_linear_1113_2551)"></path><path d="M2.07032 39.7524C1.53201 39.7524 0.993687 39.5453 0.621009 39.1312C-0.207166 38.3031 -0.207166 37.0194 0.621009 36.1912L36.1911 0.621131C37.0193 -0.207044 38.303 -0.207044 39.1311 0.621131C39.9593 1.44931 39.9593 2.73297 39.1311 3.56115L3.56102 39.1312C3.14694 39.5453 2.60863 39.7524 2.11173 39.7524H2.07032Z" fill="url(#paint1_linear_1113_2551)"></path><defs><linearGradient id="paint0_linear_1113_2551" x1="-0.000122331" y1="5.32398" x2="41.9887" y2="8.67853" gradientUnits="userSpaceOnUse"><stop stop-color="#FE8801"></stop><stop offset="1" stop-color="#F5B163"></stop></linearGradient><linearGradient id="paint1_linear_1113_2551" x1="-0.000122331" y1="5.32398" x2="41.9887" y2="8.67853" gradientUnits="userSpaceOnUse"><stop stop-color="#FE8801"></stop><stop offset="1" stop-color="#F5B163"></stop></linearGradient></defs></svg>