<svg xmlns="http://www.w3.org/2000/svg" width="62" height="76" viewBox="0 0 62 76" fill="none"><path d="M59.0451 52.3021L42.665 53.2744L49.9237 58.1433L51.9137 67.2997L59.0451 52.3021Z" fill="white"></path><path d="M51.6358 56.4921C51.6358 56.4921 51.4907 57.1887 50.851 58.1057C50.5312 58.5642 50.082 59.0452 49.6328 59.5263C49.0544 60.0299 48.4986 60.6638 47.7908 61.1899C47.083 61.716 46.2686 62.395 45.3021 62.9662C44.3357 63.5374 43.2172 64.0008 41.9467 64.3565C40.6762 64.7122 39.231 64.8299 37.7857 64.9475C37.1164 64.9299 36.2951 64.8046 35.603 64.6567C34.911 64.5088 34.0669 64.2531 33.3522 63.9749C33.0481 63.7594 32.4854 63.589 32.0521 63.396C31.4666 63.0953 31.0106 62.772 30.2731 62.3635C29.665 61.9325 29.0341 61.3712 28.2513 60.7021C27.5977 60.0105 26.9442 59.3189 26.2679 58.497C24.9154 56.8531 23.6014 54.6656 22.5233 52.3027C22.5233 52.3027 22.5006 52.1724 22.4779 52.0421C22.4779 52.0421 22.4552 51.9118 22.4325 51.7815C22.4098 51.6512 22.3871 51.5209 22.3416 51.2603C22.3189 51.13 22.2735 50.8694 22.2508 50.7391C22.2281 50.6088 22.1827 50.3482 22.16 50.2179C22.1373 50.0876 22.0918 49.827 22.0691 49.6967C22.0464 49.5664 22.001 49.3059 21.9783 49.1756C21.9102 48.7847 21.8647 48.5241 21.6673 48.1557C21.2882 46.745 20.909 45.3343 20.6365 43.7707C20.364 42.2072 20.2208 40.6211 20.2069 39.0125C20.1931 37.4038 20.2858 35.6424 20.5306 33.9886C20.7753 32.3349 21.1494 30.6587 21.7822 28.9373C22.4149 27.216 23.0703 25.625 24.0071 24.1192C24.9439 22.6133 26.01 21.085 27.3575 19.6418L27.4868 19.6193C27.4868 19.6193 27.4641 19.489 27.5707 19.3362L27.784 19.0305C27.784 19.0305 28.1265 18.7023 28.2331 18.5494C28.4918 18.5044 28.5757 18.2212 28.8116 18.0459C29.0702 18.0008 29.1541 17.7176 29.3901 17.5423C29.6487 17.4972 29.7326 17.2141 29.9686 17.0387L30.0979 17.0161C30.0979 17.0161 30.0979 17.0161 30.2045 16.8633C30.2045 16.8633 30.2045 16.8633 30.3338 16.8408C30.8057 16.49 31.3003 16.2696 31.7948 16.0491C32.3121 15.9589 32.8067 15.7385 33.476 15.7561C33.7347 15.711 34.1226 15.6434 34.4267 15.8589C34.8146 15.7913 35.1187 16.0068 35.5521 16.1998C35.8562 16.4153 36.1602 16.6308 36.487 16.9766C36.5097 17.1069 36.6844 17.345 36.8365 17.4527C36.8365 17.4527 36.8592 17.583 36.8819 17.7133C36.8819 17.7133 36.9046 17.8436 36.9273 17.9739C36.9954 18.3648 37.0409 18.6254 37.109 19.0163C37.1544 19.2769 37.2225 19.6677 37.1386 19.9509C37.1386 19.9509 37.1841 20.2115 37.2068 20.3418L37.2295 20.4721L37.191 21.0158C37.191 21.0158 37.191 21.0158 37.2137 21.1461L37.1752 21.6898C37.1752 21.6898 37.2206 21.9504 37.114 22.1032C37.1594 22.3638 36.9235 22.5392 36.8396 22.8223C36.4586 23.6943 36.0776 24.5662 35.6965 25.4381C35.1862 26.3326 34.6531 27.0968 34.1201 27.861C33.587 28.6252 32.9019 29.2816 32.3461 29.9155C31.6611 30.5719 31.1053 31.2058 30.3975 31.7319C29.6897 32.258 29.0046 32.9144 28.2968 33.4406C27.589 33.9667 26.7292 34.3851 25.9987 34.7809C25.74 34.826 25.6334 34.9788 25.3748 35.0239L24.9868 35.0915C24.9868 35.0915 24.7509 35.2669 24.6215 35.2894C24.3629 35.3345 24.2336 35.357 23.9976 35.5324C23.739 35.5775 23.6097 35.6 23.351 35.6451C22.4458 35.8029 21.5632 36.091 20.7646 36.0959C19.8594 36.2537 18.9314 36.2812 18.11 36.1558C16.3607 36.058 14.6726 35.5467 13.2204 34.86C11.7683 34.1733 10.4 33.2035 9.16102 32.2112C7.92206 31.2188 6.91904 30.0511 6.17465 28.8383C5.80246 28.2319 5.43027 27.6255 5.05808 27.0191C4.98995 26.6282 4.68589 26.4127 4.61776 26.0218C4.59505 25.8915 4.57234 25.7612 4.52692 25.5006C4.50421 25.3703 4.4815 25.24 4.43608 24.9794C4.39066 24.7188 4.19321 24.3505 4.01847 24.1124C3.97305 23.8518 3.90492 23.4609 3.73018 23.2229C3.73018 23.2229 3.70747 23.0926 3.68476 22.9623C3.68476 22.9623 3.66205 22.832 3.63934 22.7017C3.61663 22.5714 3.59392 22.4411 3.5485 22.1805C3.5258 22.0502 3.50309 21.9199 3.48038 21.7896C3.45767 21.6593 3.43496 21.529 3.41225 21.3987C3.38954 21.2685 3.36683 21.1382 3.34412 21.0079C3.34412 21.0079 3.32141 20.8776 3.2987 20.7473C3.2987 20.7473 3.27599 20.617 3.25328 20.4867C3.20786 20.2261 3.16244 19.9655 3.09431 19.5746C3.0716 19.4443 3.04889 19.314 3.02618 19.1837C3.00347 19.0534 2.98076 18.9231 2.95805 18.7928C2.93534 18.6625 2.91263 18.5322 2.88992 18.4019C2.86721 18.2716 2.84451 18.1413 2.8218 18.011C2.58776 15.9038 2.65779 14.012 2.79595 12.5111C1.93108 9.84253 2.32788 8.29657 2.4572 8.27403C2.58653 8.2515 2.36446 10.0355 2.34679 12.9922C2.33796 14.4705 2.37454 16.2094 2.73789 18.2942C2.73789 18.2942 2.78331 18.5548 2.80602 18.6851C2.80602 18.6851 2.85144 18.9457 2.87415 19.076C2.87415 19.076 2.91957 19.3366 2.94228 19.4668C2.96499 19.5971 2.9877 19.7274 3.01041 19.8577C3.05583 20.1183 3.10125 20.3789 3.14667 20.6395C3.14667 20.6395 3.16938 20.7698 3.19209 20.9001C3.19209 20.9001 3.2148 21.0304 3.23751 21.1607C3.26022 21.291 3.28293 21.4213 3.30564 21.5516C3.32834 21.6819 3.35105 21.8122 3.37376 21.9425C3.39647 22.0728 3.41918 22.2031 3.44189 22.3334C3.4646 22.4637 3.48731 22.594 3.51002 22.7243C3.51002 22.7243 3.53273 22.8545 3.55544 22.9848C3.55544 22.9848 3.57815 23.1151 3.60086 23.2454C3.64628 23.506 3.6917 23.7666 3.88915 24.135C3.93457 24.3956 4.13202 24.7639 4.30676 25.002C4.32947 25.1323 4.35218 25.2626 4.37489 25.3928C4.3976 25.5231 4.42031 25.6534 4.57234 25.7612C4.61776 26.0218 4.94453 26.3676 4.98995 26.6282C5.36214 27.2346 5.71162 27.7107 6.08381 28.3171C6.93481 29.3771 7.91512 30.4145 9.00205 31.2991C10.089 32.1837 11.2825 32.9154 12.712 33.4718C14.0121 34.0507 15.5482 34.4543 17.0162 34.4669C18.5068 34.6099 20.0587 34.3394 21.4131 33.7006C21.5424 33.678 21.8011 33.6329 21.9304 33.6104C22.0597 33.5879 22.3184 33.5428 22.425 33.39C22.425 33.39 22.5543 33.3674 22.6836 33.3449L22.9423 33.2998C22.9423 33.2998 23.3075 33.1019 23.4141 32.949C24.1446 32.5532 24.7458 32.1799 25.4536 31.6538C26.1614 31.1277 26.7399 30.6241 27.3184 30.1205C27.8969 29.6169 28.5819 28.9605 29.1377 28.3266C30.2492 27.0588 31.2315 25.8136 32.0389 24.3303C32.4427 23.5887 32.7171 22.8696 32.9915 22.1505C32.9688 22.0202 33.0527 21.7371 33.1593 21.5842C33.1593 21.5842 33.1366 21.4539 33.1139 21.3236L33.0685 21.063L33.1751 20.9102C33.1751 20.9102 33.1751 20.9102 33.1524 20.7799L33.107 20.5193L33.2136 20.3665L33.1909 20.2362C33.1909 20.2362 33.1681 20.1059 33.1454 19.9756C33.1227 19.8453 33.1 19.715 33.0773 19.5847L33.0319 19.3241C33.0319 19.3241 33.0319 19.3241 32.9026 19.3466C32.9026 19.3466 32.7732 19.3692 32.6439 19.3917C32.3853 19.4368 32.1266 19.4819 31.7387 19.5495C31.48 19.5946 31.1148 19.7925 30.9016 20.0982L30.7722 20.1207C30.7722 20.1207 30.4297 20.4489 30.3231 20.6018C30.1938 20.6243 29.9805 20.93 29.8512 20.9525C29.7219 20.975 29.5087 21.2807 29.4021 21.4336C29.2727 21.4561 29.0595 21.7618 28.9529 21.9146L28.6943 21.9597L28.7397 22.2203C27.6281 23.488 26.6686 24.8636 25.9678 26.194C25.1376 27.547 24.4821 29.138 24.0626 30.5537C23.5138 31.9919 23.2463 33.5153 22.9788 35.0387C22.5732 38.063 22.6849 40.9972 23.1618 43.7334C23.6387 46.4696 24.4808 49.0079 25.3842 51.1328C25.6043 51.6314 25.8245 52.1301 26.174 52.6062C26.3941 53.1048 26.7436 53.5809 26.9638 54.0796C27.5107 54.924 28.0576 55.7685 28.7112 56.4601C29.2354 57.1742 29.8662 57.7356 30.4971 58.2969C31.1279 58.8582 31.6067 59.3118 32.0628 59.635C32.5189 59.9583 32.975 60.2816 33.4084 60.4745C33.8418 60.6675 34.1458 60.883 34.4272 60.9682C34.9899 61.1387 35.5526 61.3091 35.986 61.5021C36.5487 61.6725 37.0887 61.7127 37.6287 61.7528C38.7086 61.8331 39.7659 61.783 40.7778 61.4724C41.8124 61.2921 42.6949 61.004 43.6841 60.5631C44.5439 60.1448 45.4037 59.7264 46.1342 59.3306C47.5952 58.5389 48.7976 57.7923 49.7868 57.3514C50.6466 56.933 51.2705 56.69 51.4452 56.9281L51.6358 56.4921Z" fill="white"></path><path d="M40.3948 64.6269C40.3948 64.6269 40.1361 64.672 39.8775 64.717C39.1016 64.8523 38.4549 64.965 37.7629 64.8171C36.9643 64.822 36.2723 64.6741 35.5802 64.5262C34.8882 64.3783 34.0441 64.1227 33.3294 63.8445C33.0481 63.7593 32.6147 63.5663 32.0293 63.2656C31.4438 62.9649 30.8584 62.6641 30.2503 62.2331C29.6422 61.8021 28.882 61.2633 28.2285 60.5717C27.5749 59.8801 26.7921 59.211 26.2451 58.3665C25.5689 57.5446 24.8699 56.5924 24.2776 55.4874C23.6852 54.3823 23.0929 53.2773 22.4778 52.0419C22.4778 52.0419 22.4551 51.9116 22.4324 51.7813L22.387 51.5207L22.1668 51.0221C22.1668 51.0221 22.1668 51.0221 22.1441 50.8918L22.0987 50.6312C22.076 50.5009 22.0305 50.2403 22.0078 50.11L21.9624 49.8494C21.9624 49.8494 21.9397 49.7191 21.917 49.5888C21.917 49.5888 21.8716 49.3283 21.8489 49.198C21.8489 49.198 21.8489 49.198 21.8262 49.0677L21.7807 48.8071C21.7353 48.5465 21.6899 48.2859 21.6445 48.0253C21.2654 46.6146 20.8635 45.0736 20.6137 43.6403C20.3412 42.0767 20.198 40.4907 20.1841 38.882C20.1545 37.9474 20.1248 37.0128 20.2472 36.1859C19.4713 36.3212 18.5433 36.3487 17.722 36.2233C16.9006 36.098 15.95 35.9951 15.1059 35.7395C14.2619 35.4838 13.5471 35.2056 12.6803 34.8197C11.2282 34.133 9.8826 33.2935 8.62093 32.1709C7.51129 31.156 6.50827 29.9883 5.63456 28.798C5.26237 28.1916 4.76086 27.6077 4.51799 26.9788C4.44986 26.5879 4.1458 26.3724 4.07767 25.9815L3.98683 25.4603L3.85751 25.4829C3.8348 25.3526 3.81209 25.2223 3.78938 25.092L3.72125 24.7011C3.72125 24.7011 3.5238 24.3327 3.37177 24.225L3.2128 23.3129L3.08348 23.3355C3.08348 23.3355 3.08348 23.3355 3.06077 23.2052L3.01535 22.9446C3.01535 22.9446 2.96993 22.684 2.94722 22.5537L2.85638 22.0325L2.78825 21.6416L2.69741 21.1204C2.69741 21.1204 2.69741 21.1204 2.6747 20.9901C2.62929 20.7295 2.58387 20.4689 2.51574 20.078L2.47032 19.8175C2.47032 19.8175 2.44761 19.6872 2.4249 19.5569C2.4249 19.5569 2.35677 19.166 2.33406 19.0357C2.33406 19.0357 2.31135 18.9054 2.28864 18.7751C2.28864 18.7751 2.28864 18.7751 2.26593 18.6448C2.10696 17.7327 2.18393 16.6453 2.15428 15.7107C2.14735 14.9063 2.14041 14.102 2.24008 13.1449C2.35553 11.5137 2.56182 10.4037 2.72962 9.83745C2.26659 8.70986 2.32779 8.29643 2.45711 8.27389C2.45711 8.27389 2.54795 8.79508 2.42556 9.62193C2.4325 10.4262 2.35553 11.5137 2.3467 12.992C2.40599 14.8613 2.44257 16.6002 2.7378 18.294C2.7378 18.294 2.7378 18.294 2.76051 18.4243C2.76051 18.4243 2.78322 18.5546 2.80593 18.6849C2.80593 18.6849 2.85135 18.9455 2.87406 19.0758C2.87406 19.0758 2.89676 19.2061 2.91947 19.3364L2.96489 19.597C2.96489 19.597 2.9876 19.7273 3.01031 19.8576C3.01031 19.8576 3.10115 20.3788 3.14657 20.6394C3.14657 20.6394 3.14657 20.6394 3.16928 20.7697C3.16928 20.7697 3.19199 20.9 3.2147 21.0303L3.28283 21.4211C3.28283 21.4211 3.32825 21.6817 3.35096 21.812C3.37367 21.9423 3.39638 22.0726 3.41909 22.2029L3.48722 22.5938L3.53264 22.8544C3.53264 22.8544 3.53264 22.8544 3.55535 22.9847L3.71431 23.8968C3.71431 23.8968 4.06379 24.3729 4.21583 24.4806C4.21583 24.4806 4.28395 24.8715 4.30666 25.0018L4.37479 25.3927C4.37479 25.3927 4.87631 25.9766 4.92173 26.2372C5.27121 26.7133 5.6434 27.3197 6.01559 27.9261C6.86658 28.986 7.8469 30.0235 8.93383 30.9081C10.0208 31.7926 11.3663 32.6322 12.6438 33.0808C13.3585 33.359 14.0732 33.6372 14.7653 33.785C15.4573 33.9329 16.2786 34.0583 16.948 34.0759C17.7466 34.0709 18.6746 34.0435 19.5798 33.8857C19.8019 32.1017 20.3053 30.4029 20.8314 28.8344C21.0831 27.985 21.4641 27.1131 21.8679 26.3714C22.2489 25.4995 22.6526 24.7578 23.1857 23.9937C24.0998 22.3575 25.3179 20.9369 26.5361 19.5163L26.6654 19.4938L26.6427 19.3635L26.8559 19.0578C26.8559 19.0578 27.1985 18.7296 27.3051 18.5768C27.5637 18.5317 27.6476 18.2486 27.8835 18.0732C27.8835 18.0732 27.8835 18.0732 28.0129 18.0507C28.1422 18.0281 28.2488 17.8753 28.3554 17.7224L28.4847 17.6999C28.4847 17.6999 28.698 17.3942 28.8046 17.2414L28.9339 17.2189C28.9339 17.2189 28.9339 17.2189 29.0405 17.066C29.0405 17.066 29.0405 17.066 29.1698 17.0435C29.6417 16.6927 30.1363 16.4723 30.6308 16.2518C31.2775 16.1391 31.772 15.9187 32.312 15.9588C32.7 15.8912 32.9586 15.8461 33.2627 16.0616C33.6507 15.994 33.9547 16.2095 34.3881 16.4025C34.6922 16.618 34.9962 16.8335 35.323 17.1793C35.3457 17.3096 35.5204 17.5477 35.6725 17.6554C35.6725 17.6554 35.6952 17.7857 35.7179 17.916C35.7179 17.916 35.7406 18.0463 35.7633 18.1766C35.8314 18.5675 35.8769 18.8281 35.945 19.219C35.9904 19.4796 36.0358 19.7402 35.9746 20.1536C35.9973 20.2839 36.0201 20.4142 36.0428 20.5445L36.1109 20.9354L36.179 21.3263L36.0497 21.3488L36.0112 21.8925C36.0112 21.8925 36.0339 22.0228 35.9273 22.1757C35.9273 22.1757 35.95 22.3059 35.9727 22.4362C35.9955 22.5665 35.8888 22.7194 35.7822 22.8722C35.5917 23.3082 35.4012 23.7441 35.2107 24.1801C35.0202 24.6161 34.8297 25.0521 34.5098 25.5106C34.1061 26.2522 33.5957 27.1467 32.9334 27.9334C32.4003 28.6976 31.7152 29.354 31.1594 29.9879C30.4743 30.6443 29.9186 31.2782 29.2108 31.8043C28.5257 32.4607 27.8179 32.9869 27.1101 33.513C26.4023 34.0391 25.5425 34.4575 24.812 34.8533C24.812 34.8533 24.812 34.8533 24.6826 34.8759C24.5533 34.8984 24.424 34.9209 24.1881 35.0963L23.8001 35.1639C23.8001 35.1639 23.6708 35.1865 23.5414 35.209C23.2828 35.2541 23.1535 35.2766 22.9176 35.452C22.6797 37.91 22.7459 40.5836 23.3295 43.167C23.7609 45.6426 24.6031 48.1809 25.5519 50.5664C25.6427 51.0875 25.9922 51.5637 26.3417 52.0398C26.5618 52.5384 26.9113 53.0145 27.1315 53.5132C27.6784 54.3576 28.2253 55.2021 28.8789 55.8937C29.4031 56.6078 30.0339 57.1692 30.6648 57.7305C31.1436 58.184 31.7517 58.6151 32.2305 59.0686C32.6866 59.3919 33.1427 59.7152 33.5761 59.9081C34.0095 60.1011 34.3135 60.3166 34.5949 60.4018C35.1576 60.5723 35.591 60.7653 36.1537 60.9357C36.7164 61.1061 37.127 61.1688 37.7964 61.1864C38.3137 61.0962 38.8764 61.2667 39.3936 61.1765C39.9109 61.0863 40.4282 60.9962 40.9455 60.906C41.8507 60.7483 42.7333 60.4602 43.8518 59.9967C44.605 59.7312 45.3355 59.3354 46.3019 58.7642C47.0324 58.3683 47.6336 57.995 48.2575 57.752C48.8587 57.3787 49.4599 57.0055 49.9545 56.785C50.4491 56.5645 50.8143 56.3666 51.073 56.3215C51.2023 56.299 51.3316 56.2765 51.4609 56.2539L51.5902 56.2314C51.5902 56.2314 51.6357 56.492 51.5518 56.7751C51.4679 57.0582 51.2546 57.3639 50.9348 57.8224C50.615 58.2809 50.1658 58.762 49.7166 59.243C49.1382 59.7466 48.5824 60.3805 47.8746 60.9066C47.0602 61.5856 46.2231 62.1343 45.3859 62.6829C44.9141 63.0337 44.2902 63.2767 43.7956 63.4971C43.1717 63.7401 42.5478 63.9831 42.0532 64.2036C41.5359 64.2937 41.0187 64.3839 40.5014 64.474L40.3948 64.6269ZM19.8593 36.2536C19.7596 37.2107 19.7665 38.015 19.7962 38.9496C19.81 40.5583 19.9532 42.1444 20.2257 43.7079C20.4756 45.1412 20.7254 46.5744 21.2565 48.0929C21.3019 48.3535 21.3474 48.6141 21.3928 48.8747L21.4382 49.1353C21.4382 49.1353 21.4382 49.1353 21.4609 49.2656C21.4609 49.2656 21.5063 49.5262 21.529 49.6565L21.5745 49.9171L21.6199 50.1776C21.6199 50.1776 21.688 50.5685 21.7107 50.6988L21.7561 50.9594C21.7561 50.9594 21.7561 50.9594 21.7788 51.0897L21.8697 51.6109L22.0444 51.849C22.0444 51.849 22.0444 51.849 22.0671 51.9793C22.5529 53.2371 23.1452 54.3422 23.8669 55.4247C24.4365 56.3994 25.1355 57.3516 25.8345 58.3039C26.5107 59.1258 27.1643 59.8174 27.8178 60.509C28.4486 61.0703 29.0795 61.6316 29.8396 62.1704C30.4478 62.6015 31.0332 62.9022 31.6186 63.2029C32.204 63.5036 32.6374 63.6966 32.9187 63.7818C33.6335 64.06 34.3482 64.3382 35.1696 64.4636C35.8616 64.6115 36.6829 64.7368 37.3522 64.7544C38.6909 64.7896 40.1361 64.672 41.5132 64.1634C42.6544 63.8303 43.7729 63.3668 44.8687 62.7731C45.7058 62.2244 46.5429 61.6757 47.3573 60.9968C48.0651 60.4707 48.6436 59.9671 49.1994 59.3332C49.6485 58.8521 50.0977 58.3711 50.4175 57.9126C50.7373 57.4541 50.9506 57.1484 51.0345 56.8653C51.1184 56.5821 51.225 56.4293 51.073 56.3215C51.073 56.3215 51.073 56.3215 50.9436 56.3441C50.9436 56.3441 50.685 56.3892 50.5557 56.4117C50.297 56.4568 49.9091 56.5244 49.4372 56.8752C48.9426 57.0956 48.3414 57.4689 47.7402 57.8422C47.1391 58.2155 46.5152 58.4585 45.7846 58.8543C44.7955 59.2952 44.065 59.6911 43.3345 60.0869C42.3453 60.5278 41.3335 60.8384 40.4282 60.9962C39.9109 61.0863 39.3936 61.1765 38.8764 61.2667C38.3591 61.3568 37.8191 61.3167 37.2791 61.2766C36.7391 61.2364 36.1991 61.1963 35.6364 61.0258C35.0737 60.8554 34.511 60.685 34.0776 60.492C33.7962 60.4068 33.4922 60.1913 33.0588 59.9983C32.6254 59.8053 32.1693 59.4821 31.7132 59.1588C31.1051 58.7278 30.6263 58.2742 30.1475 57.8206C29.5167 57.2593 29.0151 56.6755 28.3616 55.9838C27.8374 55.2697 27.1611 54.4478 26.6142 53.6033C26.4167 53.235 26.0673 52.7589 25.8244 52.1299C25.6042 51.6313 25.2547 51.1552 25.0346 50.6565C23.9565 48.2936 23.2437 45.7327 22.8122 43.2571C22.5624 41.8239 22.3126 40.3906 22.3441 39.0426C22.269 37.8474 22.346 36.7599 22.4003 35.5422C22.4003 35.5422 22.1416 35.5872 22.0123 35.6098L21.7537 35.6549C20.8711 35.9429 19.9659 36.1007 19.1899 36.236C19.1899 36.236 19.1899 36.236 19.0606 36.2585L19.8593 36.2536ZM19.8593 36.2536C19.8593 36.2536 19.8593 36.2536 19.9886 36.231C20.8938 36.0732 21.7991 35.9155 22.575 35.7802L22.8336 35.7351C22.8336 35.7351 23.0923 35.6901 23.2216 35.6675C23.1762 35.4069 23.2374 34.9935 23.3213 34.7104C23.3598 34.1666 23.5276 33.6004 23.5888 33.187L23.3301 33.232C23.3301 33.232 23.2008 33.2546 23.0715 33.2771C23.0715 33.2771 22.8128 33.3222 22.6835 33.3447L22.4249 33.3898C22.2956 33.4124 22.1662 33.4349 22.0369 33.4574C21.3903 33.5701 20.7664 33.8131 20.2491 33.9033C20.104 34.5998 20.111 35.4042 19.9659 36.1007L19.8593 36.2536ZM2.45711 8.27389C2.45711 8.27389 2.26659 8.70986 2.14421 9.53672C1.99911 10.2333 1.79283 11.3433 1.65467 12.8441C1.53228 13.671 1.53922 14.4753 1.56887 15.4099C1.59851 16.3445 1.65087 17.4094 1.68052 18.3441C1.68052 18.3441 1.68052 18.3441 1.70323 18.4744C1.70323 18.4744 1.72594 18.6047 1.74864 18.735C1.77135 18.8652 1.79406 18.9955 1.81677 19.1258C1.81677 19.1258 1.86219 19.3864 1.8849 19.5167C1.8849 19.5167 1.90761 19.647 1.93032 19.7773C1.97574 20.0379 2.02116 20.2985 2.08929 20.6894C2.08929 20.6894 2.08929 20.6894 2.112 20.8197L2.15742 21.0803L2.22555 21.4712L2.27097 21.7318L2.3391 22.1226C2.3391 22.1226 2.40723 22.5135 2.42994 22.6438L2.47535 22.9044C2.47535 22.9044 2.47535 22.9044 2.49806 23.0347L2.65703 23.9468C2.65703 23.9468 2.9838 24.2926 3.00651 24.4229L3.07464 24.8138C3.07464 24.8138 3.24938 25.0518 3.27209 25.1821L3.36293 25.7033C3.36293 25.7033 3.73512 26.3097 3.93257 26.6781C4.30476 27.2845 4.67696 27.8909 5.04915 28.4973C5.92285 29.6875 6.92588 30.8553 8.03551 31.8701C9.29718 32.9928 10.6428 33.8323 12.0949 34.519C12.8324 34.9275 13.6764 35.1831 14.5205 35.4388C15.3646 35.6944 16.1859 35.8198 17.1366 35.9226C17.9579 36.0479 18.8859 36.0204 19.6618 35.8852C19.6776 35.2112 19.8 34.3843 19.9451 33.6878C19.8157 33.7103 19.6864 33.7329 19.5571 33.7554C18.7812 33.8906 18.0052 34.0259 17.3132 33.878C16.6439 33.8604 15.8225 33.735 15.1305 33.5871C14.4385 33.4392 13.7238 33.161 13.009 32.8829C11.7089 32.3039 10.5153 31.5722 9.29908 30.7101C8.21215 29.8255 7.25455 28.9184 6.38084 27.7282C6.00865 27.1218 5.65917 26.6456 5.28698 26.0392C5.24156 25.7787 4.9375 25.5631 4.86937 25.1723L4.80124 24.7814L4.67192 24.8039C4.67192 24.8039 4.6265 24.5433 4.60379 24.413C4.60379 24.413 4.49024 23.7615 4.3155 23.5235L4.15653 22.6114L4.02721 22.6339C4.02721 22.6339 4.02721 22.6339 4.0045 22.5037L3.95908 22.2431C3.95908 22.2431 3.93637 22.1128 3.91366 21.9825C3.91366 21.9825 3.82282 21.4613 3.80011 21.331C3.77741 21.2007 3.7547 21.0704 3.73199 20.9401L3.66386 20.5492C3.66386 20.5492 3.64115 20.4189 3.61844 20.2886C3.61844 20.2886 3.61844 20.2886 3.59573 20.1583C3.55031 19.8977 3.50489 19.6371 3.48218 19.5068C3.48218 19.5068 3.43676 19.2462 3.41405 19.116C3.41405 19.116 3.36863 18.8554 3.34592 18.7251C3.34592 18.7251 3.3005 18.4645 3.27779 18.3342C3.27779 18.3342 3.25508 18.2039 3.23237 18.0736C3.23237 18.0736 3.23237 18.0736 3.20966 17.9433C2.91444 16.2494 2.87785 14.5105 2.81856 12.6413C2.8274 11.1629 2.90436 10.0755 2.89743 9.27118C2.54795 8.79508 2.58643 8.25135 2.45711 8.27389ZM23.5433 32.9264C23.5433 32.9264 23.3371 34.0364 23.2759 34.4498C23.3213 34.7104 23.1308 35.1463 23.1762 35.4069C23.4348 35.3619 23.5642 35.3393 23.8001 35.1639C23.8001 35.1639 23.9294 35.1414 24.0587 35.1189L24.4467 35.0512C24.4467 35.0512 24.6826 34.8759 24.9186 34.7005C24.9186 34.7005 24.9186 34.7005 25.0479 34.6779C25.7784 34.2821 26.6382 33.8637 27.346 33.3376C28.0538 32.8115 28.7616 32.2854 29.4467 31.6289C30.1318 30.9725 30.8396 30.4464 31.3954 29.8125C32.0805 29.1561 32.6135 28.3919 33.1693 27.758C33.7023 26.9938 34.2354 26.2297 34.7458 25.3352C34.9363 24.8992 35.2561 24.4407 35.4466 24.0047C35.6371 23.5688 35.8276 23.1328 36.0182 22.6968C35.9955 22.5665 36.1021 22.4137 36.2087 22.2609C36.2087 22.2609 36.186 22.1306 36.1633 22.0003C36.1633 22.0003 36.1405 21.87 36.2472 21.7171L36.179 21.3263L36.415 21.1509L36.3468 20.76L36.5601 20.4543C36.5601 20.4543 36.5146 20.1937 36.4692 19.9331C36.4238 19.6725 36.5077 19.3894 36.4396 18.9985C36.3714 18.6076 36.326 18.347 36.2579 17.9562C36.2579 17.9562 36.2352 17.8259 36.2125 17.6956C36.2125 17.6956 36.1898 17.5653 36.1671 17.435C36.1443 17.3047 35.9696 17.0666 35.8176 16.9589C35.6201 16.5905 35.3161 16.375 34.8827 16.182C34.5786 15.9665 34.1679 15.9038 33.7573 15.8412C33.4986 15.8862 33.088 15.8236 32.8066 15.7384C32.2893 15.8285 31.772 15.9187 31.1254 16.0314C30.6081 16.1215 30.1363 16.4723 29.6644 16.823C29.6644 16.823 29.6644 16.823 29.5351 16.8456C29.5351 16.8456 29.5351 16.8456 29.4058 16.8681L29.2764 16.8906C29.2764 16.8906 29.0632 17.1963 28.9339 17.2189L28.8046 17.2414C28.8046 17.2414 28.5913 17.5471 28.4847 17.6999C28.4847 17.6999 28.4847 17.6999 28.3554 17.7224C28.0968 17.7675 28.0129 18.0507 27.7769 18.226C27.6703 18.3789 27.4344 18.5542 27.3278 18.7071L27.1146 19.0128L26.9852 19.0353C25.7671 20.4559 24.701 21.9843 23.6348 23.5126C22.6981 25.0184 21.9133 26.632 21.4099 28.3308C20.8838 29.8993 20.4031 31.7284 20.1583 33.3821C20.8049 33.2694 21.3222 33.1792 21.9461 32.9362C22.0754 32.9137 22.2047 32.8912 22.334 32.8686L22.5927 32.8235C22.5927 32.8235 22.8513 32.7785 22.9806 32.7559C22.9806 32.7559 23.11 32.7334 23.2393 32.7108L23.4979 32.6658C23.7269 31.6861 23.9559 30.7064 24.3142 29.7042C24.8404 28.1357 25.5185 26.6749 26.2194 25.3445C27.0269 23.8612 28.0091 22.616 28.9913 21.3707L28.9686 21.2404L29.6537 20.584L30.1028 20.103C30.1028 20.103 30.1028 20.103 30.2321 20.0804C30.2321 20.0804 30.4681 19.9051 30.5747 19.7522C30.5747 19.7522 30.704 19.7297 30.8106 19.5768L31.0693 19.5318L31.1532 19.2486C31.3891 19.0733 31.7544 18.8753 31.9903 18.7C32.2489 18.6549 32.6369 18.5873 32.8955 18.5422C33.0249 18.5196 33.1542 18.4971 33.1542 18.4971C33.1542 18.4971 33.1542 18.4971 33.2835 18.4746C33.2835 18.4746 33.3062 18.6049 33.3289 18.7352C33.3289 18.7352 33.3743 18.9958 33.3971 19.1261C33.3971 19.1261 33.4198 19.2563 33.4425 19.3866L33.4652 19.5169L33.5333 19.9078L33.6014 20.2987C33.6014 20.2987 33.6241 20.429 33.6469 20.5593C33.6469 20.5593 33.6696 20.6896 33.6923 20.8199C33.6923 20.8199 33.7377 21.0805 33.6084 21.103C33.5472 21.5165 33.334 21.8221 33.1434 22.2581C32.9302 22.5638 32.869 22.9772 32.6785 23.4132C31.9776 24.7436 31.0181 26.1191 29.7773 27.4094C29.2215 28.0433 28.643 28.5469 27.9579 29.2033C27.2729 29.8598 26.6944 30.3633 26.0932 30.7366C25.3854 31.2628 24.7842 31.6361 24.0537 32.0319C24.0537 32.0319 24.0537 32.0319 23.9244 32.0544C23.7951 32.077 23.6657 32.0995 23.5364 32.122L23.5433 32.9264ZM33.2835 18.4746C33.2835 18.4746 32.7662 18.5647 32.5076 18.6098C32.2489 18.6549 31.8837 18.8528 31.6705 19.1585L31.5411 19.181L31.3279 19.4867C31.3279 19.4867 31.1986 19.5092 31.092 19.6621C30.9627 19.6846 30.856 19.8374 30.7494 19.9903C30.7494 19.9903 30.7494 19.9903 30.6201 20.0128L30.1709 20.4939L29.4859 21.1503C28.3743 22.4181 27.5441 23.771 26.714 25.124C26.0131 26.4545 25.3349 27.9152 24.8088 29.4837C24.4505 30.4859 24.2215 31.4656 23.9925 32.4453C24.1218 32.4228 24.2511 32.4002 24.3805 32.3777C24.3805 32.3777 24.3805 32.3777 24.5098 32.3552C25.2403 31.9593 25.8415 31.586 26.5493 31.0599C27.1278 30.5563 27.8356 30.0302 28.414 29.5266C28.9925 29.023 29.6776 28.3666 30.2334 27.7327C31.4742 26.4424 32.4337 25.0669 33.1346 23.7364C33.3251 23.3005 33.5383 22.9948 33.5995 22.5814C33.79 22.1454 33.874 21.8623 34.0645 21.4263C34.0645 21.4263 34.019 21.1657 34.1484 21.1432C34.1484 21.1432 34.1257 21.0129 34.1029 20.8826C34.1029 20.8826 34.0802 20.7523 34.0575 20.622L34.0121 20.3614L34.1187 20.2086L34.0733 19.948L34.1572 19.6648L34.1118 19.4042C34.0891 19.2739 34.0664 19.1436 34.0437 19.0134L33.9982 18.7528C33.9982 18.7528 33.9982 18.7528 33.8689 18.7753C33.8689 18.7753 33.7396 18.7978 33.6103 18.8204C33.6103 18.8204 33.6103 18.8204 33.481 18.8429L33.2835 18.4746Z" fill="white"></path></svg>